<svg width="52" height="52" viewBox="0 0 52 52" fill="none" xmlns="http://www.w3.org/2000/svg">
<path d="M25.6787 51.4094C39.8606 51.4094 51.3573 39.901 51.3573 25.7047C51.3573 11.5084 39.8606 0 25.6787 0C11.4967 0 0 11.5084 0 25.7047C0 39.901 11.4967 51.4094 25.6787 51.4094Z" fill="url(#paint0_radial_1_444)"/>
<path d="M25.6788 47.9358C37.9442 47.9358 47.8874 37.9826 47.8874 25.7047C47.8874 13.4268 37.9442 3.4736 25.6788 3.4736C13.4133 3.4736 3.47021 13.4268 3.47021 25.7047C3.47021 37.9826 13.4133 47.9358 25.6788 47.9358Z" fill="url(#paint1_radial_1_444)"/>
<path opacity="0.25" d="M25.6787 3.33469C19.8489 3.33469 14.4356 5.5578 10.5491 9.30929C12.9087 8.47563 15.4072 8.0588 18.0445 8.0588C30.2592 8.0588 40.253 18.0628 40.253 30.2899C40.253 36.6813 37.477 42.517 33.1741 46.5464C41.7799 43.4896 47.8872 35.2919 47.8872 25.5658C47.8872 13.3387 37.8934 3.33469 25.6787 3.33469Z" fill="url(#paint2_radial_1_444)"/>
<path d="M28.5936 31.4014C17.9057 31.4014 8.88344 23.7595 6.80139 13.7555C4.58053 17.2291 3.3313 21.2585 3.3313 25.7047C3.3313 37.9318 13.3252 47.9358 25.5399 47.9358C37.7546 47.9358 47.7484 37.9318 47.7484 25.7047C47.7484 24.1763 47.6096 22.6479 47.332 21.1195C43.4455 27.2331 36.5054 31.4014 28.5936 31.4014Z" fill="url(#paint3_radial_1_444)"/>
<path d="M42.6127 11.3934C42.8903 12.6439 42.8903 13.8944 42.8903 15.1449C42.8903 27.372 32.8964 37.376 20.6817 37.376C13.8804 37.376 7.77299 34.3193 3.60889 29.4562C5.41333 40.016 14.5744 47.9358 25.5399 47.9358C37.7546 47.9358 47.7484 37.9318 47.7484 25.7047C47.8872 20.1469 45.944 15.2839 42.6127 11.3934Z" fill="url(#paint4_radial_1_444)"/>
<path d="M24.8459 15.7007C24.1519 15.7007 23.5967 15.1449 23.5967 14.4502C23.5967 13.7555 24.1519 13.1997 24.8459 13.1997C25.5399 13.1997 26.0951 13.7555 26.0951 14.4502C25.9563 15.1449 25.4011 15.7007 24.8459 15.7007ZM5.1358 25.01C5.55221 25.01 5.96862 24.5932 5.96862 24.1763C5.96862 23.7595 5.55221 23.3427 5.1358 23.3427C4.71939 23.3427 4.30298 23.7595 4.30298 24.1763C4.30298 24.7321 4.71939 25.01 5.1358 25.01ZM11.1044 17.7849C10.1327 17.7849 9.43871 18.4796 9.43871 19.4522C9.43871 20.4248 10.1327 21.1195 11.1044 21.1195C12.076 21.1195 12.77 20.4248 12.77 19.4522C12.77 18.4796 11.9372 17.7849 11.1044 17.7849ZM5.82982 35.7087C6.94025 35.5698 7.77307 34.7361 7.77307 33.6245C7.77307 32.374 6.80144 31.5404 5.69101 31.5404C5.2746 31.5404 4.71939 31.6793 4.44179 31.9572C4.71939 33.2077 5.1358 34.4582 5.82982 35.7087ZM14.0192 26.1215C14.0192 24.4542 12.77 23.2037 11.1044 23.2037C9.43871 23.2037 8.18948 24.4542 8.18948 26.1215C8.18948 27.7889 9.43871 29.0394 11.1044 29.0394C12.77 29.0394 14.0192 27.6499 14.0192 26.1215ZM17.9057 45.1569C17.9057 43.9064 16.7953 42.7949 15.5461 42.7949C14.5744 42.7949 13.7416 43.3506 13.3252 44.1843C14.5744 45.018 15.9625 45.7127 17.4893 46.2685C17.7669 45.9906 17.9057 45.5738 17.9057 45.1569ZM7.63427 12.505C8.18948 13.3387 9.0223 14.0334 10.1327 14.0334C11.7984 14.0334 13.0476 12.7829 13.0476 11.1155C13.0476 10.004 12.3536 8.89244 11.382 8.4756C9.99393 9.7261 8.7447 11.1155 7.63427 12.505ZM23.4579 44.1843C24.0131 44.1843 24.4295 43.7675 24.4295 43.2117C24.4295 42.6559 24.0131 42.2391 23.4579 42.2391C22.9027 42.2391 22.4863 42.6559 22.4863 43.2117C22.4863 43.6285 22.9027 44.1843 23.4579 44.1843ZM23.5967 38.4876C23.5967 37.7929 23.0415 37.2371 22.3474 37.2371C21.6534 37.2371 21.0982 37.7929 21.0982 38.4876C21.0982 39.1823 21.6534 39.7381 22.3474 39.7381C23.0415 39.877 23.5967 39.3213 23.5967 38.4876ZM17.2117 6.25249C17.2117 8.19771 18.7386 9.7261 20.6818 9.7261C22.6251 9.7261 24.1519 8.19771 24.1519 6.25249C24.1519 5.14093 23.5967 4.16832 22.9027 3.4736C21.0982 3.75149 19.2938 4.16832 17.6281 4.86305C17.3505 5.41882 17.2117 5.83566 17.2117 6.25249ZM14.8521 33.0688C12.9088 33.0688 11.2432 34.5971 11.2432 36.6813C11.2432 38.6265 12.77 40.2939 14.8521 40.2939C16.7953 40.2939 18.4609 38.7655 18.4609 36.6813C18.3221 34.7361 16.7953 33.0688 14.8521 33.0688ZM20.8206 17.0902C20.8206 16.3954 20.2654 15.8397 19.5714 15.8397C18.8774 15.8397 18.3221 16.3954 18.3221 17.0902C18.3221 17.7849 18.8774 18.3407 19.5714 18.3407C20.1266 18.3407 20.8206 17.7849 20.8206 17.0902ZM21.3758 23.0648C19.5714 23.0648 18.1833 24.4542 18.1833 26.2605C18.1833 28.0668 19.5714 29.4562 21.3758 29.4562C23.1803 29.4562 24.5683 28.0668 24.5683 26.2605C24.5683 24.4542 23.0415 23.0648 21.3758 23.0648ZM38.7263 11.9492C38.7263 13.6165 39.9755 14.867 41.6411 14.867C42.7516 14.867 43.7232 14.3113 44.1396 13.3387C43.168 11.8103 41.9188 10.4208 40.6695 9.17033C39.4203 9.58716 38.7263 10.6987 38.7263 11.9492ZM38.3099 42.517C37.1994 42.517 36.2278 43.4896 36.2278 44.6011C36.2278 44.879 36.2278 45.018 36.3666 45.1569C37.477 44.4622 38.5875 43.7675 39.5591 42.9338C39.2815 42.6559 38.8651 42.517 38.3099 42.517ZM30.2593 5.69672C30.2593 7.2251 31.5085 8.4756 33.0353 8.4756C34.5622 8.4756 35.6726 7.36405 35.6726 5.83566C34.1458 5.00199 32.6189 4.44622 30.8145 4.02938C30.5369 4.44622 30.2593 5.14094 30.2593 5.69672ZM36.783 18.0628C36.783 15.9786 35.1174 14.1723 32.8965 14.1723C30.6757 14.1723 29.01 15.8397 29.01 18.0628C29.01 20.1469 30.6757 21.9532 32.8965 21.9532C35.1174 21.9532 36.783 20.1469 36.783 18.0628ZM41.9188 35.5698C41.9188 35.1529 41.6412 34.875 41.2247 34.875C40.8083 34.875 40.5307 35.1529 40.5307 35.5698C40.5307 35.9866 40.8083 36.2645 41.2247 36.2645C41.5023 36.2645 41.9188 35.9866 41.9188 35.5698ZM47.3321 28.6225C46.7769 28.6225 46.3605 29.0394 46.3605 29.5952C46.3605 30.1509 46.7769 30.5678 47.3321 30.5678C47.4709 29.873 47.6097 29.1783 47.7485 28.6225C47.6097 28.6225 47.4709 28.6225 47.3321 28.6225ZM29.704 46.4074C31.6473 46.4074 33.3129 44.879 33.3129 42.7949C33.3129 40.8496 31.7861 39.1823 29.704 39.1823C27.7608 39.1823 26.0951 40.7107 26.0951 42.7949C26.2339 44.7401 27.7608 46.4074 29.704 46.4074ZM26.7892 34.4582C26.7892 35.1529 27.3444 35.7087 28.0384 35.7087C28.7324 35.7087 29.2876 35.1529 29.2876 34.4582C29.2876 33.7635 28.7324 33.2077 28.0384 33.2077C27.3444 33.2077 26.7892 33.9024 26.7892 34.4582ZM29.5652 27.9278C29.5652 27.511 29.2876 27.2331 28.8712 27.2331C28.4548 27.2331 28.1772 27.511 28.1772 27.9278C28.1772 28.3447 28.4548 28.6225 28.8712 28.6225C29.1488 28.6225 29.5652 28.3447 29.5652 27.9278ZM40.5307 25.7047C39.8367 25.7047 39.2815 26.2605 39.2815 26.9552C39.2815 27.6499 39.8367 28.2057 40.5307 28.2057C41.2247 28.2057 41.78 27.6499 41.78 26.9552C41.9188 26.2605 41.2247 25.7047 40.5307 25.7047ZM33.8681 27.6499C33.0353 27.6499 32.3413 28.3446 32.3413 29.1783C32.3413 30.012 33.0353 30.7067 33.8681 30.7067C34.701 30.7067 35.395 30.012 35.395 29.1783C35.5338 28.3446 34.8398 27.6499 33.8681 27.6499ZM44.6948 20.5638C44.6948 21.5364 45.3888 22.2311 46.3605 22.2311C46.7769 22.2311 47.1933 22.0922 47.4709 21.8143C47.3321 20.8417 47.0545 19.869 46.7769 19.0354C46.6381 19.0354 46.4993 18.8964 46.2217 18.8964C45.3888 18.8964 44.6948 19.7301 44.6948 20.5638ZM34.4234 36.5424C34.007 36.5424 33.7293 36.8203 33.7293 37.2371C33.7293 37.6539 34.007 37.9318 34.4234 37.9318C34.8398 37.9318 35.1174 37.6539 35.1174 37.2371C35.1174 36.8203 34.8398 36.5424 34.4234 36.5424Z" fill="url(#paint5_radial_1_444)"/>
<path d="M21.3758 23.0648C19.5714 23.0648 18.1833 24.4542 18.1833 26.2605C18.1833 26.8163 18.3222 27.372 18.5998 27.7889C18.7386 26.1215 20.1266 24.7321 21.7922 24.7321C23.0415 24.7321 24.0131 25.4268 24.5683 26.3994V26.2605C24.5683 24.4542 23.0415 23.0648 21.3758 23.0648Z" fill="url(#paint6_radial_1_444)"/>
<path d="M27.3443 35.5698C27.6219 35.2919 27.8995 35.014 28.3159 35.014C28.5935 35.014 28.7323 35.1529 29.0099 35.1529C29.1487 35.014 29.1487 34.7361 29.1487 34.4582C29.1487 33.7635 28.5935 33.2077 27.8995 33.2077C27.2055 33.2077 26.7891 33.9024 26.7891 34.4582C26.7891 35.014 26.9279 35.2919 27.3443 35.5698Z" fill="url(#paint7_radial_1_444)"/>
<path d="M23.5967 14.4502C23.5967 14.8671 23.8743 15.2839 24.1519 15.4228C24.4295 15.145 24.7071 14.8671 25.1235 14.8671C25.4011 14.8671 25.5399 15.006 25.8175 15.006C25.9563 14.8671 25.9563 14.5892 25.9563 14.3113C25.9563 13.6166 25.4011 13.0608 24.7071 13.0608C24.0131 13.0608 23.5967 13.8945 23.5967 14.4502Z" fill="url(#paint8_radial_1_444)"/>
<path d="M17.9058 6.66933C19.5714 5.9746 21.3759 5.55777 23.1803 5.27988C23.5967 5.55777 23.8744 5.9746 24.152 6.39144V6.25249C24.152 5.14093 23.5967 4.16832 22.9027 3.4736C21.0983 3.75149 19.2938 4.16832 17.6282 4.86305C17.4894 5.27988 17.3506 5.69671 17.3506 6.25249C17.3506 6.80827 17.4894 7.36405 17.767 7.78088C17.6282 7.36405 17.767 6.94721 17.9058 6.66933Z" fill="url(#paint9_radial_1_444)"/>
<path d="M18.1833 17.0902C18.1833 17.507 18.461 17.9238 18.7386 18.2017C19.0162 17.7849 19.4326 17.507 19.849 17.507C20.1266 17.507 20.4042 17.6459 20.6818 17.7849C20.8206 17.6459 20.8206 17.3681 20.8206 17.0902C20.8206 16.3954 20.2654 15.8397 19.5714 15.8397C18.7386 15.7007 18.1833 16.2565 18.1833 17.0902Z" fill="url(#paint10_radial_1_444)"/>
<path d="M31.2309 5.69672C32.6189 5.97461 34.007 6.53039 35.2562 7.08616C35.5338 6.66933 35.6726 6.2525 35.6726 5.69672C34.1458 4.86305 32.6189 4.30728 30.8145 3.89044C30.3981 4.30728 30.2593 5.00199 30.2593 5.55777C30.2593 6.11355 30.3981 6.53038 30.6757 6.94722C30.6757 6.66933 30.9533 6.11355 31.2309 5.69672Z" fill="url(#paint11_radial_1_444)"/>
<path d="M8.6059 13.4776C9.57753 12.2271 10.688 11.1156 11.7984 10.143C12.3536 10.4208 12.77 10.8377 13.0476 11.3934C13.0476 11.2545 13.0476 11.2545 13.0476 11.1156C13.0476 10.004 12.3536 8.89245 11.382 8.47562C9.99394 9.58717 8.74471 10.9766 7.63428 12.505C7.91188 12.9218 8.18949 13.3387 8.6059 13.4776Z" fill="url(#paint12_radial_1_444)"/>
<path d="M40.9473 27.372C41.2249 27.372 41.5025 27.511 41.7801 27.6499C41.9189 27.511 41.9189 27.2331 41.9189 26.9552C41.9189 26.2605 41.3637 25.7047 40.6696 25.7047C39.9756 25.7047 39.4204 26.2605 39.4204 26.9552C39.4204 27.3721 39.698 27.7889 39.9756 28.0668C39.9756 27.6499 40.392 27.372 40.9473 27.372Z" fill="url(#paint13_radial_1_444)"/>
<path d="M28.7323 28.6225C29.1156 28.6225 29.4264 28.3115 29.4264 27.9278C29.4264 27.5441 29.1156 27.2331 28.7323 27.2331C28.3491 27.2331 28.0383 27.5441 28.0383 27.9278C28.0383 28.3115 28.3491 28.6225 28.7323 28.6225Z" fill="url(#paint14_radial_1_444)"/>
<path d="M40.9472 10.8377C41.9188 11.8103 42.8904 12.7829 43.7232 13.8944C43.862 13.7555 44.0009 13.4776 44.1397 13.3387C43.168 11.8103 41.9188 10.4208 40.6696 9.17032C39.5591 9.58715 38.7263 10.6987 38.7263 11.9492C38.7263 12.505 38.8651 12.9218 39.1427 13.3387C39.1427 12.2271 39.9755 11.2545 40.9472 10.8377Z" fill="url(#paint15_radial_1_444)"/>
<path d="M33.3129 15.9786C34.8398 15.9786 36.089 16.8123 36.783 18.2017C36.783 16.1176 35.1174 14.3113 32.8965 14.3113C30.6757 14.3113 29.01 15.9786 29.01 18.2017C29.01 18.7575 29.1488 19.3133 29.4264 19.8691C29.5652 17.6459 31.2309 15.9786 33.3129 15.9786Z" fill="url(#paint16_radial_1_444)"/>
<path d="M33.8681 27.6499C33.0353 27.6499 32.3413 28.3447 32.3413 29.1783C32.3413 29.5952 32.4801 30.012 32.7577 30.2899C33.0353 29.7341 33.5905 29.3173 34.2846 29.3173C34.701 29.3173 35.1174 29.4562 35.395 29.7341C35.395 29.5952 35.5338 29.3173 35.5338 29.1783C35.5338 28.3447 34.8398 27.6499 33.8681 27.6499Z" fill="url(#paint17_radial_1_444)"/>
<path d="M11.382 19.4522C11.7984 19.4522 12.3536 19.5912 12.6312 20.008C12.6312 19.869 12.77 19.7301 12.77 19.4522C12.77 18.4796 12.076 17.7849 11.1044 17.7849C10.1327 17.7849 9.43872 18.4796 9.43872 19.4522C9.43872 19.869 9.57752 20.2859 9.85513 20.5638C9.99393 20.008 10.688 19.4522 11.382 19.4522Z" fill="url(#paint18_radial_1_444)"/>
<path d="M5.13581 25.01C5.59576 25.01 5.96863 24.6368 5.96863 24.1763C5.96863 23.7159 5.59576 23.3427 5.13581 23.3427C4.67585 23.3427 4.30298 23.7159 4.30298 24.1763C4.30298 24.6368 4.67585 25.01 5.13581 25.01Z" fill="url(#paint19_radial_1_444)"/>
<path d="M30.1205 40.9886C31.5086 40.9886 32.7578 41.8222 33.313 42.9338C33.313 42.9338 33.313 42.9338 33.313 42.7949C33.313 40.8496 31.7862 39.1823 29.7041 39.1823C27.7609 39.1823 26.0952 40.7107 26.0952 42.7949C26.0952 43.3506 26.234 43.9064 26.5116 44.3232C26.6504 42.517 28.1773 40.9886 30.1205 40.9886Z" fill="url(#paint20_radial_1_444)"/>
<path d="M41.0859 36.2645C41.4692 36.2645 41.7799 35.9535 41.7799 35.5698C41.7799 35.1861 41.4692 34.8751 41.0859 34.8751C40.7026 34.8751 40.3918 35.1861 40.3918 35.5698C40.3918 35.9535 40.7026 36.2645 41.0859 36.2645Z" fill="url(#paint21_radial_1_444)"/>
<path d="M34.4233 37.7929C34.8066 37.7929 35.1173 37.4819 35.1173 37.0982C35.1173 36.7145 34.8066 36.4034 34.4233 36.4034C34.04 36.4034 33.7292 36.7145 33.7292 37.0982C33.7292 37.4819 34.04 37.7929 34.4233 37.7929Z" fill="url(#paint22_radial_1_444)"/>
<path d="M46.7769 20.5638C46.9157 20.5638 47.0545 20.5638 47.3321 20.7027C47.4709 20.9806 47.4709 21.3974 47.6097 21.6753C47.4709 20.7027 47.1933 19.8691 46.9157 19.0354C46.7769 19.0354 46.6381 18.8965 46.3605 18.8965C45.3888 18.8965 44.6948 19.5912 44.6948 20.5638C44.6948 20.9806 44.8336 21.3974 45.1112 21.6753C45.3888 21.1196 45.9441 20.5638 46.7769 20.5638Z" fill="url(#paint23_radial_1_444)"/>
<path d="M47.332 30.4288C47.4708 29.8731 47.6096 29.3173 47.6096 28.7615C47.4708 28.7615 47.4708 28.7615 47.332 28.7615C46.7768 28.7615 46.3604 29.1783 46.3604 29.7341C46.3604 30.1509 46.638 30.5678 47.0544 30.7067C47.0544 30.5678 47.1932 30.4288 47.332 30.4288Z" fill="url(#paint24_radial_1_444)"/>
<path d="M38.3098 42.517C37.1994 42.517 36.2278 43.4896 36.2278 44.6011C36.2278 44.879 36.2278 45.018 36.3666 45.1569C37.477 44.4622 38.5874 43.7675 39.5591 42.9338C39.2815 42.6559 38.865 42.517 38.3098 42.517Z" fill="url(#paint25_radial_1_444)"/>
<path d="M11.5207 24.871C12.6312 24.871 13.464 25.4268 14.0192 26.2605C14.0192 26.1215 14.0192 26.1215 14.0192 25.9826C14.0192 24.3153 12.77 23.0648 11.1043 23.0648C9.43869 23.0648 8.18945 24.3153 8.18945 25.9826C8.18945 26.5384 8.32826 26.9552 8.60587 27.372C8.74467 26.1215 9.9939 24.871 11.5207 24.871Z" fill="url(#paint26_radial_1_444)"/>
<path d="M5.96862 33.0688C6.66264 33.0688 7.35666 33.4856 7.63427 33.9024C7.63427 33.7635 7.63427 33.6245 7.63427 33.4856C7.63427 32.2351 6.66264 31.4014 5.55221 31.4014C5.1358 31.4014 4.58059 31.5404 4.30298 31.8183C4.44178 32.374 4.58059 32.9298 4.8582 33.3466C5.1358 33.2077 5.55221 33.0688 5.96862 33.0688Z" fill="url(#paint27_radial_1_444)"/>
<path d="M15.1296 34.7361C16.5176 34.7361 17.7668 35.5698 18.322 36.6813C18.322 36.6813 18.322 36.6813 18.322 36.5424C18.322 34.5971 16.7952 32.9298 14.7131 32.9298C12.7699 32.9298 11.1042 34.4582 11.1042 36.5424C11.1042 37.0982 11.2431 37.6539 11.5207 38.0708C11.6595 36.4034 13.1863 34.7361 15.1296 34.7361Z" fill="url(#paint28_radial_1_444)"/>
<path d="M23.8742 43.7675C24.013 43.7675 24.1518 43.7675 24.2906 43.7675C24.4294 43.6285 24.5683 43.3507 24.5683 43.0728C24.5683 42.517 24.1518 42.1002 23.5966 42.1002C23.0414 42.1002 22.625 42.517 22.625 43.0728C22.625 43.4896 22.9026 43.9064 23.319 44.0454C23.319 43.9064 23.5966 43.7675 23.8742 43.7675Z" fill="url(#paint29_radial_1_444)"/>
<path d="M15.9625 44.4622C16.7953 44.4622 17.4893 44.8791 17.9057 45.4348C17.9057 45.2959 17.9057 45.1569 17.9057 45.018C17.9057 43.7675 16.7953 42.6559 15.5461 42.6559C14.5744 42.6559 13.7416 43.2117 13.3252 44.0454C13.7416 44.3233 14.0192 44.4622 14.4356 44.7401C14.9908 44.7401 15.5461 44.4622 15.9625 44.4622Z" fill="url(#paint30_radial_1_444)"/>
<path d="M21.5146 39.5991C21.7922 39.1823 22.2086 38.9044 22.625 38.9044C22.9026 38.9044 23.1802 39.0434 23.4578 39.1823C23.5967 39.0434 23.5967 38.7655 23.5967 38.4876C23.5967 37.7929 23.0414 37.2371 22.3474 37.2371C21.6534 37.2371 21.0982 37.7929 21.0982 38.4876C20.9594 38.9044 21.0982 39.3213 21.5146 39.5991Z" fill="url(#paint31_radial_1_444)"/>
<path opacity="0.5" d="M18.4608 31.4014C24.2102 31.4014 28.8711 26.7359 28.8711 20.9806C28.8711 15.2253 24.2102 10.5598 18.4608 10.5598C12.7114 10.5598 8.05054 15.2253 8.05054 20.9806C8.05054 26.7359 12.7114 31.4014 18.4608 31.4014Z" fill="url(#paint32_radial_1_444)"/>
<path opacity="0.5" d="M31.9248 16.8123C33.6113 16.8123 34.9784 15.4437 34.9784 13.7555C34.9784 12.0673 33.6113 10.6987 31.9248 10.6987C30.2383 10.6987 28.8711 12.0673 28.8711 13.7555C28.8711 15.4437 30.2383 16.8123 31.9248 16.8123Z" fill="url(#paint33_radial_1_444)"/>
<defs>
<radialGradient id="paint0_radial_1_444" cx="0" cy="0" r="1" gradientUnits="userSpaceOnUse" gradientTransform="translate(24.58 26.2373) scale(31.8624 31.8947)">
<stop offset="0.0037037" stop-color="#61E327"/>
<stop offset="0.9148" stop-color="#FFE245" stop-opacity="0"/>
</radialGradient>
<radialGradient id="paint1_radial_1_444" cx="0" cy="0" r="1" gradientUnits="userSpaceOnUse" gradientTransform="translate(20.5461 8.30651) scale(56.748 56.8056)">
<stop offset="0.0814815" stop-color="#FFE245"/>
<stop offset="0.9963" stop-color="#61E327"/>
</radialGradient>
<radialGradient id="paint2_radial_1_444" cx="0" cy="0" r="1" gradientUnits="userSpaceOnUse" gradientTransform="translate(43.4411 34.0697) scale(36.2279 36.2646)">
<stop offset="0.0814815" stop-color="#FFE245"/>
<stop offset="0.9963" stop-color="#E38427"/>
</radialGradient>
<radialGradient id="paint3_radial_1_444" cx="0" cy="0" r="1" gradientUnits="userSpaceOnUse" gradientTransform="translate(20.546 17.4616) scale(48.2537 48.3026)">
<stop offset="0.0814815" stop-color="#FFE245"/>
<stop offset="0.9963" stop-color="#61E327"/>
</radialGradient>
<radialGradient id="paint4_radial_1_444" cx="0" cy="0" r="1" gradientUnits="userSpaceOnUse" gradientTransform="translate(20.7443 15.3918) scale(49.9461 49.9968)">
<stop offset="0.0814815" stop-color="#FFE245"/>
<stop offset="0.9963" stop-color="#61E327"/>
</radialGradient>
<radialGradient id="paint5_radial_1_444" cx="0" cy="0" r="1" gradientUnits="userSpaceOnUse" gradientTransform="translate(21.0076 8.30512) scale(54.8457 54.9014)">
<stop offset="0.0814815" stop-color="#FFE245"/>
<stop offset="0.9963" stop-color="#61E327"/>
</radialGradient>
<radialGradient id="paint6_radial_1_444" cx="0" cy="0" r="1" gradientUnits="userSpaceOnUse" gradientTransform="translate(20.5991 23.539) scale(6.741 6.74783)">
<stop offset="0.0814815" stop-color="#FFE245"/>
<stop offset="0.9963" stop-color="#61E327"/>
</radialGradient>
<radialGradient id="paint7_radial_1_444" cx="0" cy="0" r="1" gradientUnits="userSpaceOnUse" gradientTransform="translate(27.677 33.5503) scale(2.93778 2.94076)">
<stop offset="0.0814815" stop-color="#FFE245"/>
<stop offset="0.9963" stop-color="#61E327"/>
</radialGradient>
<radialGradient id="paint8_radial_1_444" cx="0" cy="0" r="1" gradientUnits="userSpaceOnUse" gradientTransform="translate(24.5025 13.5475) scale(2.93793 2.94089)">
<stop offset="0.0814815" stop-color="#FFE245"/>
<stop offset="0.9963" stop-color="#61E327"/>
</radialGradient>
<radialGradient id="paint9_radial_1_444" cx="0" cy="0" r="1" gradientUnits="userSpaceOnUse" gradientTransform="translate(19.8814 4.04994) scale(6.73211 6.73894)">
<stop offset="0.0814815" stop-color="#FFE245"/>
<stop offset="0.9963" stop-color="#61E327"/>
</radialGradient>
<radialGradient id="paint10_radial_1_444" cx="0" cy="0" r="1" gradientUnits="userSpaceOnUse" gradientTransform="translate(19.1586 15.9914) scale(3.12238 3.12555)">
<stop offset="0.0814815" stop-color="#FFE245"/>
<stop offset="0.9963" stop-color="#61E327"/>
</radialGradient>
<radialGradient id="paint11_radial_1_444" cx="0" cy="0" r="1" gradientUnits="userSpaceOnUse" gradientTransform="translate(32.3763 4.36924) scale(5.10617 5.11135)">
<stop offset="0.0814815" stop-color="#FFE245"/>
<stop offset="0.9963" stop-color="#61E327"/>
</radialGradient>
<radialGradient id="paint12_radial_1_444" cx="0" cy="0" r="1" gradientUnits="userSpaceOnUse" gradientTransform="translate(9.76797 9.07766) scale(6.57124 6.5779)">
<stop offset="0.0814815" stop-color="#FFE245"/>
<stop offset="0.9963" stop-color="#61E327"/>
</radialGradient>
<radialGradient id="paint13_radial_1_444" cx="0" cy="0" r="1" gradientUnits="userSpaceOnUse" gradientTransform="translate(40.2618 25.8992) scale(3.12254 3.1257)">
<stop offset="0.0814815" stop-color="#FFE245"/>
<stop offset="0.9963" stop-color="#61E327"/>
</radialGradient>
<radialGradient id="paint14_radial_1_444" cx="0" cy="0" r="1" gradientUnits="userSpaceOnUse" gradientTransform="translate(28.6244 27.299) scale(1.90716 1.90909)">
<stop offset="0.0814815" stop-color="#FFE245"/>
<stop offset="0.9963" stop-color="#61E327"/>
</radialGradient>
<radialGradient id="paint15_radial_1_444" cx="0" cy="0" r="1" gradientUnits="userSpaceOnUse" gradientTransform="translate(40.7867 9.70039) scale(6.30043 6.30682)">
<stop offset="0.0814815" stop-color="#FFE245"/>
<stop offset="0.9963" stop-color="#61E327"/>
</radialGradient>
<radialGradient id="paint16_radial_1_444" cx="0" cy="0" r="1" gradientUnits="userSpaceOnUse" gradientTransform="translate(32.1216 14.8398) scale(7.99411 8.00222)">
<stop offset="0.0814815" stop-color="#FFE245"/>
<stop offset="0.9963" stop-color="#61E327"/>
</radialGradient>
<radialGradient id="paint17_radial_1_444" cx="0" cy="0" r="1" gradientUnits="userSpaceOnUse" gradientTransform="translate(33.5679 27.9952) scale(3.66942 3.67314)">
<stop offset="0.0814815" stop-color="#FFE245"/>
<stop offset="0.9963" stop-color="#61E327"/>
</radialGradient>
<radialGradient id="paint18_radial_1_444" cx="0" cy="0" r="1" gradientUnits="userSpaceOnUse" gradientTransform="translate(10.6694 18.1003) scale(3.85028 3.85418)">
<stop offset="0.0814815" stop-color="#FFE245"/>
<stop offset="0.9963" stop-color="#61E327"/>
</radialGradient>
<radialGradient id="paint19_radial_1_444" cx="0" cy="0" r="1" gradientUnits="userSpaceOnUse" gradientTransform="translate(4.97882 23.5808) scale(2.14563 2.14778)">
<stop offset="0.0814815" stop-color="#FFE245"/>
<stop offset="0.9963" stop-color="#61E327"/>
</radialGradient>
<radialGradient id="paint20_radial_1_444" cx="0" cy="0" r="1" gradientUnits="userSpaceOnUse" gradientTransform="translate(28.9175 39.8527) scale(7.4568 7.46436)">
<stop offset="0.0814815" stop-color="#FFE245"/>
<stop offset="0.9963" stop-color="#61E327"/>
</radialGradient>
<radialGradient id="paint21_radial_1_444" cx="0" cy="0" r="1" gradientUnits="userSpaceOnUse" gradientTransform="translate(40.95 34.9636) scale(1.9073 1.90923)">
<stop offset="0.0814815" stop-color="#FFE245"/>
<stop offset="0.9963" stop-color="#61E327"/>
</radialGradient>
<radialGradient id="paint22_radial_1_444" cx="0" cy="0" r="1" gradientUnits="userSpaceOnUse" gradientTransform="translate(34.3415 36.6253) scale(1.66884 1.67053)">
<stop offset="0.0814815" stop-color="#FFE245"/>
<stop offset="0.9963" stop-color="#61E327"/>
</radialGradient>
<radialGradient id="paint23_radial_1_444" cx="0" cy="0" r="1" gradientUnits="userSpaceOnUse" gradientTransform="translate(45.7578 19.2219) scale(3.61555 3.61922)">
<stop offset="0.0814815" stop-color="#FFE245"/>
<stop offset="0.9963" stop-color="#61E327"/>
</radialGradient>
<radialGradient id="paint24_radial_1_444" cx="0" cy="0" r="1" gradientUnits="userSpaceOnUse" gradientTransform="translate(46.8496 28.8485) scale(2.28458 2.28689)">
<stop offset="0.0814815" stop-color="#FFE245"/>
<stop offset="0.9963" stop-color="#61E327"/>
</radialGradient>
<radialGradient id="paint25_radial_1_444" cx="0" cy="0" r="1" gradientUnits="userSpaceOnUse" gradientTransform="translate(37.5561 42.7569) scale(3.70077 3.70454)">
<stop offset="0.0814815" stop-color="#FFE245"/>
<stop offset="0.9963" stop-color="#61E327"/>
</radialGradient>
<radialGradient id="paint26_radial_1_444" cx="0" cy="0" r="1" gradientUnits="userSpaceOnUse" gradientTransform="translate(10.485 23.6871) scale(6.19384 6.20011)">
<stop offset="0.0814815" stop-color="#FFE245"/>
<stop offset="0.9963" stop-color="#61E327"/>
</radialGradient>
<radialGradient id="paint27_radial_1_444" cx="0" cy="0" r="1" gradientUnits="userSpaceOnUse" gradientTransform="translate(5.59913 31.7172) scale(3.65804 3.66174)">
<stop offset="0.0814815" stop-color="#FFE245"/>
<stop offset="0.9963" stop-color="#61E327"/>
</radialGradient>
<radialGradient id="paint28_radial_1_444" cx="0" cy="0" r="1" gradientUnits="userSpaceOnUse" gradientTransform="translate(13.9772 33.6836) scale(7.45681 7.46438)">
<stop offset="0.0814815" stop-color="#FFE245"/>
<stop offset="0.9963" stop-color="#61E327"/>
</radialGradient>
<radialGradient id="paint29_radial_1_444" cx="0" cy="0" r="1" gradientUnits="userSpaceOnUse" gradientTransform="translate(23.2378 42.3089) scale(2.56426 2.56687)">
<stop offset="0.0814815" stop-color="#FFE245"/>
<stop offset="0.9963" stop-color="#61E327"/>
</radialGradient>
<radialGradient id="paint30_radial_1_444" cx="0" cy="0" r="1" gradientUnits="userSpaceOnUse" gradientTransform="translate(15.2071 43.1354) scale(4.3179 4.32228)">
<stop offset="0.0814815" stop-color="#FFE245"/>
<stop offset="0.9963" stop-color="#61E327"/>
</radialGradient>
<radialGradient id="paint31_radial_1_444" cx="0" cy="0" r="1" gradientUnits="userSpaceOnUse" gradientTransform="translate(21.9599 37.4897) scale(3.12238 3.12555)">
<stop offset="0.0814815" stop-color="#FFE245"/>
<stop offset="0.9963" stop-color="#61E327"/>
</radialGradient>
<radialGradient id="paint32_radial_1_444" cx="0" cy="0" r="1" gradientUnits="userSpaceOnUse" gradientTransform="translate(26.4033 25.3086) scale(17.7583 17.7763)">
<stop offset="0.0814815" stop-color="#FFE245"/>
<stop offset="0.9963" stop-color="#E38427"/>
</radialGradient>
<radialGradient id="paint33_radial_1_444" cx="0" cy="0" r="1" gradientUnits="userSpaceOnUse" gradientTransform="translate(34.2443 15.0881) scale(5.22303 5.22834)">
<stop offset="0.0814815" stop-color="#FFE245"/>
<stop offset="0.9963" stop-color="#E38427"/>
</radialGradient>
</defs>
</svg>
