<svg width="66" height="66" viewBox="0 0 66 66" fill="none" xmlns="http://www.w3.org/2000/svg">
<path opacity="0.5" d="M32.5338 7.62939e-06C50.5017 7.62939e-06 65.0676 14.5806 65.0676 32.5667C65.0676 50.5529 50.5017 65.1335 32.5338 65.1335C14.5659 65.1335 0 50.5529 0 32.5667C0 14.5806 14.5659 7.62939e-06 32.5338 7.62939e-06Z" fill="url(#paint0_radial_1_1650)"/>
<path d="M32.5339 6.50122C46.9149 6.50122 58.573 18.1712 58.573 32.5667C58.573 46.9623 46.9149 58.6323 32.5339 58.6323C18.1528 58.6323 6.49469 46.9623 6.49469 32.5667C6.49469 18.1712 18.1528 6.50122 32.5339 6.50122Z" fill="url(#paint1_radial_1_1650)"/>
<path d="M10.6221 29.6503C10.6221 44.0502 22.276 55.7159 36.6612 55.7159C41.3956 55.7159 45.8265 54.4399 49.6505 52.2526C45.0982 56.2627 39.0891 58.6931 32.5945 58.6931C18.2093 58.6931 6.55542 47.0273 6.55542 32.6275C6.55542 22.9668 11.7754 14.5821 19.6053 10.086C14.0819 14.7644 10.6221 21.8124 10.6221 29.6503Z" fill="#DFAB45"/>
<path d="M19.0591 14.8859C8.92263 25.0326 8.92263 41.559 19.0591 51.7058C22.3974 55.0475 26.4034 57.2956 30.7129 58.45C24.6432 58.0247 18.7556 55.5336 14.0819 50.9159C3.94544 40.7692 3.94544 24.2428 14.0819 14.0961C20.88 7.29107 30.5308 5.04299 39.2712 7.35183C31.9876 6.805 24.5825 9.2961 19.0591 14.8859Z" fill="#DE007B"/>
<path opacity="0.4" d="M53.0495 48.6071C53.4744 46.7235 53.7172 44.7185 53.7172 42.7135C53.7172 28.3136 42.0633 16.6479 27.6781 16.6479C19.3626 16.6479 11.9575 20.5972 7.16241 26.6731C9.83309 15.1289 20.1516 6.56194 32.4731 6.56194C46.8584 6.56194 58.5123 18.2276 58.5123 32.6275C58.573 38.6426 56.5093 44.1717 53.0495 48.6071Z" fill="url(#paint2_radial_1_1650)"/>
<path opacity="0.4" d="M57.966 27.5237C56.8128 25.944 55.4168 24.4858 53.8993 23.2099C42.9131 13.9745 26.4641 15.372 17.2382 26.4301C11.8968 32.8098 10.1366 41.0122 11.7147 48.6071C4.61314 39.1287 4.67384 25.701 12.6252 16.2226C21.8512 5.22525 38.3001 3.76702 49.2863 13.0024C53.8993 16.8909 56.8128 21.9947 57.966 27.5237Z" fill="url(#paint3_radial_1_1650)"/>
<g opacity="0.5">
<path opacity="0.5" d="M51.5928 44.0502C47.6475 41.6198 43.6415 39.2502 39.6962 36.8199C38.4822 36.0908 37.2683 35.3616 36.4792 34.2072C35.6902 33.0528 35.4474 31.4123 36.3578 30.3187C37.2076 29.225 38.7857 29.1035 40.1211 28.982C42.4883 28.8605 44.8554 28.7389 47.1619 28.6174C48.9828 28.4959 51.35 28.0098 51.6535 26.1871C51.8963 24.9111 50.9859 23.5137 51.6535 22.42C51.957 21.9339 52.5033 21.6909 52.9889 21.5086C53.96 21.2048 54.9312 21.0833 55.9023 21.2048C57.5412 24.6073 58.5123 28.4959 58.5123 32.5667C58.5123 37.6705 57.0556 42.3489 54.567 46.359C53.7779 45.3869 52.6854 44.7185 51.5928 44.0502Z" fill="url(#paint4_radial_1_1650)"/>
<path opacity="0.5" d="M35.2045 6.68348C34.6582 7.04803 33.9905 7.23032 33.3836 7.41259C32.1696 7.71639 30.6522 8.38472 30.6522 9.66066C30.6522 10.086 30.8343 10.5113 31.0164 10.8758C32.7766 14.0353 36.6613 15.129 39.8175 16.8302C40.6066 17.2555 41.517 17.9846 41.3956 18.896C41.3349 19.4428 40.9101 19.9289 40.4245 20.2934C38.118 22.1162 34.9617 22.663 32.0483 22.177C29.1348 21.6301 26.4641 20.1112 24.279 18.1669C23.3685 17.3163 22.458 16.4049 21.2441 15.9796C20.0909 15.5543 18.5127 15.7973 17.9665 16.9517C17.4809 17.8631 17.7844 18.9568 17.5416 19.8681C17.056 21.4479 15.1137 22.177 13.4748 21.8732C12.1395 21.5694 10.9863 20.7795 9.95441 19.9289C14.3853 11.9695 22.883 6.62272 32.6552 6.62272C33.4443 6.56196 34.294 6.56196 35.2045 6.68348Z" fill="url(#paint5_radial_1_1650)"/>
<path opacity="0.5" d="M6.67676 35.0579C7.46582 34.8148 8.19421 34.511 8.86188 34.0857C11.654 32.4452 13.7784 29.8934 16.5704 28.1921C18.8769 26.7947 21.5476 26.0656 24.2183 26.1263C25.5536 26.1263 26.9497 26.3694 28.0422 27.0985C29.1348 27.8276 29.9239 29.225 29.6204 30.501C29.1955 32.506 26.6462 33.4174 25.9785 35.3617C25.2502 37.3059 26.7069 39.4933 28.5278 40.5262C30.3487 41.5591 32.4731 41.8629 34.3547 42.6527C36.2971 43.5033 37.9966 44.84 39.2712 46.5413C40.6673 48.4248 41.4563 50.9767 40.4245 53.1032C39.4533 55.169 37.1468 56.1412 35.3866 57.6601C35.0224 57.9639 34.7189 58.2677 34.4154 58.6323C33.8085 58.6931 33.2015 58.6931 32.5945 58.6931C18.9983 58.6323 7.8907 48.2425 6.67676 35.0579Z" fill="url(#paint6_radial_1_1650)"/>
</g>
<path opacity="0.4" d="M32.473 34.511C33.6128 34.511 34.5368 35.4359 34.5368 36.5768C34.5368 37.7177 33.6128 38.6426 32.473 38.6426C31.3333 38.6426 30.4094 37.7177 30.4094 36.5768C30.4094 35.4359 31.3333 34.511 32.473 34.511Z" fill="url(#paint7_radial_1_1650)"/>
<path opacity="0.4" d="M34.901 24.0605C35.5044 24.0605 35.9936 24.5501 35.9936 25.1542C35.9936 25.7582 35.5044 26.2478 34.901 26.2478C34.2976 26.2478 33.8085 25.7582 33.8085 25.1542C33.8085 24.5501 34.2976 24.0605 34.901 24.0605Z" fill="url(#paint8_radial_1_1650)"/>
<path opacity="0.4" d="M21.0013 19.7466C21.5041 19.7466 21.9118 20.1547 21.9118 20.658C21.9118 21.1614 21.5041 21.5694 21.0013 21.5694C20.4984 21.5694 20.0908 21.1614 20.0908 20.658C20.0908 20.1547 20.4984 19.7466 21.0013 19.7466Z" fill="url(#paint9_radial_1_1650)"/>
<defs>
<radialGradient id="paint0_radial_1_1650" cx="0" cy="0" r="1" gradientUnits="userSpaceOnUse" gradientTransform="translate(32.5508 32.5824) scale(32.5567 32.5896)">
<stop offset="0.0222222" stop-color="#E43D99"/>
<stop offset="0.4741" stop-color="#E43D99"/>
<stop offset="0.837" stop-color="#E44099" stop-opacity="0.5"/>
<stop offset="1" stop-color="#E47E99" stop-opacity="0"/>
</radialGradient>
<radialGradient id="paint1_radial_1_1650" cx="0" cy="0" r="1" gradientUnits="userSpaceOnUse" gradientTransform="translate(23.4526 52.2038) scale(55.052 55.1078)">
<stop stop-color="#D1E1EE"/>
<stop offset="0.337" stop-color="#8EE1EE"/>
<stop offset="0.9444" stop-color="#732FA4"/>
</radialGradient>
<radialGradient id="paint2_radial_1_1650" cx="0" cy="0" r="1" gradientUnits="userSpaceOnUse" gradientTransform="translate(35.8037 29.6396) scale(45.6423 45.6886)">
<stop offset="0.00740741" stop-color="#B30058"/>
<stop offset="1" stop-color="#5C2D7D"/>
</radialGradient>
<radialGradient id="paint3_radial_1_1650" cx="0" cy="0" r="1" gradientUnits="userSpaceOnUse" gradientTransform="translate(32.3705 28.54) rotate(-50.0184) scale(45.6696 45.6616)">
<stop offset="0.00740741" stop-color="#B30058"/>
<stop offset="1" stop-color="#5C2D7D"/>
</radialGradient>
<radialGradient id="paint4_radial_1_1650" cx="0" cy="0" r="1" gradientUnits="userSpaceOnUse" gradientTransform="translate(17.2733 81.3794) scale(44.0148 44.0595)">
<stop stop-color="#D1E1EE"/>
<stop offset="0.337" stop-color="#8EE1EE"/>
<stop offset="0.9444" stop-color="#732FA4"/>
</radialGradient>
<radialGradient id="paint5_radial_1_1650" cx="0" cy="0" r="1" gradientUnits="userSpaceOnUse" gradientTransform="translate(17.273 81.3793) scale(44.015 44.0596)">
<stop stop-color="#D1E1EE"/>
<stop offset="0.337" stop-color="#8EE1EE"/>
<stop offset="0.9444" stop-color="#732FA4"/>
</radialGradient>
<radialGradient id="paint6_radial_1_1650" cx="0" cy="0" r="1" gradientUnits="userSpaceOnUse" gradientTransform="translate(17.273 81.3796) scale(44.0152 44.0598)">
<stop stop-color="#D1E1EE"/>
<stop offset="0.337" stop-color="#8EE1EE"/>
<stop offset="0.9444" stop-color="#732FA4"/>
</radialGradient>
<radialGradient id="paint7_radial_1_1650" cx="0" cy="0" r="1" gradientUnits="userSpaceOnUse" gradientTransform="translate(33.45 43.8827) scale(43.9957 44.0405)">
<stop offset="0.00740741" stop-color="#B30058"/>
<stop offset="1" stop-color="#5C2D7D"/>
</radialGradient>
<radialGradient id="paint8_radial_1_1650" cx="0" cy="0" r="1" gradientUnits="userSpaceOnUse" gradientTransform="translate(33.4502 43.8831) scale(43.9971 44.0416)">
<stop offset="0.00740741" stop-color="#B30058"/>
<stop offset="1" stop-color="#5C2D7D"/>
</radialGradient>
<radialGradient id="paint9_radial_1_1650" cx="0" cy="0" r="1" gradientUnits="userSpaceOnUse" gradientTransform="translate(33.4499 43.8828) scale(43.9966 44.0405)">
<stop offset="0.00740741" stop-color="#B30058"/>
<stop offset="1" stop-color="#5C2D7D"/>
</radialGradient>
</defs>
</svg>
