<svg width="190" height="177" viewBox="0 0 190 177" fill="none" xmlns="http://www.w3.org/2000/svg">
<path opacity="0.5" d="M115.998 176.949C164.812 176.949 204.383 137.338 204.383 88.4747C204.383 39.6115 164.812 0 115.998 0C67.1846 0 27.6133 39.6115 27.6133 88.4747C27.6133 137.338 67.1846 176.949 115.998 176.949Z" fill="url(#paint0_radial_1_817)"/>
<path d="M115.998 160.187C155.564 160.187 187.638 128.08 187.638 88.4747C187.638 48.8691 155.564 16.7625 115.998 16.7625C76.433 16.7625 44.3589 48.8691 44.3589 88.4747C44.3589 128.08 76.433 160.187 115.998 160.187Z" fill="url(#paint1_radial_1_817)"/>
<path opacity="0.25" d="M51.6779 95.8013C51.6779 56.1709 83.7272 24.0891 123.317 24.0891C141.394 24.0891 157.806 30.7497 170.449 41.8506C157.363 26.8643 138.067 17.3175 116.553 17.3175C76.9625 17.3175 44.9132 49.3993 44.9132 89.0297C44.9132 110.566 54.4503 129.881 69.4214 142.98C58.4426 130.325 51.6779 113.896 51.6779 95.8013Z" fill="url(#paint2_radial_1_817)"/>
<path opacity="0.25" d="M61.8806 123.998C43.9153 88.6967 57.8883 45.514 93.0427 27.5304C109.123 19.3157 126.866 17.7615 143.057 21.8689C124.538 14.4313 103.023 14.7643 83.9491 24.6441C48.6838 42.6277 34.7108 85.9215 52.787 121.112C62.546 140.316 79.8459 153.193 99.142 157.967C83.6164 151.639 70.087 139.983 61.8806 123.998Z" fill="url(#paint3_radial_1_817)"/>
<path opacity="0.5" d="M147.937 24.2001C160.69 35.1901 168.896 51.3975 168.896 69.603C168.896 102.573 142.17 129.215 109.344 129.215C76.408 129.215 49.7927 102.462 49.7927 69.603C49.7927 66.1617 50.1253 62.7204 50.6798 59.3901C46.6875 68.2709 44.4696 78.1508 44.4696 88.4747C44.4696 128.105 76.5188 160.187 116.109 160.187C155.699 160.187 187.749 128.105 187.749 88.4747C187.638 60.2782 171.447 35.9671 147.937 24.2001Z" fill="url(#paint4_radial_1_817)"/>
<path opacity="0.5" d="M94.4843 19.4267C111.23 18.5386 128.308 24.7552 140.839 37.8543C163.462 61.7214 162.575 99.4647 138.621 122.111C114.779 144.757 77.0735 143.869 54.4505 119.89C52.0107 117.337 49.9037 114.673 48.0184 111.898C51.2345 121.112 56.4466 129.77 63.544 137.208C90.8247 165.959 136.182 167.07 164.793 139.872C193.515 112.564 194.624 67.1609 167.455 38.5204C148.159 18.0946 119.658 11.6561 94.4843 19.4267Z" fill="url(#paint5_radial_1_817)"/>
<path d="M225.787 32.8588C221.351 23.756 206.601 22.4239 180.541 28.9735C174.663 30.4166 168.453 32.3038 161.91 34.413C163.573 35.6341 165.015 36.9662 166.457 38.4093C168.453 40.0745 170.227 41.9616 172.002 43.9598C174.996 43.0717 177.879 42.1837 180.762 41.5176C206.934 34.635 213.81 37.6322 214.808 38.2983C214.697 39.5194 212.812 46.8461 191.187 63.0535C173.776 76.1526 149.711 90.4728 123.207 103.239C96.8133 116.116 70.6415 126.218 49.5711 131.768C23.3993 138.651 16.5237 135.654 15.5256 134.988C15.6365 133.767 17.5218 126.44 39.1468 110.233C41.4756 108.456 44.0262 106.68 46.5769 104.793C45.2461 100.464 44.4698 96.1343 44.5807 91.5829C39.1467 95.2462 34.1563 98.7986 29.6096 102.351C8.42821 118.78 0.221853 131.213 4.65774 140.316C7.20837 145.645 13.3077 148.309 23.0667 148.309C30.0532 148.309 39.0359 146.977 49.9038 144.202C72.1941 138.651 100.14 127.994 128.53 114.118C157.03 100.353 182.648 84.9224 200.835 70.9352C222.016 54.3947 230.223 41.9616 225.787 32.8588Z" fill="url(#paint6_radial_1_817)"/>
<path opacity="0.5" d="M130.526 105.348C215.584 64.7187 228.115 38.6314 219.133 32.1928C210.594 26.0873 185.198 32.5259 167.455 39.1864C169.118 40.6296 170.671 42.1837 172.112 43.8488C175.107 42.9607 177.99 42.0727 180.873 41.4066C207.045 34.524 213.921 37.5213 214.919 38.1874C214.808 39.4085 212.923 46.7351 191.298 62.9425C173.887 76.0416 149.822 90.3619 123.318 103.128C96.9241 116.005 70.7524 126.107 49.6819 131.657C23.5102 138.54 16.6346 135.543 15.6365 134.877C15.7474 133.656 17.6326 126.329 39.2576 110.122C41.5864 108.345 44.1371 106.569 46.6877 104.682C45.8005 102.018 45.2461 99.2427 44.9134 96.3564C35.2653 103.239 1.77433 128.216 9.31534 136.653C18.0762 146.533 45.4678 145.978 130.526 105.348Z" fill="url(#paint7_radial_1_817)"/>
<path opacity="0.5" d="M35.0435 162.518C45.8842 162.518 54.6724 153.721 54.6724 142.869C54.6724 132.018 45.8842 123.221 35.0435 123.221C24.2028 123.221 15.4147 132.018 15.4147 142.869C15.4147 153.721 24.2028 162.518 35.0435 162.518Z" fill="url(#paint8_radial_1_817)"/>
<path d="M35.0436 158.744C43.8018 158.744 50.9018 151.637 50.9018 142.869C50.9018 134.102 43.8018 126.995 35.0436 126.995C26.2853 126.995 19.1853 134.102 19.1853 142.869C19.1853 151.637 26.2853 158.744 35.0436 158.744Z" fill="url(#paint9_radial_1_817)"/>
<path opacity="0.5" d="M20.8487 144.424C20.8487 135.654 27.9461 128.549 36.707 128.549C40.6993 128.549 44.359 129.992 47.1314 132.434C44.2481 129.104 39.923 126.995 35.1544 126.995C26.3936 126.995 19.2961 134.1 19.2961 142.869C19.2961 147.643 21.4032 151.972 24.7301 154.858C22.2904 152.194 20.8487 148.531 20.8487 144.424Z" fill="url(#paint10_radial_1_817)"/>
<path opacity="0.5" d="M23.0666 150.751C19.0743 142.98 22.1794 133.323 29.9422 129.326C33.4909 127.55 37.4832 127.106 41.0319 128.105C36.9287 126.44 32.1601 126.551 27.946 128.66C20.1832 132.656 17.0781 142.203 21.0704 150.085C23.2884 154.303 27.0589 157.19 31.3839 158.3C27.8352 156.857 24.8409 154.303 23.0666 150.751Z" fill="url(#paint11_radial_1_817)"/>
<path opacity="0.5" d="M42.141 128.66C45.0243 131.102 46.7986 134.655 46.7986 138.762C46.7986 146.089 40.9211 151.972 33.6019 151.972C26.2827 151.972 20.4051 146.089 20.4051 138.762C20.4051 137.985 20.516 137.208 20.6269 136.542C19.7397 138.54 19.2961 140.649 19.2961 142.98C19.2961 151.75 26.3935 158.855 35.1544 158.855C43.9153 158.855 51.0127 151.75 51.0127 142.98C51.0127 136.653 47.3531 131.213 42.141 128.66Z" fill="url(#paint12_radial_1_817)"/>
<path opacity="0.5" d="M30.2749 127.55C34.0454 127.328 37.8159 128.771 40.5884 131.657C45.5787 136.986 45.3569 145.312 40.1447 150.307C34.8217 155.303 26.5044 155.08 21.514 149.863C20.9596 149.308 20.516 148.753 20.0724 148.087C20.8487 150.085 21.9576 152.083 23.5102 153.748C29.6095 160.076 39.5903 160.409 46.0224 154.303C52.3435 148.198 52.6762 138.207 46.5768 131.768C42.141 127.217 35.8198 125.774 30.2749 127.55Z" fill="url(#paint13_radial_1_817)"/>
<path opacity="0.5" d="M192.517 90.3619C201.521 90.3619 208.819 83.0558 208.819 74.0434C208.819 65.031 201.521 57.725 192.517 57.725C183.514 57.725 176.216 65.031 176.216 74.0434C176.216 83.0558 183.514 90.3619 192.517 90.3619Z" fill="url(#paint14_radial_1_817)"/>
<path d="M192.517 87.2536C199.806 87.2536 205.714 81.3392 205.714 74.0434C205.714 66.7477 199.806 60.8333 192.517 60.8333C185.229 60.8333 179.321 66.7477 179.321 74.0434C179.321 81.3392 185.229 87.2536 192.517 87.2536Z" fill="url(#paint15_radial_1_817)"/>
<path opacity="0.5" d="M180.651 75.3756C180.651 68.0489 186.529 62.1654 193.848 62.1654C197.175 62.1654 200.169 63.3865 202.498 65.3847C200.058 62.6094 196.51 60.8333 192.517 60.8333C185.198 60.8333 179.321 66.7168 179.321 74.0434C179.321 78.0398 181.095 81.5921 183.868 84.0343C181.982 81.7031 180.651 78.7058 180.651 75.3756Z" fill="url(#paint16_radial_1_817)"/>
<path opacity="0.5" d="M182.537 80.593C179.21 74.0434 181.76 66.1617 188.303 62.8315C191.298 61.2773 194.514 61.0553 197.508 61.8324C194.07 60.5003 190.189 60.5003 186.64 62.3874C180.097 65.7177 177.546 73.7104 180.873 80.149C182.648 83.7013 185.864 86.0325 189.412 86.9206C186.529 85.6995 184.089 83.4793 182.537 80.593Z" fill="url(#paint17_radial_1_817)"/>
<path opacity="0.5" d="M198.395 62.1654C200.724 64.1635 202.276 67.1608 202.276 70.4911C202.276 76.5966 197.397 81.4811 191.298 81.4811C185.198 81.4811 180.319 76.5966 180.319 70.4911C180.319 69.825 180.43 69.27 180.43 68.604C179.653 70.2691 179.321 72.0452 179.321 73.9324C179.321 81.259 185.198 87.1425 192.517 87.1425C199.837 87.1425 205.714 81.259 205.714 73.9324C205.714 68.826 202.72 64.3856 198.395 62.1654Z" fill="url(#paint18_radial_1_817)"/>
<path opacity="0.5" d="M188.525 61.2773C191.63 61.1663 194.735 62.2764 197.064 64.7186C201.278 69.159 201.056 76.0416 196.621 80.26C192.185 84.4784 185.309 84.2563 181.095 79.816C180.651 79.3719 180.208 78.8168 179.875 78.3728C180.43 80.038 181.428 81.7031 182.758 83.0352C187.749 88.3637 196.177 88.5857 201.389 83.4793C206.712 78.4838 206.934 70.0471 201.833 64.8297C198.506 61.0553 193.183 59.8342 188.525 61.2773Z" fill="url(#paint19_radial_1_817)"/>
<path opacity="0.5" d="M152.151 95.3573C155.029 95.3573 157.363 93.0213 157.363 90.1398C157.363 87.2583 155.029 84.9224 152.151 84.9224C149.272 84.9224 146.939 87.2583 146.939 90.1398C146.939 93.0213 149.272 95.3573 152.151 95.3573Z" fill="url(#paint20_radial_1_817)"/>
<path d="M152.151 94.3582C154.478 94.3582 156.365 92.4696 156.365 90.1398C156.365 87.8101 154.478 85.9214 152.151 85.9214C149.823 85.9214 147.937 87.8101 147.937 90.1398C147.937 92.4696 149.823 94.3582 152.151 94.3582Z" fill="url(#paint21_radial_1_817)"/>
<path opacity="0.5" d="M148.38 90.4729C148.38 88.1416 150.266 86.2545 152.594 86.2545C153.703 86.2545 154.591 86.6985 155.367 87.2536C154.591 86.3655 153.482 85.8105 152.151 85.8105C149.822 85.8105 147.937 87.6976 147.937 90.0288C147.937 91.2499 148.491 92.471 149.378 93.2481C148.824 92.582 148.38 91.583 148.38 90.4729Z" fill="url(#paint22_radial_1_817)"/>
<path opacity="0.5" d="M149.046 92.138C147.937 90.0288 148.824 87.5866 150.931 86.4765C151.929 86.0325 152.927 85.9215 153.814 86.1435C152.705 85.6995 151.485 85.6995 150.376 86.2545C148.269 87.3646 147.493 89.8068 148.491 91.916C149.046 93.0261 150.044 93.8032 151.264 94.1362C150.266 93.8032 149.489 93.1371 149.046 92.138Z" fill="url(#paint23_radial_1_817)"/>
<path opacity="0.5" d="M154.036 86.3655C154.812 87.0316 155.256 87.9196 155.256 89.0297C155.256 90.9169 153.703 92.582 151.707 92.582C149.711 92.582 148.158 91.0279 148.158 89.0297C148.158 88.8077 148.158 88.5857 148.158 88.4747C147.937 89.0297 147.826 89.5848 147.826 90.1398C147.826 92.471 149.711 94.3582 152.04 94.3582C154.369 94.3582 156.254 92.471 156.254 90.1398C156.365 88.4747 155.478 87.0316 154.036 86.3655Z" fill="url(#paint24_radial_1_817)"/>
<path opacity="0.5" d="M150.931 86.0325C151.929 86.0325 152.927 86.3655 153.703 87.1426C155.034 88.5857 154.923 90.8059 153.593 92.138C152.151 93.4701 149.933 93.3592 148.602 92.027C148.491 91.916 148.38 91.694 148.269 91.583C148.491 92.138 148.713 92.5821 149.157 93.0261C150.709 94.6913 153.371 94.8023 155.145 93.1371C156.809 91.583 156.919 88.9187 155.256 87.1426C154.036 85.9215 152.373 85.5884 150.931 86.0325Z" fill="url(#paint25_radial_1_817)"/>
<path opacity="0.5" d="M65.2075 144.091C68.0861 144.091 70.4197 141.755 70.4197 138.873C70.4197 135.992 68.0861 133.656 65.2075 133.656C62.3289 133.656 59.9954 135.992 59.9954 138.873C59.9954 141.755 62.3289 144.091 65.2075 144.091Z" fill="url(#paint26_radial_1_817)"/>
<path d="M65.2076 143.091C67.535 143.091 69.4217 141.203 69.4217 138.873C69.4217 136.543 67.535 134.655 65.2076 134.655C62.8802 134.655 60.9935 136.543 60.9935 138.873C60.9935 141.203 62.8802 143.091 65.2076 143.091Z" fill="url(#paint27_radial_1_817)"/>
<path opacity="0.5" d="M61.4371 139.206C61.4371 136.875 63.3223 134.988 65.6511 134.988C66.7601 134.988 67.6473 135.432 68.4236 135.987C67.6473 135.099 66.5384 134.544 65.2076 134.544C62.8788 134.544 60.9935 136.431 60.9935 138.762C60.9935 139.983 61.548 141.204 62.4352 141.981C61.7698 141.315 61.4371 140.316 61.4371 139.206Z" fill="url(#paint28_radial_1_817)"/>
<path opacity="0.5" d="M61.9916 140.871C60.8826 138.762 61.7698 136.32 63.8769 135.21C64.8749 134.766 65.873 134.655 66.7601 134.877C65.6512 134.433 64.4313 134.433 63.3224 134.988C61.2153 136.098 60.439 138.54 61.4371 140.649C61.9916 141.759 62.9897 142.536 64.2095 142.869C63.2115 142.536 62.4352 141.87 61.9916 140.871Z" fill="url(#paint29_radial_1_817)"/>
<path opacity="0.5" d="M67.0928 135.099C67.8691 135.765 68.3127 136.653 68.3127 137.763C68.3127 139.65 66.7601 141.315 64.764 141.315C62.8787 141.315 61.2152 139.761 61.2152 137.763C61.2152 137.541 61.2152 137.319 61.2152 137.208C60.9935 137.763 60.8826 138.318 60.8826 138.873C60.8826 141.204 62.7678 143.091 65.0966 143.091C67.4255 143.091 69.3108 141.204 69.3108 138.873C69.4217 137.208 68.4236 135.765 67.0928 135.099Z" fill="url(#paint30_radial_1_817)"/>
<path opacity="0.5" d="M63.8768 134.766C64.8748 134.766 65.8729 135.099 66.6492 135.876C67.9799 137.319 67.8691 139.539 66.5383 140.871C65.0967 142.203 62.8787 142.092 61.548 140.76C61.4371 140.649 61.3261 140.427 61.2152 140.316C61.437 140.871 61.6589 141.315 62.1024 141.759C63.655 143.424 66.3165 143.535 68.0908 141.87C69.7543 140.316 69.8652 137.652 68.2018 135.876C67.0928 134.655 65.4293 134.322 63.8768 134.766Z" fill="url(#paint31_radial_1_817)"/>
<path opacity="0.5" d="M77.1845 130.547C80.0631 130.547 82.3967 128.211 82.3967 125.33C82.3967 122.448 80.0631 120.112 77.1845 120.112C74.3059 120.112 71.9723 122.448 71.9723 125.33C71.9723 128.211 74.3059 130.547 77.1845 130.547Z" fill="url(#paint32_radial_1_817)"/>
<path d="M77.1844 129.548C79.5118 129.548 81.3985 127.66 81.3985 125.33C81.3985 123 79.5118 121.112 77.1844 121.112C74.857 121.112 72.9703 123 72.9703 125.33C72.9703 127.66 74.857 129.548 77.1844 129.548Z" fill="url(#paint33_radial_1_817)"/>
<path opacity="0.5" d="M73.4139 125.774C73.4139 123.443 75.2992 121.556 77.628 121.556C78.737 121.556 79.6242 122 80.4005 122.555C79.6242 121.667 78.5152 121.112 77.1844 121.112C74.8556 121.112 72.9703 122.999 72.9703 125.33C72.9703 126.551 73.5248 127.772 74.412 128.549C73.8575 127.772 73.4139 126.884 73.4139 125.774Z" fill="url(#paint34_radial_1_817)"/>
<path opacity="0.5" d="M74.0794 127.439C72.9704 125.33 73.8576 122.888 75.9646 121.778C76.9627 121.334 77.9607 121.223 78.8479 121.445C77.7389 121.001 76.5191 121 75.4101 121.556C73.3031 122.666 72.5268 125.108 73.5249 127.217C74.0794 128.327 75.0774 129.104 76.2973 129.437C75.2992 129.104 74.5229 128.438 74.0794 127.439Z" fill="url(#paint35_radial_1_817)"/>
<path opacity="0.5" d="M79.0698 121.556C79.8461 122.222 80.2896 123.11 80.2896 124.22C80.2896 126.107 78.737 127.772 76.7409 127.772C74.8556 127.772 73.1922 126.218 73.1922 124.22C73.1922 123.998 73.1922 123.776 73.1922 123.665C72.9704 124.22 72.8595 124.775 72.8595 125.33C72.8595 127.661 74.7448 129.548 77.0736 129.548C79.4025 129.548 81.2877 127.661 81.2877 125.33C81.3986 123.665 80.5114 122.333 79.0698 121.556Z" fill="url(#paint36_radial_1_817)"/>
<path opacity="0.5" d="M75.9646 121.334C76.9627 121.334 77.9608 121.667 78.7371 122.444C80.0678 123.887 79.9569 126.107 78.6261 127.439C77.1845 128.771 74.9665 128.66 73.6358 127.328C73.5249 127.217 73.414 126.995 73.3031 126.884C73.5249 127.439 73.7467 127.883 74.1903 128.327C75.7428 129.992 78.4044 130.103 80.1787 128.438C81.8422 126.884 81.953 124.22 80.2896 122.444C79.0697 121.223 77.4063 120.89 75.9646 121.334Z" fill="url(#paint37_radial_1_817)"/>
<path opacity="0.5" d="M5.21218 146.311C8.09077 146.311 10.4243 143.975 10.4243 141.093C10.4243 138.212 8.09077 135.876 5.21218 135.876C2.33358 135.876 0 138.212 0 141.093C0 143.975 2.33358 146.311 5.21218 146.311Z" fill="url(#paint38_radial_1_817)"/>
<path d="M5.21215 145.312C7.53953 145.312 9.42622 143.423 9.42622 141.093C9.42622 138.763 7.53953 136.875 5.21215 136.875C2.88478 136.875 0.998047 138.763 0.998047 141.093C0.998047 143.423 2.88478 145.312 5.21215 145.312Z" fill="url(#paint39_radial_1_817)"/>
<path opacity="0.5" d="M1.44166 141.537C1.44166 139.206 3.32689 137.319 5.65571 137.319C6.76468 137.319 7.65185 137.763 8.42812 138.318C7.65185 137.43 6.54289 136.875 5.21213 136.875C2.88331 136.875 0.998047 138.762 0.998047 141.093C0.998047 142.314 1.55255 143.535 2.43972 144.312C1.77434 143.535 1.44166 142.536 1.44166 141.537Z" fill="url(#paint40_radial_1_817)"/>
<path opacity="0.5" d="M1.99611 143.202C0.887142 141.093 1.7743 138.651 3.88134 137.541C4.87941 137.097 5.87749 136.986 6.76466 137.208C5.6557 136.764 4.43582 136.764 3.32685 137.319C1.21981 138.429 0.443554 140.871 1.44163 142.98C1.99611 144.091 2.99418 144.868 4.21405 145.201C3.32687 144.757 2.5506 144.09 1.99611 143.202Z" fill="url(#paint41_radial_1_817)"/>
<path opacity="0.5" d="M7.09738 137.319C7.87365 137.985 8.31724 138.873 8.31724 139.983C8.31724 141.87 6.76472 143.535 4.76858 143.535C2.88334 143.535 1.21988 141.981 1.21988 139.983C1.21988 139.761 1.21988 139.539 1.21988 139.428C0.99809 139.983 0.887207 140.538 0.887207 141.093C0.887207 143.424 2.77243 145.312 5.10126 145.312C7.43008 145.312 9.3153 143.424 9.3153 141.093C9.4262 139.428 8.42813 137.985 7.09738 137.319Z" fill="url(#paint42_radial_1_817)"/>
<path opacity="0.5" d="M3.88135 136.986C4.87941 136.986 5.87747 137.319 6.65374 138.096C7.9845 139.539 7.87359 141.759 6.54284 143.091C5.10119 144.424 2.88327 144.313 1.55252 142.98C1.44163 142.869 1.33074 142.647 1.21985 142.536C1.44164 143.091 1.66342 143.535 2.107 143.979C3.65955 145.645 6.32108 145.756 8.09541 144.091C9.75885 142.536 9.86972 139.872 8.20628 138.096C7.09732 136.986 5.43389 136.542 3.88135 136.986Z" fill="url(#paint43_radial_1_817)"/>
<path opacity="0.25" d="M92.7101 90.6949C106.246 90.6949 117.218 79.711 117.218 66.1617C117.218 52.6125 106.246 41.6286 92.7101 41.6286C79.1745 41.6286 68.2018 52.6125 68.2018 66.1617C68.2018 79.711 79.1745 90.6949 92.7101 90.6949Z" fill="url(#paint44_radial_1_817)"/>
<path opacity="0.25" d="M134.518 88.2526C139.724 88.2526 143.945 84.0281 143.945 78.8168C143.945 73.6056 139.724 69.381 134.518 69.381C129.312 69.381 125.092 73.6056 125.092 78.8168C125.092 84.0281 129.312 88.2526 134.518 88.2526Z" fill="url(#paint45_radial_1_817)"/>
<path opacity="0.25" d="M144.499 66.9388C146.949 66.9388 148.935 64.9508 148.935 62.4984C148.935 60.0461 146.949 58.058 144.499 58.058C142.049 58.058 140.063 60.0461 140.063 62.4984C140.063 64.9508 142.049 66.9388 144.499 66.9388Z" fill="url(#paint46_radial_1_817)"/>
<path opacity="0.25" d="M125.757 139.983C130.473 139.983 134.297 136.156 134.297 131.435C134.297 126.715 130.473 122.888 125.757 122.888C121.041 122.888 117.218 126.715 117.218 131.435C117.218 136.156 121.041 139.983 125.757 139.983Z" fill="url(#paint47_radial_1_817)"/>
<path opacity="0.25" d="M154.369 134.655C158.289 134.655 161.466 131.474 161.466 127.55C161.466 123.626 158.289 120.445 154.369 120.445C150.449 120.445 147.271 123.626 147.271 127.55C147.271 131.474 150.449 134.655 154.369 134.655Z" fill="url(#paint48_radial_1_817)"/>
<defs>
<radialGradient id="paint0_radial_1_817" cx="0" cy="0" r="1" gradientUnits="userSpaceOnUse" gradientTransform="translate(117.515 90.5338) scale(88.5255 88.6152)">
<stop offset="0.062963" stop-color="#5E8DEC"/>
<stop offset="0.3261" stop-color="#6090EC" stop-opacity="0.7192"/>
<stop offset="0.5154" stop-color="#6599EC" stop-opacity="0.5171"/>
<stop offset="0.6817" stop-color="#6EA9ED" stop-opacity="0.3397"/>
<stop offset="0.8345" stop-color="#7BBFED" stop-opacity="0.1766"/>
<stop offset="0.9771" stop-color="#8BDCEE" stop-opacity="0.0244839"/>
<stop offset="1" stop-color="#8EE1EE" stop-opacity="0"/>
</radialGradient>
<radialGradient id="paint1_radial_1_817" cx="0" cy="0" r="1" gradientUnits="userSpaceOnUse" gradientTransform="translate(91.8257 53.196) scale(143.083 143.228)">
<stop offset="0.0814815" stop-color="#FFE245"/>
<stop offset="0.5259" stop-color="#DE007B"/>
<stop offset="1" stop-color="#E38427"/>
</radialGradient>
<radialGradient id="paint2_radial_1_817" cx="0" cy="0" r="1" gradientUnits="userSpaceOnUse" gradientTransform="translate(101.098 39.1707) scale(108.357 108.467)">
<stop offset="0.00370374" stop-color="#8EE1EE"/>
<stop offset="0.937" stop-color="#5E8DEC"/>
</radialGradient>
<radialGradient id="paint3_radial_1_817" cx="0" cy="0" r="1" gradientUnits="userSpaceOnUse" gradientTransform="translate(80.1428 51.0403) rotate(-27.0959) scale(108.381 108.445)">
<stop offset="0.00370374" stop-color="#8EE1EE"/>
<stop offset="0.937" stop-color="#5E8DEC"/>
</radialGradient>
<radialGradient id="paint4_radial_1_817" cx="0" cy="0" r="1" gradientUnits="userSpaceOnUse" gradientTransform="translate(158.749 89.4211) scale(273.732 274.01)">
<stop offset="0.00370374" stop-color="#8EE1EE"/>
<stop offset="0.937" stop-color="#5E8DEC"/>
</radialGradient>
<radialGradient id="paint5_radial_1_817" cx="0" cy="0" r="1" gradientUnits="userSpaceOnUse" gradientTransform="translate(147.177 59.1665) rotate(-43.5542) scale(273.864 273.878)">
<stop offset="0.00370374" stop-color="#8EE1EE"/>
<stop offset="0.937" stop-color="#5E8DEC"/>
</radialGradient>
<radialGradient id="paint6_radial_1_817" cx="0" cy="0" r="1" gradientUnits="userSpaceOnUse" gradientTransform="translate(115.218 86.5252) scale(90.2172 90.3087)">
<stop offset="0.0185185" stop-color="#732FA4"/>
<stop offset="0.3471" stop-color="#702DA1"/>
<stop offset="0.6164" stop-color="#682797"/>
<stop offset="0.8639" stop-color="#591D86"/>
<stop offset="0.9963" stop-color="#4F1579"/>
<stop offset="1" stop-color="#51167B"/>
</radialGradient>
<radialGradient id="paint7_radial_1_817" cx="0" cy="0" r="1" gradientUnits="userSpaceOnUse" gradientTransform="translate(114.866 85.879) scale(85.1918 85.2783)">
<stop offset="0.0185185" stop-color="#732FA4"/>
<stop offset="0.3471" stop-color="#702DA1"/>
<stop offset="0.6164" stop-color="#682797"/>
<stop offset="0.8639" stop-color="#591D86"/>
<stop offset="0.9963" stop-color="#4F1579"/>
<stop offset="1" stop-color="#51167B"/>
</radialGradient>
<radialGradient id="paint8_radial_1_817" cx="0" cy="0" r="1" gradientUnits="userSpaceOnUse" gradientTransform="translate(35.4016 143.313) scale(19.6402 19.66)">
<stop offset="0.062963" stop-color="#ECB900"/>
<stop offset="0.4078" stop-color="#ECB803" stop-opacity="0.632"/>
<stop offset="0.656" stop-color="#EDB30C" stop-opacity="0.3671"/>
<stop offset="0.8731" stop-color="#EDAC1C" stop-opacity="0.1354"/>
<stop offset="1" stop-color="#EEA629" stop-opacity="0"/>
</radialGradient>
<radialGradient id="paint9_radial_1_817" cx="0" cy="0" r="1" gradientUnits="userSpaceOnUse" gradientTransform="translate(29.7022 135.029) scale(31.744 31.7763)">
<stop stop-color="#EECA6C"/>
<stop offset="0.337" stop-color="#EEA629"/>
<stop offset="0.937" stop-color="#ECB900"/>
</radialGradient>
<radialGradient id="paint10_radial_1_817" cx="0" cy="0" r="1" gradientUnits="userSpaceOnUse" gradientTransform="translate(31.7595 131.917) scale(24.04 24.0643)">
<stop offset="0.00370374" stop-color="#EEA629"/>
<stop offset="0.937" stop-color="#ECB900"/>
</radialGradient>
<radialGradient id="paint11_radial_1_817" cx="0" cy="0" r="1" gradientUnits="userSpaceOnUse" gradientTransform="translate(27.1101 134.551) rotate(-27.0959) scale(24.0451 24.0593)">
<stop offset="0.00370374" stop-color="#EEA629"/>
<stop offset="0.937" stop-color="#ECB900"/>
</radialGradient>
<radialGradient id="paint12_radial_1_817" cx="0" cy="0" r="1" gradientUnits="userSpaceOnUse" gradientTransform="translate(44.5497 143.066) scale(60.7298 60.7914)">
<stop offset="0.00370374" stop-color="#EEA629"/>
<stop offset="0.937" stop-color="#ECB900"/>
</radialGradient>
<radialGradient id="paint13_radial_1_817" cx="0" cy="0" r="1" gradientUnits="userSpaceOnUse" gradientTransform="translate(41.9824 136.354) rotate(-43.5542) scale(60.7589 60.762)">
<stop offset="0.00370374" stop-color="#EEA629"/>
<stop offset="0.937" stop-color="#ECB900"/>
</radialGradient>
<radialGradient id="paint14_radial_1_817" cx="0" cy="0" r="1" gradientUnits="userSpaceOnUse" gradientTransform="translate(192.819 74.4085) scale(16.307 16.3235)">
<stop offset="0.062963" stop-color="#5E8DEC"/>
<stop offset="0.3261" stop-color="#6090EC" stop-opacity="0.7192"/>
<stop offset="0.5154" stop-color="#6599EC" stop-opacity="0.5171"/>
<stop offset="0.6817" stop-color="#6EA9ED" stop-opacity="0.3397"/>
<stop offset="0.8345" stop-color="#7BBFED" stop-opacity="0.1766"/>
<stop offset="0.9771" stop-color="#8BDCEE" stop-opacity="0.0244839"/>
<stop offset="1" stop-color="#8EE1EE" stop-opacity="0"/>
</radialGradient>
<radialGradient id="paint15_radial_1_817" cx="0" cy="0" r="1" gradientUnits="userSpaceOnUse" gradientTransform="translate(188.087 67.5307) scale(26.3569 26.3835)">
<stop stop-color="#D1E1EE"/>
<stop offset="0.337" stop-color="#8EE1EE"/>
<stop offset="0.937" stop-color="#5E8DEC"/>
</radialGradient>
<radialGradient id="paint16_radial_1_817" cx="0" cy="0" r="1" gradientUnits="userSpaceOnUse" gradientTransform="translate(189.795 64.9472) scale(19.9601 19.9803)">
<stop offset="0.00370374" stop-color="#8EE1EE"/>
<stop offset="0.937" stop-color="#5E8DEC"/>
</radialGradient>
<radialGradient id="paint17_radial_1_817" cx="0" cy="0" r="1" gradientUnits="userSpaceOnUse" gradientTransform="translate(185.935 67.1337) rotate(-27.096) scale(19.9643 19.9762)">
<stop offset="0.00370374" stop-color="#8EE1EE"/>
<stop offset="0.937" stop-color="#5E8DEC"/>
</radialGradient>
<radialGradient id="paint18_radial_1_817" cx="0" cy="0" r="1" gradientUnits="userSpaceOnUse" gradientTransform="translate(200.415 74.2036) scale(50.4233 50.4743)">
<stop offset="0.00370374" stop-color="#8EE1EE"/>
<stop offset="0.937" stop-color="#5E8DEC"/>
</radialGradient>
<radialGradient id="paint19_radial_1_817" cx="0" cy="0" r="1" gradientUnits="userSpaceOnUse" gradientTransform="translate(198.283 68.6305) rotate(-43.5542) scale(50.4474 50.45)">
<stop offset="0.00370374" stop-color="#8EE1EE"/>
<stop offset="0.937" stop-color="#5E8DEC"/>
</radialGradient>
<radialGradient id="paint20_radial_1_817" cx="0" cy="0" r="1" gradientUnits="userSpaceOnUse" gradientTransform="translate(152.276 90.2188) scale(5.19628 5.20159)">
<stop offset="0.062963" stop-color="#5E8DEC"/>
<stop offset="0.3261" stop-color="#6090EC" stop-opacity="0.7192"/>
<stop offset="0.5154" stop-color="#6599EC" stop-opacity="0.5171"/>
<stop offset="0.6817" stop-color="#6EA9ED" stop-opacity="0.3397"/>
<stop offset="0.8345" stop-color="#7BBFED" stop-opacity="0.1766"/>
<stop offset="0.9771" stop-color="#8BDCEE" stop-opacity="0.0244839"/>
<stop offset="1" stop-color="#8EE1EE" stop-opacity="0"/>
</radialGradient>
<radialGradient id="paint21_radial_1_817" cx="0" cy="0" r="1" gradientUnits="userSpaceOnUse" gradientTransform="translate(150.768 88.0271) scale(8.39884 8.4073)">
<stop stop-color="#D1E1EE"/>
<stop offset="0.337" stop-color="#8EE1EE"/>
<stop offset="0.937" stop-color="#5E8DEC"/>
</radialGradient>
<radialGradient id="paint22_radial_1_817" cx="0" cy="0" r="1" gradientUnits="userSpaceOnUse" gradientTransform="translate(151.312 87.2037) scale(6.36057 6.36696)">
<stop offset="0.00370374" stop-color="#8EE1EE"/>
<stop offset="0.937" stop-color="#5E8DEC"/>
</radialGradient>
<radialGradient id="paint23_radial_1_817" cx="0" cy="0" r="1" gradientUnits="userSpaceOnUse" gradientTransform="translate(150.082 87.9006) rotate(-27.0958) scale(6.36186 6.36562)">
<stop offset="0.00370374" stop-color="#8EE1EE"/>
<stop offset="0.937" stop-color="#5E8DEC"/>
</radialGradient>
<radialGradient id="paint24_radial_1_817" cx="0" cy="0" r="1" gradientUnits="userSpaceOnUse" gradientTransform="translate(154.696 90.1535) scale(16.0679 16.084)">
<stop offset="0.00370374" stop-color="#8EE1EE"/>
<stop offset="0.937" stop-color="#5E8DEC"/>
</radialGradient>
<radialGradient id="paint25_radial_1_817" cx="0" cy="0" r="1" gradientUnits="userSpaceOnUse" gradientTransform="translate(154.017 88.3776) rotate(-43.554) scale(16.0758 16.0766)">
<stop offset="0.00370374" stop-color="#8EE1EE"/>
<stop offset="0.937" stop-color="#5E8DEC"/>
</radialGradient>
<radialGradient id="paint26_radial_1_817" cx="0" cy="0" r="1" gradientUnits="userSpaceOnUse" gradientTransform="translate(65.2568 138.952) scale(5.19644 5.20167)">
<stop offset="0.062963" stop-color="#5E8DEC"/>
<stop offset="0.3261" stop-color="#6090EC" stop-opacity="0.7192"/>
<stop offset="0.5154" stop-color="#6599EC" stop-opacity="0.5171"/>
<stop offset="0.6817" stop-color="#6EA9ED" stop-opacity="0.3397"/>
<stop offset="0.8345" stop-color="#7BBFED" stop-opacity="0.1766"/>
<stop offset="0.9771" stop-color="#8BDCEE" stop-opacity="0.0244839"/>
<stop offset="1" stop-color="#8EE1EE" stop-opacity="0"/>
</radialGradient>
<radialGradient id="paint27_radial_1_817" cx="0" cy="0" r="1" gradientUnits="userSpaceOnUse" gradientTransform="translate(63.7489 136.761) scale(8.39885 8.40747)">
<stop stop-color="#D1E1EE"/>
<stop offset="0.337" stop-color="#8EE1EE"/>
<stop offset="0.937" stop-color="#5E8DEC"/>
</radialGradient>
<radialGradient id="paint28_radial_1_817" cx="0" cy="0" r="1" gradientUnits="userSpaceOnUse" gradientTransform="translate(64.2932 135.938) scale(6.36032 6.36685)">
<stop offset="0.00370374" stop-color="#8EE1EE"/>
<stop offset="0.937" stop-color="#5E8DEC"/>
</radialGradient>
<radialGradient id="paint29_radial_1_817" cx="0" cy="0" r="1" gradientUnits="userSpaceOnUse" gradientTransform="translate(63.0631 136.634) rotate(-27.096) scale(6.36182 6.36561)">
<stop offset="0.00370374" stop-color="#8EE1EE"/>
<stop offset="0.937" stop-color="#5E8DEC"/>
</radialGradient>
<radialGradient id="paint30_radial_1_817" cx="0" cy="0" r="1" gradientUnits="userSpaceOnUse" gradientTransform="translate(67.6773 138.887) scale(16.068 16.0843)">
<stop offset="0.00370374" stop-color="#8EE1EE"/>
<stop offset="0.937" stop-color="#5E8DEC"/>
</radialGradient>
<radialGradient id="paint31_radial_1_817" cx="0" cy="0" r="1" gradientUnits="userSpaceOnUse" gradientTransform="translate(66.998 137.111) rotate(-43.5541) scale(16.0756 16.0764)">
<stop offset="0.00370374" stop-color="#8EE1EE"/>
<stop offset="0.937" stop-color="#5E8DEC"/>
</radialGradient>
<radialGradient id="paint32_radial_1_817" cx="0" cy="0" r="1" gradientUnits="userSpaceOnUse" gradientTransform="translate(77.3152 125.486) scale(5.19644 5.20167)">
<stop offset="0.062963" stop-color="#ECB900"/>
<stop offset="0.4078" stop-color="#ECB803" stop-opacity="0.632"/>
<stop offset="0.656" stop-color="#EDB30C" stop-opacity="0.3671"/>
<stop offset="0.8731" stop-color="#EDAC1C" stop-opacity="0.1354"/>
<stop offset="1" stop-color="#EEA629" stop-opacity="0"/>
</radialGradient>
<radialGradient id="paint33_radial_1_817" cx="0" cy="0" r="1" gradientUnits="userSpaceOnUse" gradientTransform="translate(75.8072 123.294) scale(8.3989 8.40741)">
<stop stop-color="#EECA6C"/>
<stop offset="0.337" stop-color="#EEA629"/>
<stop offset="0.937" stop-color="#ECB900"/>
</radialGradient>
<radialGradient id="paint34_radial_1_817" cx="0" cy="0" r="1" gradientUnits="userSpaceOnUse" gradientTransform="translate(76.3515 122.471) scale(6.36041 6.36685)">
<stop offset="0.00370374" stop-color="#EEA629"/>
<stop offset="0.937" stop-color="#ECB900"/>
</radialGradient>
<radialGradient id="paint35_radial_1_817" cx="0" cy="0" r="1" gradientUnits="userSpaceOnUse" gradientTransform="translate(75.1213 123.168) rotate(-27.096) scale(6.36182 6.36561)">
<stop offset="0.00370374" stop-color="#EEA629"/>
<stop offset="0.937" stop-color="#ECB900"/>
</radialGradient>
<radialGradient id="paint36_radial_1_817" cx="0" cy="0" r="1" gradientUnits="userSpaceOnUse" gradientTransform="translate(79.7356 125.421) scale(16.0681 16.0843)">
<stop offset="0.00370374" stop-color="#EEA629"/>
<stop offset="0.937" stop-color="#ECB900"/>
</radialGradient>
<radialGradient id="paint37_radial_1_817" cx="0" cy="0" r="1" gradientUnits="userSpaceOnUse" gradientTransform="translate(79.0563 123.645) rotate(-43.5542) scale(16.0754 16.0762)">
<stop offset="0.00370374" stop-color="#EEA629"/>
<stop offset="0.937" stop-color="#ECB900"/>
</radialGradient>
<radialGradient id="paint38_radial_1_817" cx="0" cy="0" r="1" gradientUnits="userSpaceOnUse" gradientTransform="translate(5.28812 141.204) scale(5.1963 5.20159)">
<stop offset="0.062963" stop-color="#5E8DEC"/>
<stop offset="0.3261" stop-color="#6090EC" stop-opacity="0.7192"/>
<stop offset="0.5154" stop-color="#6599EC" stop-opacity="0.5171"/>
<stop offset="0.6817" stop-color="#6EA9ED" stop-opacity="0.3397"/>
<stop offset="0.8345" stop-color="#7BBFED" stop-opacity="0.1766"/>
<stop offset="0.9771" stop-color="#8BDCEE" stop-opacity="0.0244839"/>
<stop offset="1" stop-color="#8EE1EE" stop-opacity="0"/>
</radialGradient>
<radialGradient id="paint39_radial_1_817" cx="0" cy="0" r="1" gradientUnits="userSpaceOnUse" gradientTransform="translate(3.78012 139.012) scale(8.39879 8.4073)">
<stop stop-color="#D1E1EE"/>
<stop offset="0.337" stop-color="#8EE1EE"/>
<stop offset="0.937" stop-color="#5E8DEC"/>
</radialGradient>
<radialGradient id="paint40_radial_1_817" cx="0" cy="0" r="1" gradientUnits="userSpaceOnUse" gradientTransform="translate(4.32439 138.189) scale(6.36048 6.36691)">
<stop offset="0.00370374" stop-color="#8EE1EE"/>
<stop offset="0.937" stop-color="#5E8DEC"/>
</radialGradient>
<radialGradient id="paint41_radial_1_817" cx="0" cy="0" r="1" gradientUnits="userSpaceOnUse" gradientTransform="translate(3.09425 138.885) rotate(-27.096) scale(6.36182 6.36561)">
<stop offset="0.00370374" stop-color="#8EE1EE"/>
<stop offset="0.937" stop-color="#5E8DEC"/>
</radialGradient>
<radialGradient id="paint42_radial_1_817" cx="0" cy="0" r="1" gradientUnits="userSpaceOnUse" gradientTransform="translate(7.70842 141.138) scale(16.0676 16.084)">
<stop offset="0.00370374" stop-color="#8EE1EE"/>
<stop offset="0.937" stop-color="#5E8DEC"/>
</radialGradient>
<radialGradient id="paint43_radial_1_817" cx="0" cy="0" r="1" gradientUnits="userSpaceOnUse" gradientTransform="translate(7.0292 139.362) rotate(-43.5545) scale(16.0755 16.0763)">
<stop offset="0.00370374" stop-color="#8EE1EE"/>
<stop offset="0.937" stop-color="#5E8DEC"/>
</radialGradient>
<radialGradient id="paint44_radial_1_817" cx="0" cy="0" r="1" gradientUnits="userSpaceOnUse" gradientTransform="translate(84.384 54.1245) scale(49.0278 49.0775)">
<stop offset="0.0814815" stop-color="#FFE245"/>
<stop offset="0.5259" stop-color="#DE007B"/>
<stop offset="1" stop-color="#E38427"/>
</radialGradient>
<radialGradient id="paint45_radial_1_817" cx="0" cy="0" r="1" gradientUnits="userSpaceOnUse" gradientTransform="translate(135.971 61.4962) scale(58.7618 58.8213)">
<stop offset="0.0814815" stop-color="#FFE245"/>
<stop offset="0.5259" stop-color="#DE007B"/>
<stop offset="1" stop-color="#E38427"/>
</radialGradient>
<radialGradient id="paint46_radial_1_817" cx="0" cy="0" r="1" gradientUnits="userSpaceOnUse" gradientTransform="translate(135.971 61.4961) scale(58.762 58.8218)">
<stop offset="0.0814815" stop-color="#FFE245"/>
<stop offset="0.5259" stop-color="#DE007B"/>
<stop offset="1" stop-color="#E38427"/>
</radialGradient>
<radialGradient id="paint47_radial_1_817" cx="0" cy="0" r="1" gradientUnits="userSpaceOnUse" gradientTransform="translate(122.854 127.217) scale(16.9898 17.007)">
<stop offset="0.00370374" stop-color="#8EE1EE"/>
<stop offset="0.937" stop-color="#5E8DEC"/>
</radialGradient>
<radialGradient id="paint48_radial_1_817" cx="0" cy="0" r="1" gradientUnits="userSpaceOnUse" gradientTransform="translate(152.024 124.042) scale(14.0773 14.0916)">
<stop offset="0.00370374" stop-color="#8EE1EE"/>
<stop offset="0.937" stop-color="#5E8DEC"/>
</radialGradient>
</defs>
</svg>
