<svg width="87" height="87" viewBox="0 0 87 87" fill="none" xmlns="http://www.w3.org/2000/svg">
<path d="M43.271 78.4176C62.638 78.4176 78.3381 62.7015 78.3381 43.3148C78.3381 23.9281 62.638 8.21213 43.271 8.21213C23.9039 8.21213 8.20383 23.9281 8.20383 43.3148C8.20383 62.7015 23.9039 78.4176 43.271 78.4176Z" fill="url(#paint0_radial_1_1666)"/>
<path opacity="0.5" d="M43.2709 86.6296C67.1688 86.6296 86.5419 67.2369 86.5419 43.3148C86.5419 19.3927 67.1688 0 43.2709 0C19.3731 0 0 19.3927 0 43.3148C0 67.2369 19.3731 86.6296 43.2709 86.6296Z" fill="url(#paint1_radial_1_1666)"/>
<path d="M27.024 64.3282C27.1045 63.6036 26.0589 62.9595 25.6567 63.7646C23.9677 67.3071 25.4154 70.447 27.1849 73.748C27.4262 74.1505 27.6675 74.5531 27.9088 74.9556C29.6782 75.8412 31.5281 76.5658 33.4584 77.0489C30.1608 73.5064 26.3806 68.6758 27.024 64.3282Z" fill="url(#paint2_radial_1_1666)"/>
<path d="M78.2575 41.1411C78.177 40.497 78.177 39.8529 78.0966 39.2088C76.488 38.4842 74.9599 37.7596 73.9947 36.2299C72.4666 33.8146 74.236 32.6069 76.488 31.8823C75.925 30.2721 75.2816 28.7424 74.5577 27.2932C71.0188 28.4203 68.1234 31.1577 68.2038 35.1027C68.2842 39.7724 73.5121 44.281 78.4183 45.2471C78.4183 44.603 78.4988 44.0394 78.4988 43.3954C78.4988 42.6708 78.4988 42.0267 78.4183 41.3021C78.2575 41.2216 78.2575 41.2216 78.2575 41.1411Z" fill="url(#paint3_radial_1_1666)"/>
<path d="M18.1769 46.7768C22.6005 43.5564 27.748 42.4292 32.5737 40.0944C33.6193 39.6114 33.0563 38.0817 32.0107 38.0011C25.8981 37.8401 19.3833 41.5436 15.0401 45.6497C12.6273 47.904 10.8578 50.3998 9.57095 53.2177C9.73181 53.7007 9.89267 54.1838 10.0535 54.6669C10.0535 54.6669 10.0535 54.6669 10.0535 54.7474C10.2144 55.2304 10.3752 55.7135 10.5361 56.1161C12.2251 52.3321 14.9597 49.1116 18.1769 46.7768Z" fill="url(#paint4_radial_1_1666)"/>
<path d="M32.4932 34.4587C42.2251 33.3315 53.0027 31.5603 61.689 37.2765C64.1019 38.8868 66.5148 35.4248 64.6649 33.412C56.5415 24.7169 42.8686 27.3737 32.4128 29.0644C25.4154 30.1916 15.5226 32.2849 8.84699 37.1155C8.68613 38.2427 8.52527 39.3698 8.44484 40.497C8.44484 40.658 8.44484 40.7385 8.44484 40.8995C8.44484 41.2216 8.36441 41.5436 8.36441 41.9462C11.4207 40.0944 14.3966 38.3232 17.9355 37.196C22.6004 35.5858 27.5066 35.0222 32.4932 34.4587Z" fill="url(#paint5_radial_1_1666)"/>
<path d="M46.5684 48.548C37.5603 44.1199 26.5415 46.6158 20.7506 54.9889C18.2573 58.5314 17.1313 62.879 17.453 67.146C17.9356 67.6291 18.4182 68.1927 18.9007 68.6757C18.9812 68.7562 19.0616 68.7563 19.0616 68.8368C20.6702 70.3665 22.3592 71.7352 24.2091 72.9428C22.4396 69.1588 22.1983 64.6502 23.8069 61.0272C26.622 54.8279 33.4584 51.1244 40.1341 52.6541C45.6033 53.8617 56.3808 62.4764 48.8204 67.8706C46.488 69.5613 42.9491 69.7224 40.4558 68.4342C39.4102 67.9511 37.3995 66.5825 37.319 65.2138C37.2386 63.201 39.0081 64.4087 39.4906 65.5358C40.4558 67.9511 44.6381 68.7562 45.2011 65.5358C46.0858 60.7052 42.8687 56.2771 37.7212 56.2771C32.6541 56.2771 28.874 60.7857 29.3566 65.6968C30.563 76.4048 44.9598 79.0616 52.2789 73.0233C61.5282 65.2943 55.9786 53.2177 46.5684 48.548Z" fill="url(#paint6_radial_1_1666)"/>
<path d="M69.169 41.9462C67.8822 41.3021 66.4345 42.9123 67.5605 44.0395C69.8929 46.2132 72.3058 48.387 74.0752 51.1244C74.96 52.4126 75.6034 53.8618 76.3273 55.2305C76.5685 54.4253 76.8903 53.6202 77.0511 52.8956C77.0511 52.8151 77.1315 52.6541 77.1315 52.5736C77.212 52.171 77.2924 51.7685 77.4533 51.4464C77.4533 51.3659 77.4533 51.2854 77.5337 51.2049C77.6141 50.8024 77.6945 50.3998 77.775 49.9167C75.4425 46.4548 72.1449 43.5564 69.169 41.9462Z" fill="url(#paint7_radial_1_1666)"/>
<path d="M28.713 19.5641C36.5951 21.4159 46.8901 19.5641 50.5094 11.352C50.9115 10.5469 51.0724 9.82234 51.2332 9.09774C49.4638 8.69519 47.6943 8.45365 45.8445 8.29263C46.0053 8.53417 46.0858 8.7757 46.0858 9.09774C46.0858 11.2715 41.5817 13.6869 39.9731 14.3309C37.9624 15.1361 27.2653 16.1022 25.4154 13.0428C24.8524 13.3648 24.3699 13.6869 23.8873 14.0089C23.4047 14.3309 22.8417 14.7335 22.3591 15.0555C23.2439 17.7929 26.1393 19.0006 28.713 19.5641Z" fill="url(#paint8_radial_1_1666)"/>
<path d="M62.4934 68.1927C62.2521 67.3876 61.4478 66.824 60.5631 67.0655C58.3915 67.7096 57.1047 70.447 55.8982 72.2182C54.6918 73.9895 53.0832 75.4387 51.9572 77.2904C52.681 77.1294 53.3245 76.8878 54.0483 76.6463C54.2092 76.5658 54.2896 76.5658 54.4505 76.4853C55.0939 76.2438 55.6569 76.0828 56.3004 75.7607C56.3808 75.7607 56.3808 75.7607 56.4612 75.6802C57.9089 75.1166 59.2762 74.392 60.5631 73.6674C61.9304 72.1377 63.1369 70.0444 62.4934 68.1927Z" fill="url(#paint9_radial_1_1666)"/>
<path d="M70.5363 65.2943C70.5363 65.0528 70.5363 64.7307 70.5363 64.4892C70.2146 58.9339 69.3299 53.2177 66.4344 48.4675C63.9411 44.3615 60.2414 40.98 55.8982 38.8868C51.3942 36.7935 47.1314 36.6325 42.2252 37.3571C40.9384 37.5181 41.2601 39.5308 42.5469 39.6114C49.9464 39.8529 58.0698 44.764 61.6891 51.2049C65.0671 57.1627 65.3888 64.5697 64.4237 71.3326C64.9867 70.9301 65.4693 70.5275 66.0323 70.0444C66.1127 69.9639 66.1931 69.9639 66.2736 69.8834C66.7561 69.4809 67.2387 68.9978 67.7213 68.5952L67.8017 68.5147C68.6865 67.4681 69.6516 66.4215 70.5363 65.2943Z" fill="url(#paint10_radial_1_1666)"/>
<path d="M34.5039 12.3987C36.1125 14.653 39.4101 14.8945 40.7774 12.3182C41.5817 10.869 40.2948 9.33927 38.7667 9.66132C39.0884 9.01723 39.4905 8.61467 40.134 8.37314C39.571 8.45365 39.0884 8.45365 38.6058 8.53416H38.5254C38.0428 8.61467 37.4798 8.69518 36.9972 8.77569H36.9168C36.4342 8.8562 35.8712 9.01722 35.3887 9.09773C35.3887 9.09773 35.3887 9.09773 35.3082 9.09773C34.8256 9.25875 34.2626 9.33926 33.7801 9.50029C33.6192 10.5469 33.8605 11.5131 34.5039 12.3987Z" fill="url(#paint11_radial_1_1666)"/>
<path d="M12.2251 45.2471C14.1554 43.8784 16.327 42.7513 17.9356 40.98C18.579 40.2554 17.9356 39.2088 17.0508 39.4503C14.638 40.0139 12.5468 41.6241 10.6969 43.1538C9.89264 43.7979 9.08835 44.442 8.28406 45.1666C8.36449 46.2132 8.44492 47.1794 8.60577 48.226C9.81221 47.2599 10.9382 46.2132 12.2251 45.2471Z" fill="url(#paint12_radial_1_1666)"/>
<path d="M15.0402 23.6702C14.7185 23.7507 14.3967 23.7507 14.075 23.8312C12.949 25.522 11.9839 27.2127 11.1796 29.0644C11.6621 29.306 12.1447 29.3865 12.7077 29.2255C14.1554 28.8229 15.4423 28.3398 16.6488 27.5347C17.5335 26.9712 17.9356 25.844 17.5335 24.8779C17.1313 23.8312 16.1662 23.5092 15.0402 23.6702Z" fill="url(#paint13_radial_1_1666)"/>
<path d="M54.2091 50.6413C56.3003 53.7007 56.7829 57.0822 58.2306 60.3831C58.5523 61.1883 60 61.0272 60.1609 60.1416C61.3673 51.6075 51.4745 44.12 44.075 42.9123C43.9142 42.9123 43.8337 43.1538 43.9946 43.1538C48.0965 44.603 51.7158 47.0989 54.2091 50.6413Z" fill="url(#paint14_radial_1_1666)"/>
<path d="M13.2706 60.6247C15.4422 56.0356 18.3377 51.6075 21.957 47.9845C22.1983 47.743 21.8766 47.2599 21.5548 47.4209C16.5682 50.2388 13.4315 54.7474 12.6272 60.4637C12.6272 60.5442 12.6272 60.6247 12.7076 60.7052C12.8685 60.7857 13.1902 60.7857 13.2706 60.6247Z" fill="url(#paint15_radial_1_1666)"/>
<path d="M51.3138 14.814C46.8902 18.3565 41.8231 21.0939 36.9169 23.9117C36.3539 24.2338 36.5952 25.1194 37.2386 25.1194C43.5926 25.6025 49.7856 23.1871 54.8527 19.4031C56.8634 17.9539 59.598 15.8606 61.6891 13.5258C61.2066 13.2038 60.724 12.9623 60.2414 12.7207C59.7588 12.4792 59.2763 12.1571 58.7937 11.9156C57.8285 11.4326 56.783 10.9495 55.7374 10.5469C54.3701 12.0766 52.9223 13.5258 51.3138 14.814Z" fill="url(#paint16_radial_1_1666)"/>
<path d="M16.5682 20.6108C17.5334 22.3015 19.3028 23.5092 20.9918 24.3948C23.4852 25.7635 25.7372 26.166 28.5522 25.9245C29.2761 25.844 29.5173 24.7974 28.7131 24.5558C26.6219 24.0728 24.1286 23.2676 22.1983 22.3015C20.5897 21.4964 19.142 20.2888 17.6138 19.4031C17.2117 19.8057 16.89 20.2082 16.5682 20.6108Z" fill="url(#paint17_radial_1_1666)"/>
<path d="M66.5148 17.1488C63.9411 19.6446 60.2413 20.7718 57.2655 22.7041C56.3003 23.3482 56.7025 24.8779 57.8285 24.8779C61.5282 25.0389 66.5952 23.5897 70.0537 20.7718C69.4907 20.1277 69.0081 19.5641 68.3647 18.9201L68.2843 18.8395C67.8017 18.276 67.1582 17.7124 66.5148 17.1488Z" fill="url(#paint18_radial_1_1666)"/>
<path opacity="0.5" d="M68.767 19.3226C70.1343 23.0261 70.8581 27.0516 70.8581 31.3187C70.8581 50.7218 55.1744 66.4214 35.791 66.4214C25.7373 66.4214 16.6488 62.1543 10.2949 55.3914C15.2011 68.9172 28.0698 78.498 43.2709 78.498C62.6543 78.498 78.338 62.7984 78.338 43.3953C78.338 34.056 74.6383 25.6024 68.767 19.3226Z" fill="url(#paint19_radial_1_1666)"/>
<path opacity="0.5" d="M53.3246 66.0189C33.9411 66.0189 18.2574 50.3193 18.2574 30.9162C18.2574 25.4414 19.5443 20.2082 21.7159 15.6191C13.4317 22.06 8.12332 32.0433 8.12332 43.3148C8.12332 62.7179 23.807 78.4176 43.1905 78.4176C57.1047 78.4176 69.0887 70.3665 74.7992 58.6119C68.8474 63.2815 61.4479 66.0189 53.3246 66.0189Z" fill="url(#paint20_radial_1_1666)"/>
<path opacity="0.3" d="M40.295 15.6191C59.6785 15.6191 75.3622 31.3187 75.3622 50.7218C75.3622 53.9423 74.9601 57.0822 74.0753 59.9806C76.7295 54.9889 78.2577 49.3531 78.2577 43.3148C78.2577 23.9117 62.574 8.21213 43.1905 8.21213C27.0242 8.21213 13.4317 19.1616 9.41022 34.0561C15.362 23.1066 26.9438 15.6191 40.295 15.6191Z" fill="url(#paint21_radial_1_1666)"/>
<defs>
<radialGradient id="paint0_radial_1_1666" cx="0" cy="0" r="1" gradientUnits="userSpaceOnUse" gradientTransform="translate(30.9761 16.9001) scale(74.2019 74.2772)">
<stop stop-color="#D1E1EE"/>
<stop offset="0.337" stop-color="#8EE1EE"/>
<stop offset="0.9444" stop-color="#732FA4"/>
</radialGradient>
<radialGradient id="paint1_radial_1_1666" cx="0" cy="0" r="1" gradientUnits="userSpaceOnUse" gradientTransform="translate(41.0118 42.9623) scale(39.5511 39.5912)">
<stop offset="0.062963" stop-color="#5E8DEC"/>
<stop offset="0.3261" stop-color="#6090EC" stop-opacity="0.7192"/>
<stop offset="0.5154" stop-color="#6599EC" stop-opacity="0.5171"/>
<stop offset="0.6817" stop-color="#6EA9ED" stop-opacity="0.3397"/>
<stop offset="0.8345" stop-color="#7BBFED" stop-opacity="0.1766"/>
<stop offset="0.9771" stop-color="#8BDCEE" stop-opacity="0.0244839"/>
<stop offset="1" stop-color="#8EE1EE" stop-opacity="0"/>
</radialGradient>
<radialGradient id="paint2_radial_1_1666" cx="0" cy="0" r="1" gradientUnits="userSpaceOnUse" gradientTransform="translate(38.0925 9.44659) scale(63.4433 63.5077)">
<stop stop-color="#D1E1EE"/>
<stop offset="0.337" stop-color="#8EE1EE"/>
<stop offset="0.9444" stop-color="#732FA4"/>
</radialGradient>
<radialGradient id="paint3_radial_1_1666" cx="0" cy="0" r="1" gradientUnits="userSpaceOnUse" gradientTransform="translate(38.0926 9.44693) scale(63.443 63.5074)">
<stop stop-color="#D1E1EE"/>
<stop offset="0.337" stop-color="#8EE1EE"/>
<stop offset="0.9444" stop-color="#732FA4"/>
</radialGradient>
<radialGradient id="paint4_radial_1_1666" cx="0" cy="0" r="1" gradientUnits="userSpaceOnUse" gradientTransform="translate(38.0927 9.44663) scale(63.4433 63.5076)">
<stop stop-color="#D1E1EE"/>
<stop offset="0.337" stop-color="#8EE1EE"/>
<stop offset="0.9444" stop-color="#732FA4"/>
</radialGradient>
<radialGradient id="paint5_radial_1_1666" cx="0" cy="0" r="1" gradientUnits="userSpaceOnUse" gradientTransform="translate(38.0926 9.44677) scale(63.4432 63.5075)">
<stop stop-color="#D1E1EE"/>
<stop offset="0.337" stop-color="#8EE1EE"/>
<stop offset="0.9444" stop-color="#732FA4"/>
</radialGradient>
<radialGradient id="paint6_radial_1_1666" cx="0" cy="0" r="1" gradientUnits="userSpaceOnUse" gradientTransform="translate(38.0927 9.44676) scale(63.4432 63.5076)">
<stop stop-color="#D1E1EE"/>
<stop offset="0.337" stop-color="#8EE1EE"/>
<stop offset="0.9444" stop-color="#732FA4"/>
</radialGradient>
<radialGradient id="paint7_radial_1_1666" cx="0" cy="0" r="1" gradientUnits="userSpaceOnUse" gradientTransform="translate(38.0928 9.44685) scale(63.443 63.5073)">
<stop stop-color="#D1E1EE"/>
<stop offset="0.337" stop-color="#8EE1EE"/>
<stop offset="0.9444" stop-color="#732FA4"/>
</radialGradient>
<radialGradient id="paint8_radial_1_1666" cx="0" cy="0" r="1" gradientUnits="userSpaceOnUse" gradientTransform="translate(38.0927 9.44683) scale(63.4428 63.5072)">
<stop stop-color="#D1E1EE"/>
<stop offset="0.337" stop-color="#8EE1EE"/>
<stop offset="0.9444" stop-color="#732FA4"/>
</radialGradient>
<radialGradient id="paint9_radial_1_1666" cx="0" cy="0" r="1" gradientUnits="userSpaceOnUse" gradientTransform="translate(38.0928 9.44658) scale(63.4432 63.5075)">
<stop stop-color="#D1E1EE"/>
<stop offset="0.337" stop-color="#8EE1EE"/>
<stop offset="0.9444" stop-color="#732FA4"/>
</radialGradient>
<radialGradient id="paint10_radial_1_1666" cx="0" cy="0" r="1" gradientUnits="userSpaceOnUse" gradientTransform="translate(38.0927 9.44693) scale(63.4431 63.5074)">
<stop stop-color="#D1E1EE"/>
<stop offset="0.337" stop-color="#8EE1EE"/>
<stop offset="0.9444" stop-color="#732FA4"/>
</radialGradient>
<radialGradient id="paint11_radial_1_1666" cx="0" cy="0" r="1" gradientUnits="userSpaceOnUse" gradientTransform="translate(38.0926 9.44683) scale(63.4429 63.5073)">
<stop stop-color="#D1E1EE"/>
<stop offset="0.337" stop-color="#8EE1EE"/>
<stop offset="0.9444" stop-color="#732FA4"/>
</radialGradient>
<radialGradient id="paint12_radial_1_1666" cx="0" cy="0" r="1" gradientUnits="userSpaceOnUse" gradientTransform="translate(38.0925 9.44683) scale(63.4427 63.5071)">
<stop stop-color="#D1E1EE"/>
<stop offset="0.337" stop-color="#8EE1EE"/>
<stop offset="0.9444" stop-color="#732FA4"/>
</radialGradient>
<radialGradient id="paint13_radial_1_1666" cx="0" cy="0" r="1" gradientUnits="userSpaceOnUse" gradientTransform="translate(38.0928 9.44686) scale(63.4429 63.5072)">
<stop stop-color="#D1E1EE"/>
<stop offset="0.337" stop-color="#8EE1EE"/>
<stop offset="0.9444" stop-color="#732FA4"/>
</radialGradient>
<radialGradient id="paint14_radial_1_1666" cx="0" cy="0" r="1" gradientUnits="userSpaceOnUse" gradientTransform="translate(38.0926 9.44683) scale(63.4429 63.5073)">
<stop stop-color="#D1E1EE"/>
<stop offset="0.337" stop-color="#8EE1EE"/>
<stop offset="0.9444" stop-color="#732FA4"/>
</radialGradient>
<radialGradient id="paint15_radial_1_1666" cx="0" cy="0" r="1" gradientUnits="userSpaceOnUse" gradientTransform="translate(38.0928 9.44673) scale(63.443 63.5074)">
<stop stop-color="#D1E1EE"/>
<stop offset="0.337" stop-color="#8EE1EE"/>
<stop offset="0.9444" stop-color="#732FA4"/>
</radialGradient>
<radialGradient id="paint16_radial_1_1666" cx="0" cy="0" r="1" gradientUnits="userSpaceOnUse" gradientTransform="translate(38.0927 9.44684) scale(63.4429 63.5073)">
<stop stop-color="#D1E1EE"/>
<stop offset="0.337" stop-color="#8EE1EE"/>
<stop offset="0.9444" stop-color="#732FA4"/>
</radialGradient>
<radialGradient id="paint17_radial_1_1666" cx="0" cy="0" r="1" gradientUnits="userSpaceOnUse" gradientTransform="translate(38.0927 9.44687) scale(63.443 63.5072)">
<stop stop-color="#D1E1EE"/>
<stop offset="0.337" stop-color="#8EE1EE"/>
<stop offset="0.9444" stop-color="#732FA4"/>
</radialGradient>
<radialGradient id="paint18_radial_1_1666" cx="0" cy="0" r="1" gradientUnits="userSpaceOnUse" gradientTransform="translate(38.0925 9.44672) scale(63.4434 63.5079)">
<stop stop-color="#D1E1EE"/>
<stop offset="0.337" stop-color="#8EE1EE"/>
<stop offset="0.9444" stop-color="#732FA4"/>
</radialGradient>
<radialGradient id="paint19_radial_1_1666" cx="0" cy="0" r="1" gradientUnits="userSpaceOnUse" gradientTransform="translate(32.3883 26.5875) scale(66.2023 66.2694)">
<stop stop-color="#D1E1EE"/>
<stop offset="0.337" stop-color="#8EE1EE"/>
<stop offset="0.9444" stop-color="#732FA4"/>
</radialGradient>
<radialGradient id="paint20_radial_1_1666" cx="0" cy="0" r="1" gradientUnits="userSpaceOnUse" gradientTransform="translate(29.8396 23.367) scale(67.9591 68.028)">
<stop stop-color="#D1E1EE"/>
<stop offset="0.337" stop-color="#8EE1EE"/>
<stop offset="0.9444" stop-color="#732FA4"/>
</radialGradient>
<radialGradient id="paint21_radial_1_1666" cx="0" cy="0" r="1" gradientUnits="userSpaceOnUse" gradientTransform="translate(31.8209 14.6265) scale(62.0915 62.1544)">
<stop stop-color="#D1E1EE"/>
<stop offset="0.337" stop-color="#8EE1EE"/>
<stop offset="0.9444" stop-color="#732FA4"/>
</radialGradient>
</defs>
</svg>
