<svg width="161" height="131" viewBox="0 0 161 131" fill="none" xmlns="http://www.w3.org/2000/svg">
<path d="M79.5281 115.677C106.356 115.677 128.105 93.9067 128.105 67.0512C128.105 40.1956 106.356 18.4249 79.5281 18.4249C52.6997 18.4249 30.951 40.1956 30.951 67.0512C30.951 93.9067 52.6997 115.677 79.5281 115.677Z" fill="url(#paint0_radial_1_3218)"/>
<path d="M79.5279 124.686C111.327 124.686 137.104 98.8821 137.104 67.0512C137.104 35.2203 111.327 9.41621 79.5279 9.41621C47.7292 9.41621 21.9513 35.2203 21.9513 67.0512C21.9513 98.8821 47.7292 124.686 79.5279 124.686Z" fill="url(#paint1_radial_1_3218)"/>
<path d="M125.037 50.0576C123.912 55.4832 121.867 60.8065 118.696 65.7204C105.095 86.9112 76.8689 93.0535 55.6995 79.3357C44.041 71.8626 36.9845 59.8852 35.246 47.1912C25.5306 68.7915 32.7916 94.7938 53.2451 108C75.8462 122.536 105.913 116.087 120.435 93.4629C129.025 79.9499 130.252 63.8777 125.037 50.0576Z" fill="url(#paint2_radial_1_3218)"/>
<path d="M123.707 87.3207C119.105 90.3918 113.89 92.644 108.163 93.8724C83.5161 99.1957 59.2787 83.5329 53.9608 58.8615C50.9951 45.3485 54.4722 31.8355 62.2445 21.5984C40.1547 29.9928 26.8599 53.5382 32.0756 77.2883C37.7003 103.495 63.574 120.182 89.8567 114.551C105.299 111.276 117.571 100.731 123.707 87.3207Z" fill="url(#paint3_radial_1_3218)"/>
<path d="M89.8776 47.3436C91.8663 44.2548 90.977 40.137 87.8913 38.1462C84.8056 36.1555 80.692 37.0457 78.7033 40.1345C76.7146 43.2233 77.6039 47.3411 80.6895 49.3318C83.7752 51.3226 87.8888 50.4324 89.8776 47.3436Z" fill="#E3AD27"/>
<path d="M77.9937 61.6255C77.9937 61.7279 77.9937 61.8302 78.096 61.8302C78.505 63.1611 79.5277 64.2871 81.0617 64.2871C82.4935 64.2871 83.7207 63.4682 84.232 62.035C84.3343 61.8302 84.3343 61.5231 84.3343 61.216C84.4365 59.9876 83.6184 58.7591 82.4935 58.2472C81.4708 57.7354 79.9368 57.8378 79.1186 58.7591C79.0164 58.8615 79.0164 58.9639 78.9141 58.9639C78.1982 59.7828 77.7892 60.7042 77.9937 61.6255Z" fill="#E3AD27"/>
<path d="M94.2549 58.5544C94.1526 58.5544 94.0504 58.5544 93.9481 58.452C93.0277 58.2473 92.005 58.452 91.4937 59.3733C90.9823 60.1923 91.0846 61.216 91.6982 62.035C91.8005 62.1374 91.8005 62.1374 91.9027 62.2397C92.8231 63.3658 94.7662 63.1611 95.4821 61.9326C96.198 60.7042 95.6866 58.8615 94.2549 58.5544Z" fill="#E3AD27"/>
<path d="M104.277 48.1125C108.879 51.0813 113.379 43.9153 108.879 41.0489C104.277 38.0801 99.6749 45.1437 104.277 48.1125Z" fill="#E3AD27"/>
<path d="M107.652 64.2872C109.186 65.2085 110.617 62.9563 109.186 61.9326C107.652 60.9089 106.118 63.2634 107.652 64.2872Z" fill="#E3AD27"/>
<path d="M66.2329 55.688C67.6646 56.6093 69.9145 56.3022 70.8349 54.6643C71.7553 53.1287 71.4485 51.0813 69.8123 50.0576C68.3805 49.1362 66.1306 49.4433 65.2102 51.0813C64.2898 52.6168 64.5966 54.6643 66.2329 55.688Z" fill="#E3AD27"/>
<path d="M68.3807 33.3711C70.8351 35.009 73.3918 31.1189 70.8351 29.481C68.3807 27.843 65.824 31.7331 68.3807 33.3711Z" fill="#E3AD27"/>
<path d="M59.0742 40.1276C58.972 40.1276 58.8697 40.1276 58.6652 40.1276C57.1312 39.9228 55.9039 41.8679 56.7221 43.1987C56.8243 43.3011 56.8243 43.4034 56.9266 43.5058C57.847 44.939 59.8924 45.2461 60.915 43.7105C61.8354 42.175 60.7105 40.3323 59.0742 40.1276Z" fill="#E3AD27"/>
<path d="M88.323 31.6307C89.2434 32.245 90.3683 32.4497 91.4933 32.245C92.5159 32.0402 93.6409 31.3236 94.1522 30.4023C95.2772 28.4572 94.8681 25.898 92.925 24.6695C92.0046 24.0553 90.8797 23.8505 89.7547 24.0553C88.732 24.26 87.6071 24.9766 87.0958 25.898C85.9708 27.843 86.3799 30.4023 88.323 31.6307Z" fill="#E3AD27"/>
<path d="M88.2211 77.6978C90.1642 78.9262 92.1073 75.9575 90.1642 74.729C88.2211 73.5005 86.278 76.4693 88.2211 77.6978Z" fill="#E3AD27"/>
<path d="M96.7084 74.8314C98.447 75.9575 100.288 73.1934 98.447 72.0674C96.7084 70.9413 94.9699 73.7053 96.7084 74.8314Z" fill="#E3AD27"/>
<path d="M96.5042 51.3884C98.345 52.6168 100.288 49.6481 98.345 48.522C96.5042 47.2935 94.6634 50.1599 96.5042 51.3884Z" fill="#E3AD27"/>
<path d="M92.1072 40.0252C93.7435 41.0489 95.2775 38.592 93.7435 37.5683C92.1072 36.5446 90.4709 39.0015 92.1072 40.0252Z" fill="#E3AD27"/>
<path d="M42.5076 69.6105C44.0416 70.6342 46.2915 70.2247 47.3142 68.5868C48.2346 66.9488 47.9278 64.9014 46.2915 63.7753C44.7575 62.7516 42.5076 63.1611 41.4849 64.799C40.4622 66.437 40.8713 68.5868 42.5076 69.6105Z" fill="#E3AD27"/>
<path d="M53.757 91.7226C54.2683 92.0297 54.7796 91.2108 54.2683 90.9037C53.757 90.5965 53.2456 91.3131 53.757 91.7226Z" fill="#E3AD27"/>
<path d="M63.2679 91.2108C65.211 92.4392 67.154 89.4704 65.2109 88.242C63.2679 87.0135 61.3248 89.9823 63.2679 91.2108Z" fill="#E3AD27"/>
<path d="M63.9829 104.212C67.46 106.464 71.0394 101.038 67.5623 98.6839C64.0852 96.4317 60.5059 101.96 63.9829 104.212Z" fill="#E3AD27"/>
<path d="M49.359 89.6752C49.359 89.5728 49.359 89.4705 49.359 89.4705C49.5636 88.1397 47.825 87.0136 46.7001 87.7302C46.5978 87.7302 46.5978 87.8325 46.4955 87.8325C45.8819 88.242 45.4729 88.7539 45.3706 89.4705C45.3706 90.1871 45.6774 90.8013 46.291 91.2108C46.9046 91.6203 47.6205 91.6203 48.2341 91.3131C48.95 91.006 49.2568 90.3918 49.359 89.6752Z" fill="#E3AD27"/>
<path d="M96.9132 92.7463C97.9359 93.4629 99.5722 93.1558 100.186 92.0297C100.799 90.9037 100.595 89.4705 99.4699 88.7539C98.4472 88.0373 96.811 88.3444 96.1974 89.4705C95.5838 90.4942 95.7883 92.0297 96.9132 92.7463Z" fill="#E3AD27"/>
<path d="M104.276 96.2269C104.379 96.3293 104.481 96.2269 104.276 96.2269C104.276 96.1246 104.276 96.2269 104.276 96.2269Z" fill="#E3AD27"/>
<path d="M113.174 72.1697C114.913 73.2958 116.753 70.5318 114.913 69.4057C113.174 68.2796 111.435 71.0437 113.174 72.1697Z" fill="#E3AD27"/>
<path d="M108.06 98.4791C110.719 100.219 113.378 96.1246 110.719 94.3843C108.06 92.644 105.401 96.7388 108.06 98.4791Z" fill="#E3AD27"/>
<path d="M97.8339 72.784C91.8001 82.2021 94.4591 94.6914 103.868 100.834C106.22 102.369 108.879 103.291 111.435 103.802C114.81 100.834 117.878 97.4554 120.333 93.4629C125.344 85.6827 127.798 77.0836 128.105 68.4844C127.389 67.8702 126.571 67.2559 125.753 66.7441C116.344 60.6018 103.868 63.3658 97.8339 72.784Z" fill="#E3AD27"/>
<path d="M124.525 48.7268C122.582 43.8129 119.719 39.2062 116.139 35.1114C115.526 35.6232 114.912 36.2375 114.401 37.0564C111.946 40.8442 113.071 45.758 116.753 48.2149C119.207 49.6481 122.071 49.7505 124.525 48.7268Z" fill="#E3AD27"/>
<path d="M53.2452 107.897C55.1883 109.126 57.2336 110.252 59.3812 111.276C61.3243 109.945 62.9606 108.204 64.2901 106.157C69.9148 97.4554 67.3581 85.7851 58.6654 80.1547C50.5863 74.9338 39.9504 76.7764 34.0189 84.0448C37.496 93.5653 44.0411 101.96 53.2452 107.897Z" fill="#E3AD27"/>
<path d="M35.1436 47.2936C33.2006 51.5931 31.9733 56.0975 31.3597 60.6018C33.5074 60.3971 35.655 59.1686 36.8822 57.2236C39.0298 53.9477 38.2117 49.5457 35.1436 47.2936Z" fill="#E3AD27"/>
<path d="M85.6636 109.638C81.3684 106.874 75.6414 108.102 72.8802 112.402C72.3689 113.221 71.9598 114.142 71.7552 115.063C77.6868 115.985 83.7205 115.882 89.4475 114.654C88.9362 112.606 87.6067 110.866 85.6636 109.638Z" fill="#E3AD27"/>
<path d="M92.1472 99.2149C94.3811 95.7459 93.3827 91.121 89.9173 88.8848C86.4518 86.6486 81.8316 87.648 79.5977 91.117C77.3638 94.586 78.3622 99.2109 81.8276 101.447C85.2931 103.683 89.9133 102.684 92.1472 99.2149Z" fill="#E3AD27"/>
<path d="M160.933 75.2409C161.751 68.5868 153.979 62.6492 137.207 56.9164C133.423 55.688 129.332 54.4595 124.935 53.2311C125.446 54.4595 125.753 55.7904 126.06 57.0188C126.571 58.6568 126.878 60.2947 127.185 62.035C129.128 62.6492 131.071 63.1611 132.912 63.7753C149.888 69.3034 152.547 73.3982 152.956 74.2172C152.445 74.8314 148.763 78.2096 130.968 79.5405C116.651 80.5642 98.2429 79.8476 79.0166 77.493C59.7903 75.1385 41.689 71.4531 28.0874 66.9488C11.111 61.4208 8.45205 57.3259 8.04298 56.507C8.55431 55.8927 12.2359 52.5145 30.0305 51.1837C31.9736 51.0813 34.0189 50.9789 36.0643 50.8765C36.7801 48.0102 38.0073 45.2461 39.6436 42.7892C35.3484 42.8916 31.2577 43.0963 27.4738 43.4035C9.88379 44.939 0.884261 48.8291 0.0661213 55.4832C-0.445216 59.3734 2.0092 62.9563 7.42937 66.437C11.3155 68.8939 16.7357 71.3508 23.6899 73.7053C38.0073 78.6191 57.3359 82.6116 77.9939 85.1709C98.6519 87.7302 118.39 88.3444 133.423 87.1159C151.115 85.8875 160.115 81.895 160.933 75.2409Z" fill="url(#paint4_radial_1_3218)"/>
<path d="M160.933 75.2409C161.751 68.5868 153.979 62.6492 137.207 56.9164C133.423 55.688 129.332 54.4595 124.935 53.2311C125.446 54.4595 125.753 55.7904 126.06 57.0188C126.571 58.6568 126.878 60.2947 127.185 62.035C129.128 62.6492 131.071 63.1611 132.912 63.7753C149.888 69.3034 152.547 73.3982 152.956 74.2172C152.445 74.8314 148.763 78.2096 130.968 79.5405C116.651 80.5642 98.2429 79.8476 79.0166 77.493C59.7903 75.1385 41.689 71.4531 28.0874 66.9488C11.111 61.4208 8.45205 57.3259 8.04298 56.507C8.55431 55.8927 12.2359 52.5145 30.0305 51.1837C31.9736 51.0813 34.0189 50.9789 36.0643 50.8765C36.7801 48.0102 38.0073 45.2461 39.6436 42.7892C35.3484 42.8916 31.2577 43.0963 27.4738 43.4035C9.88379 44.939 0.884261 48.8291 0.0661213 55.4832C-0.445216 59.3734 2.0092 62.9563 7.42937 66.437C11.3155 68.8939 16.7357 71.3508 23.6899 73.7053C38.0073 78.6191 57.3359 82.6116 77.9939 85.1709C98.6519 87.7302 118.39 88.3444 133.423 87.1159C151.115 85.8875 160.115 81.895 160.933 75.2409Z" fill="url(#paint5_radial_1_3218)"/>
<path d="M127.185 62.1374C129.128 62.7516 131.071 63.2635 132.912 63.8777C143.548 67.3583 148.559 70.2247 150.911 72.1697C152.343 71.4531 152.854 70.9413 153.059 70.7366C152.65 70.02 149.991 65.8227 133.014 60.2947C131.174 59.6805 129.231 59.1686 127.287 58.5544C126.981 56.9164 126.674 55.2785 126.163 53.6406C125.753 53.5382 125.344 53.4358 124.935 53.3335C125.447 54.5619 125.753 55.8927 126.06 57.1212C126.572 58.7591 126.981 60.4994 127.185 62.1374Z" fill="url(#paint6_radial_1_3218)"/>
<path d="M160.933 75.2409C161.036 74.4219 161.036 73.603 160.831 72.8864C159.092 78.8239 150.195 82.3045 133.73 83.7377C118.697 85.0685 98.9592 84.3519 78.3011 81.7927C57.6431 79.2334 38.3146 75.2409 23.9971 70.3271C17.0429 67.9725 11.6228 65.5156 7.7366 63.0587C3.44137 60.2947 0.986946 57.4283 0.475609 54.4596C0.373342 54.869 0.271077 55.2785 0.271077 55.688C-0.24026 59.5781 2.21416 63.1611 7.63433 66.6417C11.5205 69.0986 16.9407 71.5555 23.8949 73.9101C38.2123 78.8239 57.5408 82.8164 78.1989 85.3757C98.8569 87.9349 118.595 88.5492 133.628 87.3207C151.116 85.8875 160.115 81.895 160.933 75.2409Z" fill="url(#paint7_radial_1_3218)"/>
<path d="M36.2692 47.4983C34.2239 47.6007 32.1785 47.7031 30.2354 47.8054C12.4409 49.1363 8.86153 52.4121 8.24792 53.1287C8.35019 53.4358 8.86153 54.1524 10.2933 55.2785C12.9522 54.0501 18.4747 52.3098 30.0309 51.4908C31.974 51.3884 34.0193 51.286 36.0647 51.1837C36.7805 48.3173 38.0078 45.5533 39.644 43.0964C39.0304 43.0964 38.4168 43.0964 37.8032 43.0964C37.1896 44.4272 36.6783 45.9627 36.2692 47.4983Z" fill="url(#paint8_radial_1_3218)"/>
<path d="M130.457 129.293C135.673 125.198 134.445 115.473 126.673 99.6052C124.934 96.0222 122.889 92.2345 120.639 88.3444C120.128 89.5729 119.412 90.6989 118.696 91.825C117.878 93.3606 116.958 94.7938 115.935 96.1246C116.958 97.9673 117.878 99.7076 118.798 101.448C126.877 117.315 125.855 122.229 125.65 122.946C124.832 123.048 119.923 122.843 106.424 111.173C95.5837 101.755 83.0048 88.242 71.1418 72.9887C59.2787 57.7354 49.052 42.2774 42.5069 29.481C34.4277 13.6134 35.4504 8.69963 35.6549 7.98303C36.4731 7.88066 41.3819 8.0854 54.8812 19.7557C56.313 20.9842 57.847 22.4174 59.381 23.8506C61.9377 22.315 64.6989 21.2913 67.5624 20.6771C64.4944 17.7083 61.4263 14.9443 58.5629 12.4874C45.0636 1.12416 35.9617 -2.45883 30.6438 1.63601C27.5758 3.99055 26.7577 8.29014 28.0872 14.6372C29.1098 19.1415 31.1552 24.6695 34.4277 31.3237C41.0751 44.939 51.9155 61.4208 64.6989 77.9025C77.5846 94.2819 90.9816 108.716 102.538 118.544C116.037 129.907 125.241 133.388 130.457 129.293Z" fill="url(#paint9_radial_1_3218)"/>
<path d="M56.9263 17.0941C43.427 5.42377 38.5182 5.21903 37.7 5.3214C37.5978 5.62851 37.3932 6.44748 37.5978 8.29016C40.1545 9.10913 45.4724 11.6684 54.7787 19.7557C56.2104 20.9842 57.7445 22.4174 59.2785 23.8506C61.8352 22.315 64.5964 21.2913 67.4599 20.6771C66.9485 20.1652 66.3349 19.6534 65.8236 19.1415C64.2896 19.7557 62.7556 20.37 61.3238 21.1889C59.8921 19.7557 58.3581 18.4249 56.9263 17.0941Z" fill="url(#paint10_radial_1_3218)"/>
<path d="M115.833 96.227C116.855 98.0697 117.776 99.81 118.696 101.55C123.707 111.48 125.241 117.111 125.65 120.079C126.775 120.387 127.389 120.387 127.696 120.387C128.002 119.568 128.923 114.756 120.844 98.8886C119.923 97.1483 119.003 95.408 117.98 93.5653C119.003 92.1321 119.923 90.6989 120.741 89.2657C120.844 89.1634 120.844 89.061 120.946 89.061C120.844 88.8563 120.741 88.6515 120.639 88.4468C120.128 89.6752 119.412 90.8013 118.696 91.9274C117.878 93.3606 116.855 94.7938 115.833 96.227Z" fill="url(#paint11_radial_1_3218)"/>
<path d="M132.502 126.631C127.287 130.726 118.083 127.245 104.583 115.78C93.027 106.055 79.5277 91.6203 66.7443 75.1385C53.8586 58.7591 43.1205 42.175 36.4732 28.5596C33.2006 21.9055 31.053 16.3775 30.1326 11.8731C29.2122 7.47118 29.3144 4.09293 30.5416 1.53365C27.5759 3.88819 26.6555 8.18778 28.0872 14.4324C29.1099 18.9368 31.1552 24.4648 34.4278 31.1189C41.0752 44.7343 51.9155 61.2161 64.699 77.6978C77.5847 94.0772 90.9817 108.512 102.538 118.339C116.037 129.702 125.139 133.285 130.457 129.19C131.377 128.576 132.093 127.655 132.502 126.631C132.605 126.631 132.605 126.631 132.502 126.631Z" fill="url(#paint12_radial_1_3218)"/>
<defs>
<radialGradient id="paint0_radial_1_3218" cx="0" cy="0" r="1" gradientUnits="userSpaceOnUse" gradientTransform="translate(94.742 33.0243) rotate(32.8329) scale(94.0407 94.08)">
<stop offset="0.0814815" stop-color="#FFE245"/>
<stop offset="0.9963" stop-color="#E38427"/>
</radialGradient>
<radialGradient id="paint1_radial_1_3218" cx="0" cy="0" r="1" gradientUnits="userSpaceOnUse" gradientTransform="translate(77.9619 65.1059) rotate(32.8329) scale(82.4968 82.5313)">
<stop offset="0.0814815" stop-color="#DFAB45"/>
<stop offset="0.8481" stop-color="#DFAB45" stop-opacity="0"/>
</radialGradient>
<radialGradient id="paint2_radial_1_3218" cx="0" cy="0" r="1" gradientUnits="userSpaceOnUse" gradientTransform="translate(90.4074 40.3182) rotate(32.8329) scale(87.3288 87.3654)">
<stop offset="0.0037037" stop-color="#E38427"/>
<stop offset="0.9185" stop-color="#FFE245"/>
</radialGradient>
<radialGradient id="paint3_radial_1_3218" cx="0" cy="0" r="1" gradientUnits="userSpaceOnUse" gradientTransform="translate(106.071 55.9033) rotate(77.8132) scale(87.3857 87.3051)">
<stop offset="0.0037037" stop-color="#E38427"/>
<stop offset="0.9185" stop-color="#FFE245"/>
</radialGradient>
<radialGradient id="paint4_radial_1_3218" cx="0" cy="0" r="1" gradientUnits="userSpaceOnUse" gradientTransform="translate(80.5255 65.4859) rotate(32.8329) scale(59.4599 59.4847)">
<stop offset="0.0814815" stop-color="#FFE245"/>
<stop offset="0.9963" stop-color="#E38427"/>
</radialGradient>
<radialGradient id="paint5_radial_1_3218" cx="0" cy="0" r="1" gradientUnits="userSpaceOnUse" gradientTransform="translate(80.5255 65.4859) rotate(32.8329) scale(59.4599 59.4847)">
<stop offset="0.0814815" stop-color="#DFAB45"/>
<stop offset="1" stop-color="#E64A24"/>
</radialGradient>
<radialGradient id="paint6_radial_1_3218" cx="0" cy="0" r="1" gradientUnits="userSpaceOnUse" gradientTransform="translate(137.596 64.3171) rotate(32.8329) scale(11.9978 12.0029)">
<stop offset="0.0814815" stop-color="#DFAB45"/>
<stop offset="1" stop-color="#E64A24"/>
</radialGradient>
<radialGradient id="paint7_radial_1_3218" cx="0" cy="0" r="1" gradientUnits="userSpaceOnUse" gradientTransform="translate(79.767 66.9537) rotate(32.8329) scale(58.8099 58.8345)">
<stop offset="0.0814815" stop-color="#DFAB45"/>
<stop offset="1" stop-color="#E64A24"/>
</radialGradient>
<radialGradient id="paint8_radial_1_3218" cx="0" cy="0" r="1" gradientUnits="userSpaceOnUse" gradientTransform="translate(24.331 48.6952) rotate(32.8329) scale(12.1676 12.1727)">
<stop offset="0.0814815" stop-color="#DFAB45"/>
<stop offset="1" stop-color="#E64A24"/>
</radialGradient>
<radialGradient id="paint9_radial_1_3218" cx="0" cy="0" r="1" gradientUnits="userSpaceOnUse" gradientTransform="translate(80.5252 65.4861) rotate(32.8329) scale(59.3365 59.3613)">
<stop offset="0.0814815" stop-color="#FFE245"/>
<stop offset="0.9963" stop-color="#E38427"/>
</radialGradient>
<radialGradient id="paint10_radial_1_3218" cx="0" cy="0" r="1" gradientUnits="userSpaceOnUse" gradientTransform="translate(51.6618 14.4214) rotate(32.8329) scale(12.1164 12.1215)">
<stop offset="0.0814815" stop-color="#DFAB45"/>
<stop offset="1" stop-color="#E64A24"/>
</radialGradient>
<radialGradient id="paint11_radial_1_3218" cx="0" cy="0" r="1" gradientUnits="userSpaceOnUse" gradientTransform="translate(123.872 104.714) rotate(32.833) scale(11.7752 11.7802)">
<stop offset="0.0814815" stop-color="#DFAB45"/>
<stop offset="1" stop-color="#E64A24"/>
</radialGradient>
<radialGradient id="paint12_radial_1_3218" cx="0" cy="0" r="1" gradientUnits="userSpaceOnUse" gradientTransform="translate(78.6272 68.4241) rotate(32.8329) scale(58.3889 58.4133)">
<stop offset="0.0814815" stop-color="#DFAB45"/>
<stop offset="1" stop-color="#E64A24"/>
</radialGradient>
</defs>
</svg>
