<svg width="83" height="89" viewBox="0 0 83 89" fill="none" xmlns="http://www.w3.org/2000/svg">
<path d="M53.8574 78.3385C72.026 78.3385 86.7545 63.595 86.7545 45.408C86.7545 27.2211 72.026 12.4776 53.8574 12.4776C35.6889 12.4776 20.9603 27.2211 20.9603 45.408C20.9603 63.595 35.6889 78.3385 53.8574 78.3385Z" fill="url(#paint0_radial_1_351)"/>
<path d="M53.8574 84.4393C75.3919 84.4393 92.8491 66.9644 92.8491 45.408C92.8491 23.8517 75.3919 6.3768 53.8574 6.3768C32.3229 6.3768 14.8657 23.8517 14.8657 45.408C14.8657 66.9644 32.3229 84.4393 53.8574 84.4393Z" fill="url(#paint1_radial_1_351)"/>
<path d="M84.6768 33.8997C83.915 37.5741 82.5299 41.1791 80.3829 44.5068C71.1717 58.8575 52.0568 63.0172 37.7206 53.7273C29.8253 48.6664 25.0465 40.5551 23.8692 31.9586C17.2897 46.5866 22.207 64.1957 36.0584 73.1389C51.3642 82.9834 71.7258 78.6158 81.5603 63.2945C87.3779 54.1433 88.2089 43.2589 84.6768 33.8997Z" fill="url(#paint2_radial_1_351)"/>
<path d="M83.7765 59.1348C80.6599 61.2147 77.1278 62.7398 73.2494 63.5718C56.5585 67.1768 40.1446 56.5697 36.5432 39.8619C34.5348 30.7107 36.8895 21.5595 42.153 14.6267C27.1935 20.3116 18.1901 36.2568 21.7222 52.3408C25.5314 70.0885 43.0534 81.3889 60.8524 77.5759C71.3103 75.3574 79.6211 68.2167 83.7765 59.1348Z" fill="url(#paint3_radial_1_351)"/>
<path d="M60.8662 32.0618C62.213 29.97 61.6107 27.1814 59.5211 25.8332C57.4314 24.485 54.6456 25.0879 53.2988 27.1797C51.952 29.2715 52.5542 32.0601 54.6439 33.4082C56.7336 34.7564 59.5194 34.1536 60.8662 32.0618Z" fill="#E3AD27"/>
<path d="M52.8186 41.7337C52.8186 41.803 52.8186 41.8724 52.8879 41.8724C53.1649 42.7736 53.8575 43.5362 54.8963 43.5362C55.8659 43.5362 56.697 42.9816 57.0433 42.011C57.1126 41.8724 57.1125 41.6644 57.1125 41.4564C57.1818 40.6245 56.6277 39.7925 55.8659 39.4459C55.1733 39.0993 54.1345 39.1686 53.5804 39.7925C53.5112 39.8619 53.5112 39.9312 53.4419 39.9312C52.9571 40.4858 52.6801 41.1098 52.8186 41.7337Z" fill="#E3AD27"/>
<path d="M63.8304 39.6539C63.7612 39.6539 63.6919 39.6539 63.6227 39.5846C62.9993 39.4459 62.3068 39.5846 61.9605 40.2085C61.6142 40.7631 61.6835 41.4564 62.099 42.011C62.1683 42.0803 62.1683 42.0803 62.2375 42.1497C62.8608 42.9123 64.1767 42.7736 64.6615 41.9417C65.1463 41.1098 64.8 39.8619 63.8304 39.6539Z" fill="#E3AD27"/>
<path d="M70.6176 32.5825C73.7342 34.593 76.7815 29.7401 73.7342 27.7989C70.6176 25.7884 67.501 30.572 70.6176 32.5825Z" fill="#E3AD27"/>
<path d="M72.9031 43.5362C73.9419 44.1602 74.9115 42.635 73.9419 41.9417C72.9031 41.2484 71.8642 42.843 72.9031 43.5362Z" fill="#E3AD27"/>
<path d="M44.8541 37.7127C45.8237 38.3367 47.3473 38.1287 47.9706 37.0194C48.594 35.9795 48.3862 34.593 47.2781 33.8997C46.3085 33.2758 44.7848 33.4838 44.1615 34.593C43.5382 35.6329 43.746 37.0194 44.8541 37.7127Z" fill="#E3AD27"/>
<path d="M46.3084 22.5994C47.9706 23.7086 49.702 21.0742 47.9706 19.965C46.3084 18.8557 44.577 21.4902 46.3084 22.5994Z" fill="#E3AD27"/>
<path d="M40.0061 27.175C39.9368 27.175 39.8676 27.175 39.7291 27.175C38.6902 27.0363 37.8591 28.3535 38.4132 29.2548C38.4824 29.3241 38.4824 29.3934 38.5517 29.4628C39.175 30.4334 40.5601 30.6413 41.2527 29.6014C41.876 28.5615 41.1142 27.3136 40.0061 27.175Z" fill="#E3AD27"/>
<path d="M59.8136 21.4208C60.4369 21.8368 61.1987 21.9754 61.9605 21.8368C62.6531 21.6981 63.4149 21.2128 63.7612 20.5889C64.523 19.2717 64.246 17.5385 62.9301 16.7066C62.3068 16.2906 61.545 16.1519 60.7832 16.2906C60.0906 16.4293 59.3288 16.9145 58.9825 17.5385C58.2207 18.8557 58.4977 20.5889 59.8136 21.4208Z" fill="#E3AD27"/>
<path d="M59.7443 52.6181C61.0602 53.45 62.376 51.4395 61.0602 50.6076C59.7443 49.7757 58.4284 51.7862 59.7443 52.6181Z" fill="#E3AD27"/>
<path d="M65.4927 50.6769C66.6701 51.4395 67.9167 49.5677 66.6701 48.8051C65.4927 48.0425 64.3153 49.9143 65.4927 50.6769Z" fill="#E3AD27"/>
<path d="M65.3541 34.801C66.6008 35.6329 67.9166 33.6224 66.6008 32.8598C65.3541 32.0279 64.1075 33.9691 65.3541 34.801Z" fill="#E3AD27"/>
<path d="M62.3761 27.1057C63.4842 27.7989 64.5231 26.1351 63.4842 25.4418C62.3761 24.7485 61.268 26.4124 62.3761 27.1057Z" fill="#E3AD27"/>
<path d="M28.7865 47.1412C29.8253 47.8345 31.349 47.5572 32.0415 46.448C32.6649 45.3387 32.4571 43.9522 31.349 43.1896C30.3101 42.4963 28.7865 42.7736 28.0939 43.8829C27.4013 44.9921 27.6784 46.448 28.7865 47.1412Z" fill="#E3AD27"/>
<path d="M36.4047 62.1159C36.751 62.3239 37.0972 61.7693 36.751 61.5613C36.4047 61.3533 36.0584 61.8386 36.4047 62.1159Z" fill="#E3AD27"/>
<path d="M42.8456 61.7693C44.1615 62.6012 45.4774 60.5907 44.1615 59.7588C42.8456 58.9269 41.5297 60.9374 42.8456 61.7693Z" fill="#E3AD27"/>
<path d="M43.3303 70.5739C45.6851 72.0991 48.1091 68.4247 45.7543 66.8302C43.3996 65.305 40.9756 69.0487 43.3303 70.5739Z" fill="#E3AD27"/>
<path d="M33.4266 60.7294C33.4266 60.6601 33.4266 60.5907 33.4266 60.5907C33.5651 59.6895 32.3877 58.9269 31.6259 59.4122C31.5567 59.4122 31.5567 59.4815 31.4874 59.4815C31.0719 59.7588 30.7948 60.1054 30.7256 60.5907C30.7256 61.076 30.9334 61.492 31.3489 61.7693C31.7644 62.0466 32.2492 62.0466 32.6648 61.8386C33.1496 61.6306 33.3573 61.2147 33.4266 60.7294Z" fill="#E3AD27"/>
<path d="M65.6311 62.8092C66.3237 63.2945 67.4318 63.0865 67.8474 62.3239C68.2629 61.5613 68.1244 60.5907 67.3626 60.1054C66.67 59.6201 65.5619 59.8281 65.1464 60.5907C64.7308 61.284 64.8693 62.3239 65.6311 62.8092Z" fill="#E3AD27"/>
<path d="M70.6177 65.1663C70.6869 65.2356 70.7562 65.1663 70.6177 65.1663C70.6177 65.097 70.6177 65.1663 70.6177 65.1663Z" fill="#E3AD27"/>
<path d="M76.6431 48.8744C77.8204 49.637 79.0671 47.7652 77.8204 47.0026C76.6431 46.24 75.4657 48.1118 76.6431 48.8744Z" fill="#E3AD27"/>
<path d="M73.1802 66.6915C74.9809 67.8701 76.7816 65.097 74.9809 63.9184C73.1802 62.7399 71.3795 65.513 73.1802 66.6915Z" fill="#E3AD27"/>
<path d="M66.2544 49.2904C62.1682 55.6685 63.9689 64.1264 70.3406 68.2861C71.9335 69.326 73.7342 69.9499 75.4656 70.2966C77.7511 68.2861 79.8288 65.9983 81.491 63.2945C84.8846 58.0256 86.5467 52.2021 86.7545 46.3786C86.2697 45.9627 85.7156 45.5467 85.1616 45.2001C78.7899 41.0404 70.3406 42.9123 66.2544 49.2904Z" fill="#E3AD27"/>
<path d="M84.3306 32.9985C83.0147 29.6708 81.0755 26.551 78.6515 23.778C78.236 24.1246 77.8204 24.5406 77.4741 25.0952C75.812 27.6603 76.5738 30.988 79.067 32.6518C80.7292 33.6224 82.6684 33.6918 84.3306 32.9985Z" fill="#E3AD27"/>
<path d="M36.0584 73.0697C37.3743 73.9016 38.7594 74.6642 40.2138 75.3574C41.5297 74.4562 42.6378 73.2776 43.5382 71.8911C47.3473 65.9983 45.6159 58.095 39.729 54.282C34.2577 50.7463 27.055 51.9942 23.0381 56.9164C25.3928 63.3638 29.8253 69.0487 36.0584 73.0697Z" fill="#E3AD27"/>
<path d="M23.7999 32.0279C22.4841 34.9396 21.653 37.99 21.2374 41.0404C22.6918 40.9018 24.1462 40.0699 24.9773 38.7526C26.4317 36.5342 25.8776 33.5531 23.7999 32.0279Z" fill="#E3AD27"/>
<path d="M58.0128 74.2482C55.104 72.3764 51.2256 73.2083 49.3557 76.12C49.0094 76.6746 48.7324 77.2986 48.5939 77.9225C52.6108 78.5465 56.6969 78.4772 60.5753 77.6452C60.2291 76.2587 59.3287 75.0801 58.0128 74.2482Z" fill="#E3AD27"/>
<path d="M62.4035 67.1898C63.9163 64.8405 63.2402 61.7085 60.8933 60.1941C58.5465 58.6797 55.4176 59.3565 53.9047 61.7058C52.3919 64.055 53.068 67.1871 55.4149 68.7015C57.7618 70.2158 60.8907 69.539 62.4035 67.1898Z" fill="#E3AD27"/>
<path d="M108.986 50.9542C109.54 46.448 104.277 42.427 92.9184 38.5447C90.3559 37.7127 87.5856 36.8808 84.6076 36.0489C84.9539 36.8808 85.1617 37.7821 85.3694 38.614C85.7157 39.7232 85.9235 40.8325 86.1313 42.011C87.4471 42.427 88.763 42.7736 90.0096 43.1896C101.506 46.9333 103.307 49.7063 103.584 50.261C103.238 50.6769 100.744 52.9647 88.6938 53.866C78.9978 54.5592 66.5315 54.074 53.5112 52.4794C40.4909 50.8849 28.2324 48.3891 19.0212 45.3387C7.52453 41.5951 5.72385 38.822 5.44682 38.2673C5.79311 37.8514 8.28636 35.5636 20.3371 34.6623C21.653 34.593 23.0381 34.5237 24.4232 34.4543C24.908 32.5132 25.7391 30.6413 26.8472 28.9775C23.9384 29.0468 21.1682 29.1855 18.6057 29.3935C6.69345 30.4334 0.598834 33.0678 0.0447783 37.5741C-0.301507 40.2085 1.36066 42.635 5.03128 44.9921C7.66305 46.6559 11.3337 48.3198 16.0431 49.9143C25.7391 53.242 38.8287 55.9458 52.8186 57.679C66.8085 59.4122 80.1751 59.8281 90.3559 58.9962C102.337 58.1643 108.432 55.4605 108.986 50.9542Z" fill="url(#paint4_radial_1_351)"/>
<path d="M108.986 50.9542C109.54 46.448 104.277 42.427 92.9184 38.5447C90.3559 37.7127 87.5856 36.8808 84.6076 36.0489C84.9539 36.8808 85.1617 37.7821 85.3694 38.614C85.7157 39.7232 85.9235 40.8325 86.1313 42.011C87.4471 42.427 88.763 42.7736 90.0096 43.1896C101.506 46.9333 103.307 49.7063 103.584 50.261C103.238 50.6769 100.744 52.9647 88.6938 53.866C78.9978 54.5592 66.5315 54.074 53.5112 52.4794C40.4909 50.8849 28.2324 48.3891 19.0212 45.3387C7.52453 41.5951 5.72385 38.822 5.44682 38.2673C5.79311 37.8514 8.28636 35.5636 20.3371 34.6623C21.653 34.593 23.0381 34.5237 24.4232 34.4543C24.908 32.5132 25.7391 30.6413 26.8472 28.9775C23.9384 29.0468 21.1682 29.1855 18.6057 29.3935C6.69345 30.4334 0.598834 33.0678 0.0447783 37.5741C-0.301507 40.2085 1.36066 42.635 5.03128 44.9921C7.66305 46.6559 11.3337 48.3198 16.0431 49.9143C25.7391 53.242 38.8287 55.9458 52.8186 57.679C66.8085 59.4122 80.1751 59.8281 90.3559 58.9962C102.337 58.1643 108.432 55.4605 108.986 50.9542Z" fill="url(#paint5_radial_1_351)"/>
<path d="M108.986 50.9542C109.055 50.3996 109.055 49.845 108.917 49.3597C107.739 53.3807 101.714 55.7378 90.5637 56.7084C80.383 57.6097 67.0163 57.1244 53.0264 55.3912C39.0365 53.658 25.9469 50.9542 16.251 47.6265C11.5415 46.032 7.87086 44.3682 5.23909 42.7043C2.3303 40.8325 0.668125 38.8913 0.32184 36.8808C0.252583 37.1581 0.183328 37.4354 0.183328 37.7127C-0.162957 40.3472 1.49921 42.7736 5.16983 45.1308C7.8016 46.7946 11.4722 48.4585 16.1817 50.053C25.8777 53.3807 38.9673 56.0845 52.9572 57.8176C66.9471 59.5508 80.3137 59.9668 90.4945 59.1349C102.337 58.1643 108.432 55.4605 108.986 50.9542Z" fill="url(#paint6_radial_1_351)"/>
<path d="M24.5619 32.1666C23.1767 32.2359 21.7916 32.3052 20.4757 32.3745C8.42499 33.2758 6.00099 35.4943 5.58545 35.9796C5.65471 36.1875 6.00099 36.6728 6.97059 37.4354C8.77127 36.6035 12.5111 35.4249 20.3372 34.8703C21.6531 34.801 23.0382 34.7317 24.4234 34.6623C24.9082 32.7212 25.7392 30.8493 26.8474 29.1855C26.4318 29.1855 26.0163 29.1855 25.6007 29.1855C25.1852 30.0867 24.8389 31.1266 24.5619 32.1666Z" fill="url(#paint7_radial_1_351)"/>
<path d="M88.3475 87.559C91.8796 84.7859 91.0485 78.1999 85.785 67.4541C84.6076 65.0277 83.2225 62.4626 81.6988 59.8281C81.3525 60.6601 80.8677 61.4226 80.3829 62.1852C79.8289 63.2252 79.2056 64.1957 78.513 65.097C79.2056 66.3449 79.8289 67.5235 80.4522 68.702C85.9235 79.4477 85.2309 82.7755 85.0924 83.2607C84.5383 83.3301 81.214 83.1914 72.0721 75.2881C64.7308 68.91 56.2122 59.7588 48.1784 49.429C40.1446 39.0993 33.2189 28.6309 28.7865 19.9649C23.3151 9.21922 24.0077 5.89151 24.1462 5.40622C24.7003 5.33689 28.0246 5.47554 37.1665 13.3789C38.1361 14.2108 39.175 15.1814 40.2139 16.1519C41.9453 15.112 43.8152 14.4188 45.7544 14.0028C43.6767 11.9923 41.599 10.1205 39.6598 8.45662C30.5179 0.76129 24.354 -1.66517 20.7526 1.10792C18.6749 2.70245 18.1209 5.6142 19.0212 9.91249C19.7138 12.9629 21.0989 16.7066 23.3151 21.2128C27.8169 30.4334 35.1581 41.5951 43.8152 52.7567C52.5416 63.8491 61.6143 73.6243 69.4403 80.2797C78.5822 87.975 84.8154 90.3321 88.3475 87.559Z" fill="url(#paint8_radial_1_351)"/>
<path d="M38.5517 11.5764C29.4097 3.67307 26.0854 3.53441 25.5314 3.60374C25.4621 3.81172 25.3236 4.36634 25.4621 5.61423C27.1935 6.16885 30.7949 7.90203 37.0973 13.3789C38.0669 14.2108 39.1057 15.1814 40.1446 16.152C41.876 15.1121 43.746 14.4188 45.6851 14.0028C45.3389 13.6562 44.9233 13.3096 44.577 12.9629C43.5382 13.3789 42.4993 13.7948 41.5297 14.3495C40.5601 13.3789 39.5213 12.4776 38.5517 11.5764Z" fill="url(#paint9_radial_1_351)"/>
<path d="M78.4437 65.1663C79.1363 66.4142 79.7596 67.5928 80.3829 68.7713C83.7765 75.4961 84.8154 79.3091 85.0924 81.3196C85.8542 81.5276 86.2698 81.5276 86.4775 81.5276C86.6853 80.973 87.3086 77.7146 81.8373 66.9688C81.214 65.7903 80.5907 64.6117 79.8981 63.3638C80.5907 62.3932 81.214 61.4227 81.7681 60.4521C81.8373 60.3827 81.8373 60.3134 81.9066 60.3134C81.8373 60.1748 81.7681 60.0361 81.6988 59.8975C81.3525 60.7294 80.8677 61.492 80.3829 62.2546C79.8289 63.2252 79.1363 64.1957 78.4437 65.1663Z" fill="url(#paint10_radial_1_351)"/>
<path d="M89.7326 85.7565C86.2005 88.5296 79.9674 86.1725 70.8254 78.4079C62.9994 71.8218 53.8575 62.0466 45.2003 50.8849C36.474 39.7926 29.202 28.5615 24.7003 19.341C22.484 14.8347 21.0296 11.0911 20.4063 8.04068C19.783 5.0596 19.8523 2.7718 20.6834 1.03862C18.6749 2.63315 18.0516 5.54489 19.0212 9.77386C19.7138 12.8243 21.0989 16.5679 23.3151 21.0742C27.8168 30.2947 35.1581 41.4564 43.8152 52.6181C52.5416 63.7105 61.6143 73.4856 69.4403 80.141C78.5822 87.8364 84.7461 90.2628 88.3475 87.4897C88.9708 87.0738 89.4556 86.4498 89.7326 85.7565C89.8019 85.7565 89.8019 85.7565 89.7326 85.7565Z" fill="url(#paint11_radial_1_351)"/>
<defs>
<radialGradient id="paint0_radial_1_351" cx="0" cy="0" r="1" gradientUnits="userSpaceOnUse" gradientTransform="translate(64.1605 22.3645) rotate(32.8329) scale(63.6857 63.7123)">
<stop offset="0.0814815" stop-color="#FFE245"/>
<stop offset="0.9963" stop-color="#E38427"/>
</radialGradient>
<radialGradient id="paint1_radial_1_351" cx="0" cy="0" r="1" gradientUnits="userSpaceOnUse" gradientTransform="translate(52.7969 44.0907) rotate(32.8329) scale(55.8681 55.8914)">
<stop offset="0.0814815" stop-color="#DFAB45"/>
<stop offset="0.8481" stop-color="#DFAB45" stop-opacity="0"/>
</radialGradient>
<radialGradient id="paint2_radial_1_351" cx="0" cy="0" r="1" gradientUnits="userSpaceOnUse" gradientTransform="translate(61.2253 27.3041) rotate(32.8329) scale(59.1404 59.1651)">
<stop offset="0.0037037" stop-color="#E38427"/>
<stop offset="0.9185" stop-color="#FFE245"/>
</radialGradient>
<radialGradient id="paint3_radial_1_351" cx="0" cy="0" r="1" gradientUnits="userSpaceOnUse" gradientTransform="translate(71.8328 37.8585) rotate(77.8132) scale(59.1789 59.1243)">
<stop offset="0.0037037" stop-color="#E38427"/>
<stop offset="0.9185" stop-color="#FFE245"/>
</radialGradient>
<radialGradient id="paint4_radial_1_351" cx="0" cy="0" r="1" gradientUnits="userSpaceOnUse" gradientTransform="translate(54.5331 44.348) rotate(32.8329) scale(40.2671 40.2839)">
<stop offset="0.0814815" stop-color="#FFE245"/>
<stop offset="0.9963" stop-color="#E38427"/>
</radialGradient>
<radialGradient id="paint5_radial_1_351" cx="0" cy="0" r="1" gradientUnits="userSpaceOnUse" gradientTransform="translate(54.5331 44.348) rotate(32.8329) scale(40.2671 40.2839)">
<stop offset="0.0814815" stop-color="#DFAB45"/>
<stop offset="1" stop-color="#E64A24"/>
</radialGradient>
<radialGradient id="paint6_radial_1_351" cx="0" cy="0" r="1" gradientUnits="userSpaceOnUse" gradientTransform="translate(54.0191 45.342) rotate(32.8329) scale(39.8269 39.8436)">
<stop offset="0.0814815" stop-color="#DFAB45"/>
<stop offset="1" stop-color="#E64A24"/>
</radialGradient>
<radialGradient id="paint7_radial_1_351" cx="0" cy="0" r="1" gradientUnits="userSpaceOnUse" gradientTransform="translate(16.4771 32.9771) rotate(32.8329) scale(8.24011 8.24355)">
<stop offset="0.0814815" stop-color="#DFAB45"/>
<stop offset="1" stop-color="#E64A24"/>
</radialGradient>
<radialGradient id="paint8_radial_1_351" cx="0" cy="0" r="1" gradientUnits="userSpaceOnUse" gradientTransform="translate(54.533 44.3481) rotate(32.8329) scale(40.1836 40.2004)">
<stop offset="0.0814815" stop-color="#FFE245"/>
<stop offset="0.9963" stop-color="#E38427"/>
</radialGradient>
<radialGradient id="paint9_radial_1_351" cx="0" cy="0" r="1" gradientUnits="userSpaceOnUse" gradientTransform="translate(34.9865 9.76638) rotate(32.8329) scale(8.2054 8.20883)">
<stop offset="0.0814815" stop-color="#DFAB45"/>
<stop offset="1" stop-color="#E64A24"/>
</radialGradient>
<radialGradient id="paint10_radial_1_351" cx="0" cy="0" r="1" gradientUnits="userSpaceOnUse" gradientTransform="translate(83.8882 70.9138) rotate(32.833) scale(7.97436 7.9777)">
<stop offset="0.0814815" stop-color="#DFAB45"/>
<stop offset="1" stop-color="#E64A24"/>
</radialGradient>
<radialGradient id="paint11_radial_1_351" cx="0" cy="0" r="1" gradientUnits="userSpaceOnUse" gradientTransform="translate(53.2476 46.3378) rotate(32.8329) scale(39.5418 39.5584)">
<stop offset="0.0814815" stop-color="#DFAB45"/>
<stop offset="1" stop-color="#E64A24"/>
</radialGradient>
</defs>
</svg>
