<svg width="18" height="19" viewBox="0 0 18 19" fill="none" xmlns="http://www.w3.org/2000/svg">
<path opacity="0.5" d="M17.5125 7.40891L10.0126 0.404185C9.73607 0.14419 9.37488 0 9.0001 0C8.62533 0 8.26413 0.14419 7.98761 0.404185L0.487695 7.40891C0.334138 7.55329 0.211496 7.72893 0.127569 7.92467C0.0436421 8.12041 0.000266166 8.33195 0.00020003 8.54585V17.4198C-0.00589786 17.8085 0.127611 18.1858 0.375196 18.4796C0.515714 18.6439 0.688815 18.7753 0.88286 18.865C1.07691 18.9548 1.2874 19.0008 1.50018 18.9999H6.00013C6.19904 18.9999 6.38981 18.9187 6.53046 18.7742C6.67111 18.6296 6.75012 18.4336 6.75012 18.2291V13.6043C6.75012 13.3999 6.82914 13.2038 6.96979 13.0592C7.11044 12.9147 7.30121 12.8335 7.50012 12.8335H10.5001C10.699 12.8335 10.8898 12.9147 11.0304 13.0592C11.1711 13.2038 11.2501 13.3999 11.2501 13.6043V18.2291C11.2501 18.4336 11.3291 18.6296 11.4697 18.7742C11.6104 18.9187 11.8012 18.9999 12.0001 18.9999H16.5C16.7488 19.0022 16.994 18.9392 17.2125 18.8169C17.4502 18.6838 17.6488 18.4875 17.7873 18.2485C17.9259 18.0095 17.9993 17.7365 18 17.4583V8.54585C17.9999 8.33195 17.9566 8.12041 17.8726 7.92467C17.7887 7.72893 17.6661 7.55329 17.5125 7.40891Z" fill="#696969"/>
</svg>
