<svg width="23" height="24" viewBox="0 0 23 24" fill="none" xmlns="http://www.w3.org/2000/svg">
<path d="M11.375 15.9375C14.0329 15.9375 16.1875 13.7829 16.1875 11.125C16.1875 8.46713 14.0329 6.3125 11.375 6.3125C8.71713 6.3125 6.5625 8.46713 6.5625 11.125C6.5625 13.7829 8.71713 15.9375 11.375 15.9375Z" fill="url(#paint0_linear_1_2734)"/>
<path d="M11.375 0.625C9.12524 0.625 6.926 1.29213 5.05539 2.54203C3.18478 3.79193 1.72682 5.56847 0.865875 7.64698C0.00492861 9.72548 -0.220334 12.0126 0.218573 14.2192C0.657479 16.4257 1.74084 18.4525 3.33167 20.0433C4.92249 21.6342 6.94932 22.7175 9.15585 23.1564C11.3624 23.5953 13.6495 23.3701 15.728 22.5091C17.8065 21.6482 19.5831 20.1902 20.833 18.3196C22.0829 16.449 22.75 14.2498 22.75 12C22.7442 8.98494 21.5439 6.09502 19.412 3.96305C17.28 1.83107 14.3901 0.630782 11.375 0.625ZM18.5719 18.3875C17.8636 17.3715 16.9509 16.5146 15.8922 15.8719C14.6767 17.0364 13.0583 17.6865 11.375 17.6865C9.69166 17.6865 8.07335 17.0364 6.85782 15.8719C5.79914 16.5146 4.88642 17.3715 4.17813 18.3875C2.94632 17.0004 2.14162 15.2868 1.86087 13.4531C1.58011 11.6193 1.83527 9.74353 2.59564 8.0514C3.356 6.35927 4.58917 4.92293 6.14674 3.91524C7.7043 2.90755 9.51989 2.37144 11.375 2.37144C13.2301 2.37144 15.0457 2.90755 16.6033 3.91524C18.1608 4.92293 19.394 6.35927 20.1544 8.0514C20.9147 9.74353 21.1699 11.6193 20.8891 13.4531C20.6084 15.2868 19.8037 17.0004 18.5719 18.3875Z" fill="url(#paint1_linear_1_2734)"/>
<defs>
<linearGradient id="paint0_linear_1_2734" x1="11.375" y1="6.3125" x2="11.375" y2="15.9375" gradientUnits="userSpaceOnUse">
<stop stop-color="#7541ED"/>
<stop offset="1" stop-color="#D13AF7"/>
</linearGradient>
<linearGradient id="paint1_linear_1_2734" x1="11.375" y1="0.625" x2="11.375" y2="23.375" gradientUnits="userSpaceOnUse">
<stop stop-color="#7541ED"/>
<stop offset="1" stop-color="#D13AF7"/>
</linearGradient>
</defs>
</svg>
