<svg width="13" height="21" viewBox="0 0 13 21" fill="none" xmlns="http://www.w3.org/2000/svg">
<path opacity="0.5" d="M8.625 9.34375H7.1875V3.59375H7.90625C8.66802 3.59612 9.39791 3.89978 9.93656 4.43844C10.4752 4.97709 10.7789 5.70698 10.7812 6.46875C10.7812 6.65937 10.857 6.84219 10.9918 6.97698C11.1266 7.11177 11.3094 7.1875 11.5 7.1875C11.6906 7.1875 11.8734 7.11177 12.0082 6.97698C12.143 6.84219 12.2188 6.65937 12.2188 6.46875C12.2188 5.325 11.7644 4.2281 10.9556 3.41935C10.1469 2.6106 9.05 2.15625 7.90625 2.15625H7.1875V0.71875C7.1875 0.528126 7.11178 0.345309 6.97698 0.210517C6.84219 0.0757252 6.65937 0 6.46875 0C6.27813 0 6.09531 0.0757252 5.96052 0.210517C5.82573 0.345309 5.75 0.528126 5.75 0.71875V2.15625H4.67188C3.52813 2.15625 2.43123 2.6106 1.62248 3.41935C0.813726 4.2281 0.359375 5.325 0.359375 6.46875C0.359375 7.6125 0.813726 8.7094 1.62248 9.51815C2.43123 10.3269 3.52813 10.7812 4.67188 10.7812H5.75V16.5312H4.3125C3.55073 16.5289 2.82084 16.2252 2.28219 15.6866C1.74353 15.1479 1.43987 14.418 1.4375 13.6562C1.4375 13.4656 1.36177 13.2828 1.22698 13.148C1.09219 13.0132 0.909374 12.9375 0.71875 12.9375C0.528126 12.9375 0.345309 13.0132 0.210517 13.148C0.0757254 13.2828 0 13.4656 0 13.6562C0 14.8 0.454352 15.8969 1.2631 16.7056C2.07185 17.5144 3.16875 17.9688 4.3125 17.9688H5.75V19.4062C5.75 19.5969 5.82573 19.7797 5.96052 19.9145C6.09531 20.0493 6.27813 20.125 6.46875 20.125C6.65937 20.125 6.84219 20.0493 6.97698 19.9145C7.11178 19.7797 7.1875 19.5969 7.1875 19.4062V17.9688H8.625C9.76875 17.9688 10.8656 17.5144 11.6744 16.7056C12.4831 15.8969 12.9375 14.8 12.9375 13.6562C12.9375 12.5125 12.4831 11.4156 11.6744 10.6069C10.8656 9.7981 9.76875 9.34375 8.625 9.34375ZM5.75 9.34375H4.67188C3.90938 9.34375 3.17811 9.04085 2.63894 8.50168C2.09978 7.96251 1.79688 7.23125 1.79688 6.46875C1.79688 5.70625 2.09978 4.97499 2.63894 4.43582C3.17811 3.89665 3.90938 3.59375 4.67188 3.59375H5.75V9.34375ZM8.625 16.5312H7.1875V10.7812H8.625C9.3875 10.7812 10.1188 11.0842 10.6579 11.6233C11.1971 12.1625 11.5 12.8938 11.5 13.6562C11.5 14.4187 11.1971 15.15 10.6579 15.6892C10.1188 16.2283 9.3875 16.5312 8.625 16.5312Z" fill="#696969"/>
</svg>
