<svg width="46" height="45" viewBox="0 0 46 45" fill="none" xmlns="http://www.w3.org/2000/svg">
<path d="M29.18 42.4587C29.8846 42.2572 30.4886 41.9549 31.1932 41.7534C35.9242 39.7381 39.5479 36.1107 41.7624 31.8788C42.6684 32.0803 43.9769 30.9719 44.5809 29.3597C45.2855 27.6468 45.0842 25.9338 44.0776 25.5308C43.9769 25.5308 43.8763 25.5308 43.8763 25.43C44.4802 21.5003 44.0776 17.3691 42.3664 13.4394C42.2657 13.2379 42.2657 13.1371 42.1651 12.9356C42.9704 12.1295 42.467 9.91278 41.0578 7.79679C39.5479 5.58004 37.5347 4.16936 36.6288 4.87469C36.4275 4.97545 36.3268 5.177 36.2262 5.27776C30.1866 0.340449 21.7312 -1.17098 14.0811 2.15415C10.3567 3.76633 7.23629 6.38611 5.12244 9.50972C5.02178 9.50972 5.02178 9.40895 4.92112 9.40895C3.61255 8.90514 1.70002 10.5173 0.693428 13.0364C-0.313165 15.5554 -0.0111825 18.0744 1.39805 18.5782H1.49871C0.89475 22.5079 1.29739 26.6392 3.0086 30.4681C3.61255 31.9795 4.41782 33.2894 5.32376 34.5993C4.61914 35.3046 5.02178 37.0176 6.12903 38.529C7.33695 40.1412 9.04815 40.8465 9.85343 40.2419C10.0547 40.0404 10.2561 39.8389 10.2561 39.5366C14.3831 42.4587 19.4161 43.7686 24.5497 43.3656V43.4663C24.751 44.1717 25.8583 44.4739 27.1668 44.1716C28.4754 43.9701 29.3813 43.164 29.18 42.4587Z" fill="url(#paint0_radial_1_1007)"/>
<g opacity="0.48">
<path opacity="0.48" d="M40.7558 33.4909C40.6551 33.6925 40.4538 33.9947 40.3531 34.1963C40.4538 33.9947 40.6551 33.7932 40.7558 33.4909Z" fill="#D6893D"/>
<path opacity="0.48" d="M0.894653 12.5326C1.80059 11.3234 3.0085 10.8196 3.91443 11.1219C4.01509 11.1219 4.01509 11.2227 4.11575 11.2227C6.33025 8.09908 9.35004 5.47927 13.0744 3.86708C20.7245 0.541957 29.1799 2.05338 35.2195 6.99069C35.3201 6.78917 35.4208 6.68842 35.6221 6.58765C36.6287 5.98309 38.6419 7.29298 40.0511 9.50973C41.4604 11.6257 41.863 13.8425 41.1584 14.6486C41.259 14.8501 41.259 14.9509 41.3597 15.1524C43.0709 19.0821 43.4735 23.2133 42.8696 27.143C42.9703 27.143 43.0709 27.143 43.0709 27.2437C43.9768 27.6468 44.1782 29.3597 43.5742 31.0727V31.1734C43.9768 30.7704 44.3795 30.1658 44.6815 29.4605C45.3861 27.7476 45.1848 26.0346 44.1782 25.6316C44.0775 25.6316 43.9769 25.6315 43.9769 25.5308C44.5808 21.6011 44.1782 17.4699 42.467 13.5402C42.3663 13.3387 42.3663 13.2379 42.2656 13.0364C43.0709 12.2303 42.5676 10.0135 41.1584 7.89754C39.6485 5.68079 37.6353 4.27014 36.7294 4.97547C36.528 5.07623 36.4274 5.27774 36.3267 5.3785C30.2872 0.441196 21.8318 -1.0702 14.1817 2.25493C10.4573 3.86711 7.33685 6.48689 5.223 9.6105C5.12234 9.6105 5.12234 9.50973 5.02168 9.50973C3.61245 9.00592 1.90125 10.3158 0.894653 12.5326Z" fill="#D6893D"/>
</g>
<path d="M32.1476 4.65991C32.1939 3.71501 30.5659 2.86734 28.5114 2.76659C26.4569 2.66584 24.754 3.35016 24.7078 4.29506C24.6615 5.23996 26.2895 6.08762 28.3439 6.18838C30.3984 6.28913 32.1014 5.60481 32.1476 4.65991Z" fill="#D6893D"/>
<path d="M28.576 3.96781C30.0859 4.06858 31.3944 4.5724 31.9984 5.17697C32.0991 4.97545 32.1997 4.87469 32.1997 4.67316C32.1997 3.7663 30.5892 2.85945 28.4753 2.75868C26.3615 2.65792 24.6503 3.36326 24.6503 4.27012C24.6503 4.47164 24.7509 4.77391 24.9522 4.97544C25.4555 4.2701 26.8648 3.86705 28.576 3.96781Z" fill="#D6893D"/>
<path d="M20.9864 5.01372C22.3023 4.291 23.1089 3.23052 22.7881 2.64507C22.4672 2.05962 21.1403 2.17091 19.8243 2.89362C18.5084 3.61634 17.7018 4.67679 18.0226 5.26224C18.3435 5.84769 19.6704 5.73643 20.9864 5.01372Z" fill="#D6893D"/>
<path d="M20.322 3.56479C21.3286 3.06098 22.3352 2.85946 22.9392 3.06098C22.9392 2.96022 22.9392 2.7587 22.8385 2.65794C22.5365 2.05336 21.1273 2.15411 19.8187 2.85944C18.5102 3.56478 17.7049 4.67319 18.0069 5.27776C18.1075 5.47928 18.2082 5.58003 18.4095 5.58003C18.5102 4.97546 19.2148 4.16936 20.322 3.56479Z" fill="#D6893D"/>
<path d="M35.0372 34.6829C36.1962 33.7283 36.7923 32.5365 36.3685 32.0208C35.9446 31.5051 34.6614 31.8609 33.5024 32.8155C32.3433 33.77 31.7473 34.9619 32.1711 35.4776C32.5949 35.9932 33.8781 35.6375 35.0372 34.6829Z" fill="#D6893D"/>
<path d="M34.4144 34.1963C33.5084 34.9016 32.6025 35.3046 31.9985 35.2039C31.9985 35.3046 32.0992 35.5062 32.0992 35.6069C32.5018 36.1107 33.8104 35.8084 35.0183 34.8008C36.2262 33.7932 36.8302 32.5841 36.3269 32.0803C36.2262 31.9795 36.0249 31.8788 35.8236 31.8788C35.9243 32.4833 35.421 33.3902 34.4144 34.1963Z" fill="#D6893D"/>
<path d="M8.87618 32.3816C9.44329 32.0299 9.26225 30.7094 8.47182 29.4321C7.68139 28.1548 6.5809 27.4044 6.01379 27.7561C5.44668 28.1077 5.6277 29.4282 6.41812 30.7055C7.20855 31.9828 8.30907 32.7332 8.87618 32.3816Z" fill="#D6893D"/>
<path d="M7.03484 30.1658C6.43088 29.1582 6.22956 28.2513 6.33022 27.6468C6.22956 27.6468 6.02824 27.6468 5.92758 27.7475C5.32363 28.1506 5.52494 29.4605 6.33022 30.7704C7.13549 32.0803 8.24274 32.7856 8.8467 32.4833C8.94736 32.3826 9.04802 32.2818 9.14868 32.0803C8.54472 31.8787 7.73945 31.1734 7.03484 30.1658Z" fill="#D6893D"/>
<path d="M4.93561 14.4935C5.67071 12.6902 5.59898 10.9555 4.77541 10.6191C3.95184 10.2828 2.68831 11.472 1.95321 13.2754C1.21811 15.0788 1.28981 16.8134 2.11338 17.1498C2.93695 17.4862 4.20051 16.2969 4.93561 14.4935Z" fill="#D6893D"/>
<path d="M3.00852 13.641C3.51182 12.3311 4.41775 11.3234 5.12236 11.0212C5.0217 10.8196 4.92104 10.7189 4.71972 10.7189C3.91445 10.4166 2.70655 11.525 1.90127 13.3387C1.19666 15.1524 1.19666 16.8653 2.00193 17.1676C2.20325 17.2684 2.40456 17.2684 2.70654 17.1676C2.30391 16.4623 2.40457 15.0516 3.00852 13.641Z" fill="#D6893D"/>
<path d="M43.9341 29.1295C44.3389 27.9741 44.2416 26.8883 43.717 26.7041C43.1924 26.52 42.439 27.3073 42.0343 28.4626C41.6296 29.618 41.7268 30.7039 42.2514 30.888C42.7761 31.0722 43.5294 30.2848 43.9341 29.1295Z" fill="#D6893D"/>
<path d="M43.1716 29.0574C42.8696 29.9643 42.3663 30.5689 41.863 30.7704C41.9637 30.8712 42.0644 30.9719 42.165 30.9719C42.6683 31.1734 43.4736 30.3673 43.8762 29.1582C44.2789 27.9491 44.1782 26.8407 43.6749 26.6392C43.5743 26.6392 43.3729 26.6392 43.2723 26.6392C43.5742 27.143 43.5743 28.0498 43.1716 29.0574Z" fill="#D6893D"/>
<path d="M9.25569 39.162C9.64411 38.7639 9.24959 37.7476 8.37451 36.8922C7.49942 36.0368 6.47516 35.6662 6.08673 36.0644C5.6983 36.4625 6.09281 37.4787 6.96789 38.3341C7.84298 39.1895 8.86726 39.5602 9.25569 39.162Z" fill="#D6893D"/>
<path d="M7.33683 37.7229C6.63222 37.1183 6.22958 36.3123 6.33024 35.8084C6.22958 35.8084 6.12893 35.9092 6.02827 35.9092C5.62563 36.3123 6.02827 37.3199 6.9342 38.2267C7.84013 39.1336 8.84672 39.4359 9.24936 39.0328C9.35002 38.9321 9.35002 38.8313 9.45068 38.6298C8.84673 38.8313 8.04145 38.4282 7.33683 37.7229Z" fill="#D6893D"/>
<path d="M27.1139 43.5494C27.9526 43.2527 28.5274 42.7144 28.3977 42.3471C28.268 41.9798 27.483 41.9226 26.6443 42.2193C25.8056 42.5159 25.2309 43.0542 25.3605 43.4215C25.4902 43.7888 26.2752 43.8461 27.1139 43.5494Z" fill="#D6893D"/>
<path d="M26.9654 43.164C26.3614 43.3655 25.7575 43.3656 25.3549 43.2648C25.3549 43.3656 25.3549 43.4663 25.3549 43.4663C25.4555 43.8694 26.2608 43.9701 27.1667 43.6678C27.972 43.3655 28.5759 42.761 28.4753 42.4587C28.4753 42.3579 28.3746 42.2572 28.274 42.2572C28.0727 42.4587 27.5694 42.8617 26.9654 43.164Z" fill="#D6893D"/>
<path d="M41.1672 11.3646C41.7928 10.9011 41.4956 9.43758 40.5035 8.09566C39.5113 6.75374 38.1999 6.04162 37.5743 6.5051C36.9487 6.96858 37.2458 8.43214 38.238 9.77406C39.2302 11.116 40.5416 11.8281 41.1672 11.3646Z" fill="#D6893D"/>
<path d="M39.7493 8.70365C40.4539 9.71127 40.8565 10.8196 40.7559 11.4242C40.9572 11.4242 41.0579 11.4242 41.1585 11.3235C41.7625 10.8197 41.4605 9.40897 40.4539 7.9983C39.4473 6.6884 38.1387 5.8823 37.5348 6.38611C37.3335 6.48687 37.2328 6.68839 37.2328 6.88992C37.9374 6.88992 38.944 7.59527 39.7493 8.70365Z" fill="#D6893D"/>
<path d="M35.039 21.2563C36.7216 20.5246 37.4034 18.3592 36.5618 16.4196C35.7202 14.4801 33.6738 13.5008 31.9912 14.2325C30.3085 14.9641 29.6267 17.1295 30.4684 19.0691C31.31 21.0087 33.3563 21.9879 35.039 21.2563Z" fill="#D6893D"/>
<path d="M35.0183 17.2684C35.7229 18.8805 35.4209 20.5935 34.4143 21.6011C34.6156 21.6011 34.817 21.5003 35.0183 21.3996C36.7295 20.6942 37.3334 18.4775 36.5282 16.563C35.7229 14.6485 33.6091 13.6409 31.9985 14.3463C31.6965 14.447 31.3946 14.6485 31.1932 14.9508C32.6025 14.5478 34.3137 15.4546 35.0183 17.2684Z" fill="#D6893D"/>
<path d="M14.5579 15.5806C15.707 14.4486 15.8484 12.7271 14.8736 11.7355C13.8988 10.7438 12.1769 10.8575 11.0278 11.9894C9.8786 13.1214 9.73727 14.8429 10.7121 15.8345C11.6869 16.8262 13.4087 16.7125 14.5579 15.5806Z" fill="#D6893D"/>
<path d="M11.9672 12.7341C12.8732 11.8272 14.1817 11.5249 15.1883 12.0287C15.0877 11.928 14.987 11.7264 14.8863 11.6257C13.8798 10.6181 12.2692 10.8196 11.0613 11.928C9.95405 13.0363 9.75273 14.7493 10.7593 15.7569C10.9606 15.9584 11.162 16.0592 11.3633 16.16C10.7593 15.2531 10.9606 13.7417 11.9672 12.7341Z" fill="#D6893D"/>
<path d="M21.712 28.3283C22.3192 27.0769 21.5953 25.4712 20.0951 24.7418C18.595 24.0124 16.8866 24.4356 16.2794 25.687C15.6722 26.9384 16.3961 28.5441 17.8962 29.2735C19.3964 30.0029 21.1048 29.5797 21.712 28.3283Z" fill="#D6893D"/>
<path d="M18.3088 28.1505C17.1009 27.546 16.3963 26.4376 16.4969 25.3292C16.3963 25.43 16.2956 25.6315 16.1949 25.7323C15.591 26.9414 16.2956 28.5536 17.8055 29.3597C19.3154 30.065 20.9259 29.662 21.6305 28.3521C21.7312 28.1505 21.8319 27.8482 21.8319 27.546C21.1272 28.5536 19.6174 28.7551 18.3088 28.1505Z" fill="#D6893D"/>
<path d="M22.6957 33.6255C23.0115 32.9748 22.6594 32.1516 21.9093 31.7869C21.1592 31.4222 20.2952 31.6541 19.9794 32.3048C19.6637 32.9555 20.0158 33.7787 20.7659 34.1434C21.5159 34.5081 22.38 34.2762 22.6957 33.6255Z" fill="#D6893D"/>
<path d="M21.0266 33.491C20.4227 33.1887 20.1207 32.5841 20.1207 32.0803C20.1207 32.1811 20.02 32.1811 20.02 32.2818C19.718 32.8864 20.02 33.6925 20.8253 34.0955C21.5299 34.4986 22.4358 34.1963 22.7378 33.5917C22.8385 33.491 22.8385 33.3902 22.8385 33.1887C22.4358 33.6925 21.6306 33.894 21.0266 33.491Z" fill="#D6893D"/>
<g opacity="0.5">
<g opacity="0.5">
<path opacity="0.5" d="M38.944 12.331C39.0446 12.331 39.3466 12.6333 39.7492 12.8348C40.1519 13.0364 40.5545 13.1371 40.5545 13.1371C40.5545 13.1371 40.9572 13.2379 41.4604 13.2379C41.8631 13.2379 42.3664 13.0363 42.3664 13.1371C42.3664 13.2379 41.9637 13.5402 41.4604 13.6409C40.9572 13.7417 40.4539 13.6409 40.4539 13.6409C40.4539 13.6409 39.9506 13.5402 39.5479 13.1371C39.1453 12.8348 38.944 12.4318 38.944 12.331Z" fill="#C4751D"/>
</g>
<g opacity="0.5">
<path opacity="0.5" d="M36.0248 8.80438C35.9242 8.80438 35.7228 8.50209 35.5215 8.19981C35.3202 7.79677 35.2196 7.49447 35.2196 7.49447C35.2196 7.49447 35.1189 7.09144 35.1189 6.6884C35.1189 6.28536 35.2196 5.88229 35.2196 5.88229C35.3202 5.88229 35.3202 6.28535 35.4209 6.58763C35.5215 6.99067 35.6222 7.29297 35.6222 7.29297C35.6222 7.29297 35.7228 7.69599 35.7228 7.99828C35.9242 8.40132 36.0248 8.70362 36.0248 8.80438Z" fill="#C4751D"/>
</g>
<g opacity="0.5">
<path opacity="0.5" d="M28.5761 17.3691C28.4755 17.3691 28.1735 16.563 28.2742 15.7569C28.2742 15.3538 28.3748 14.9508 28.5761 14.6485C28.6768 14.3462 28.7775 14.1447 28.7775 14.1447C28.7775 14.1447 28.8781 13.9432 29.0794 13.7417C29.2808 13.5402 29.6834 13.2379 29.9854 13.0363C30.7906 12.6333 31.5959 12.6333 31.5959 12.6333C31.5959 12.7341 30.7906 12.8348 30.1867 13.3386C29.8847 13.5402 29.5827 13.8424 29.3814 14.0439C29.1801 14.2455 29.0794 14.447 29.0794 14.447C29.0794 14.447 28.9788 14.5478 28.8781 14.8501C28.7775 15.0516 28.5761 15.4546 28.5761 15.8577C28.4755 16.563 28.5761 17.2683 28.5761 17.3691Z" fill="#C4751D"/>
</g>
<g opacity="0.5">
<path opacity="0.5" d="M35.4209 23.2133C35.4209 23.1125 35.7229 23.0117 35.9242 22.8102C36.1255 22.6087 36.3268 22.4072 36.3268 22.4072C36.3268 22.4072 36.5281 22.3064 36.8301 22.1049C37.0314 21.9033 37.2328 21.7018 37.3334 21.7018C37.4341 21.7018 37.3334 22.0041 37.1321 22.3064C36.9308 22.6087 36.7295 22.8102 36.7295 22.8102C36.7295 22.8102 36.4275 23.0117 36.1255 23.1125C35.7229 23.314 35.4209 23.314 35.4209 23.2133Z" fill="#C4751D"/>
</g>
<g opacity="0.5">
<path opacity="0.5" d="M19.4162 7.89753C19.5168 7.99829 19.1142 8.3006 18.5102 8.3006C18.2083 8.3006 18.0069 8.30059 17.8056 8.19983C17.6043 8.09907 17.5036 7.9983 17.5036 7.9983C17.5036 7.9983 17.403 7.89755 17.3023 7.79679C17.2016 7.59527 17.101 7.39374 17.0003 7.19222C16.8997 6.68841 17.101 6.1846 17.2017 6.1846C17.3023 6.1846 17.2016 6.6884 17.403 6.99068C17.5036 7.1922 17.6043 7.29296 17.7049 7.39372C17.8056 7.49448 17.9063 7.49449 17.9063 7.49449C17.9063 7.49449 18.0069 7.59526 18.1076 7.59526C18.2082 7.69602 18.4096 7.69603 18.6109 7.79679C19.0135 7.99831 19.4162 7.79677 19.4162 7.89753Z" fill="#C4751D"/>
</g>
<g opacity="0.5">
<path opacity="0.5" d="M25.1537 6.78915C25.1537 6.68839 25.959 6.99067 26.8649 7.19219C27.2675 7.29295 27.6702 7.3937 27.9721 7.3937C28.2741 7.3937 28.4754 7.49447 28.4754 7.49447C28.4754 7.49447 28.6768 7.49447 28.9787 7.59523C29.2807 7.59523 29.6834 7.59523 30.086 7.49447C30.4886 7.3937 30.8913 7.29295 31.1932 7.19219C31.4952 7.09143 31.6965 6.99066 31.6965 6.99066C31.6965 6.99066 31.5959 7.19217 31.2939 7.3937C30.9919 7.59522 30.5893 7.79675 30.1866 7.89751C29.784 7.99827 29.2807 8.09905 28.9787 8.09905C28.6768 8.09905 28.3748 8.09905 28.3748 8.09905C28.3748 8.09905 28.1735 8.09904 27.8715 7.99828C27.5695 7.89752 27.1669 7.79676 26.7642 7.59523C25.8583 7.19219 25.1537 6.78915 25.1537 6.78915Z" fill="#C4751D"/>
</g>
<g opacity="0.5">
<path opacity="0.5" d="M17.2015 12.734C17.1009 12.734 17.1009 12.2302 17.0002 11.8272C16.7989 11.4241 16.5976 11.0211 16.5976 11.0211C16.5976 11.0211 16.3963 10.6181 15.9936 10.3158C15.6917 10.0135 15.1884 9.81196 15.1884 9.71119C15.1884 9.61043 15.6917 9.71118 16.1949 9.9127C16.6982 10.215 17.0002 10.618 17.0002 10.618C17.0002 10.618 17.3022 11.1218 17.4029 11.6257C17.4029 12.2302 17.2015 12.734 17.2015 12.734Z" fill="#C4751D"/>
</g>
<g opacity="0.5">
<path opacity="0.5" d="M11.464 17.6714C11.464 17.5706 12.0679 17.7721 12.6719 17.6714C12.9739 17.6714 13.2759 17.5706 13.4772 17.4698C13.6785 17.3691 13.7792 17.3691 13.7792 17.3691C13.7792 17.3691 13.8798 17.3691 14.0811 17.2683C14.2825 17.1676 14.5844 17.0668 14.7858 16.8653C15.289 16.563 15.6917 16.0591 15.6917 16.0591C15.7923 16.0591 15.4904 16.6637 14.9871 17.1675C14.4838 17.6714 13.8798 17.8729 13.8798 17.8729C13.8798 17.8729 13.1752 18.0744 12.5712 17.9736C12.0679 18.0744 11.464 17.7721 11.464 17.6714Z" fill="#C4751D"/>
</g>
<g opacity="0.5">
<path opacity="0.5" d="M6.22969 14.044C6.12903 14.044 6.33036 13.4394 6.43102 12.9356C6.43102 12.4318 6.33035 11.928 6.33035 11.928C6.33035 11.928 6.33035 11.4242 6.12903 10.9204C5.92771 10.4166 5.62573 10.0135 5.62573 9.91276C5.62573 9.812 6.12904 10.2151 6.43102 10.7189C6.733 11.2227 6.83365 11.8272 6.83365 11.8272C6.83365 11.8272 6.93431 12.4318 6.73299 13.0364C6.63233 13.5402 6.33035 14.044 6.22969 14.044Z" fill="#C4751D"/>
</g>
<g opacity="0.5">
<path opacity="0.5" d="M2.10266 19.5858C2.10266 19.4851 2.70662 19.3843 3.20991 18.9813C3.51189 18.7797 3.71321 18.5782 3.81387 18.4774C4.01518 18.2759 4.11585 18.1752 4.11585 18.1752C4.11585 18.1752 4.21651 18.0744 4.41783 17.8729C4.61915 17.6714 4.7198 17.4698 4.92112 17.1676C5.2231 16.6637 5.32376 15.9584 5.42442 15.9584C5.52508 15.9584 5.52507 16.6638 5.32375 17.2683C5.12244 17.8729 4.61914 18.4774 4.61914 18.4774C4.61914 18.4774 4.11585 18.9813 3.51189 19.2836C2.80728 19.6866 2.10266 19.6866 2.10266 19.5858Z" fill="#C4751D"/>
</g>
<g opacity="0.5">
<path opacity="0.5" d="M14.987 24.9262C14.987 24.9262 14.8863 24.7247 14.987 24.5232C14.987 24.2209 15.1883 23.9186 15.3896 23.7171C15.5909 23.4148 15.8929 23.2133 16.0942 23.1125C16.2956 23.0117 16.4969 22.911 16.4969 22.911C16.4969 22.911 17.1008 22.7094 17.8055 22.6087C18.5101 22.5079 19.114 22.6087 19.114 22.6087C19.114 22.7094 18.5101 22.8102 17.9061 22.911C17.3022 23.1125 16.7989 23.314 16.7989 23.314C16.7989 23.314 16.1949 23.5156 15.7923 23.9186C15.5909 24.1201 15.3896 24.3216 15.289 24.5232C15.0877 24.8254 14.987 24.9262 14.987 24.9262Z" fill="#C4751D"/>
</g>
<g opacity="0.5">
<path opacity="0.5" d="M24.0464 27.6467C23.9457 27.6467 23.7444 27.3444 23.5431 27.0422C23.3418 26.7399 23.1405 26.4376 23.1405 26.4376C23.1405 26.4376 22.9391 26.1353 22.7378 25.8331C22.5365 25.5308 22.2345 25.2285 22.3352 25.1277C22.3352 25.027 22.7378 25.2285 23.0398 25.5308C23.3418 25.833 23.6438 26.1353 23.6438 26.1353C23.6438 26.1353 23.8451 26.5384 23.9457 26.8407C24.0464 27.1429 24.0464 27.546 24.0464 27.6467Z" fill="#C4751D"/>
</g>
<g opacity="0.5">
<path opacity="0.5" d="M32.1998 32.7855C32.0992 32.7855 32.5018 32.181 32.9045 31.6772C33.4078 31.1734 34.0117 30.7703 34.0117 30.7703C34.0117 30.7703 34.6157 30.468 35.3203 30.2665C35.6223 30.1658 36.0249 30.1658 36.3269 30.2665C36.6289 30.3673 36.7295 30.468 36.7295 30.5688C36.7295 30.5688 36.5282 30.5688 36.3269 30.4681C36.1256 30.4681 35.8236 30.468 35.5216 30.6696C34.9176 30.8711 34.4143 31.2741 34.4143 31.2741C34.4143 31.2741 33.8104 31.5764 33.3071 31.9795C32.7031 32.2817 32.3005 32.7855 32.1998 32.7855Z" fill="#C4751D"/>
</g>
<g opacity="0.5">
<path opacity="0.5" d="M30.7906 36.7153C30.6899 36.7153 30.5893 36.5138 30.4886 36.2115C30.3879 35.9092 30.3879 35.6069 30.3879 35.6069C30.3879 35.6069 30.3879 35.3046 30.4886 35.0024C30.5893 34.7001 30.6899 34.4986 30.7906 34.4986C30.8912 34.4986 30.8912 34.8008 30.8912 35.1031C30.8912 35.4054 30.8912 35.6069 30.8912 35.6069C30.8912 35.6069 30.8912 35.9092 30.8912 36.1107C30.7906 36.413 30.7906 36.6145 30.7906 36.7153Z" fill="#C4751D"/>
</g>
<g opacity="0.5">
<path opacity="0.5" d="M40.5546 27.8483C40.4539 27.8483 40.3533 27.3445 40.4539 26.9414C40.5546 26.4376 40.7559 26.0346 40.7559 26.0346C40.7559 26.0346 41.0579 25.6315 41.3598 25.3292C41.7625 25.027 42.1651 24.8254 42.1651 24.9262C42.1651 25.027 41.8631 25.3292 41.6618 25.6315C41.3599 25.9338 41.2592 26.3369 41.2592 26.3369C41.2592 26.3369 41.0579 26.7399 40.8566 27.143C40.6552 27.4452 40.6552 27.8483 40.5546 27.8483Z" fill="#C4751D"/>
</g>
<g opacity="0.5">
<path opacity="0.5" d="M41.0578 32.3825C41.0578 32.4833 40.7559 32.3825 40.6552 32.181C40.4539 31.9795 40.3532 31.778 40.3532 31.778C40.3532 31.778 40.2525 31.5764 40.3532 31.2742C40.3532 31.0726 40.4539 30.7704 40.5545 30.8711C40.6552 30.8711 40.6552 31.0726 40.7558 31.2742C40.8565 31.4757 40.9572 31.5764 40.9572 31.5764C40.9572 31.5764 40.9572 31.778 41.0578 31.9795C40.9572 32.0803 41.0578 32.2818 41.0578 32.3825Z" fill="#C4751D"/>
</g>
<g opacity="0.5">
<path opacity="0.5" d="M8.94749 27.6468C8.84683 27.6468 8.4442 27.2437 8.04156 26.9414C7.84024 26.7399 7.63892 26.6391 7.4376 26.5384C7.23629 26.4376 7.13562 26.4376 7.13562 26.4376C7.13562 26.4376 7.03496 26.3369 6.83364 26.3369C6.63232 26.2361 6.43101 26.2361 6.12903 26.2361C5.82705 26.2361 5.62574 26.2361 5.42442 26.3369C5.2231 26.4376 5.12244 26.4376 5.12244 26.4376C5.12244 26.4376 5.2231 26.2361 5.42442 26.1353C5.62574 26.0346 5.92771 25.9338 6.22969 25.8331C6.53167 25.8331 6.83365 25.8331 7.03497 25.9338C7.23628 26.0346 7.4376 26.0346 7.4376 26.0346C7.4376 26.0346 7.53826 26.1353 7.73958 26.2361C7.9409 26.3369 8.14221 26.5384 8.34353 26.7399C8.74617 27.143 9.04815 27.6468 8.94749 27.6468Z" fill="#C4751D"/>
</g>
<g opacity="0.5">
<path opacity="0.5" d="M10.6587 33.3901C10.558 33.2894 10.7593 33.0879 10.7593 32.8863C10.7593 32.6848 10.7593 32.4833 10.7593 32.4833C10.7593 32.4833 10.7593 32.2817 10.7593 32.0802C10.7593 31.8787 10.6587 31.5764 10.7593 31.5764C10.86 31.5764 11.0613 31.6772 11.162 31.9795C11.2626 32.2818 11.2626 32.584 11.2626 32.584C11.2626 32.584 11.2626 32.8863 11.0613 33.0878C10.9607 33.2894 10.6587 33.3901 10.6587 33.3901Z" fill="#C4751D"/>
</g>
<g opacity="0.5">
<path opacity="0.5" d="M8.04154 35.6069C8.04154 35.7076 7.6389 35.5061 7.33692 35.4054C7.03494 35.3046 6.6323 35.2038 6.6323 35.2038C6.6323 35.2038 6.33033 35.0023 6.02835 35.0023C5.72637 34.9016 5.32373 35.0023 5.32373 34.9016C5.32373 34.8008 5.62571 34.5993 6.02835 34.5993C6.43099 34.5993 6.83362 34.7 6.83362 34.7C6.83362 34.7 7.23626 34.9016 7.53824 35.1031C7.84022 35.3046 8.1422 35.6069 8.04154 35.6069Z" fill="#C4751D"/>
</g>
<g opacity="0.5">
<path opacity="0.5" d="M10.6587 39.3351C10.5581 39.3351 10.6587 39.0328 10.6587 38.7305C10.5581 38.4282 10.4574 38.2267 10.4574 38.2267C10.4574 38.2267 10.3567 37.9244 10.1554 37.7229C9.9541 37.5214 9.65212 37.3198 9.75278 37.2191C9.75278 37.1183 10.1554 37.1183 10.4574 37.4206C10.7594 37.6221 10.9607 38.0252 10.9607 38.0252C10.9607 38.0252 11.0614 38.4282 11.0614 38.8312C10.9607 39.1335 10.7594 39.4358 10.6587 39.3351Z" fill="#C4751D"/>
</g>
<g opacity="0.5">
<path opacity="0.5" d="M26.8649 41.6526C26.8649 41.5518 27.1668 41.4511 27.4688 41.3503C27.7708 41.2495 28.1734 41.2495 28.1734 41.2495C28.1734 41.2495 28.4754 41.3503 28.7774 41.4511C29.0794 41.5518 29.3813 41.8541 29.2807 41.8541C29.2807 41.9549 28.9787 41.8541 28.6767 41.7533C28.3748 41.7533 28.0728 41.6526 28.0728 41.6526C28.0728 41.6526 27.7708 41.5518 27.4688 41.5518C27.1668 41.6526 26.8649 41.7533 26.8649 41.6526Z" fill="#C4751D"/>
</g>
<g opacity="0.5">
<path opacity="0.5" d="M24.3483 43.3656C24.2477 43.3656 24.2477 43.164 24.2477 42.9625C24.2477 42.761 24.3483 42.5595 24.3483 42.5595C24.3483 42.5595 24.449 42.3579 24.6503 42.2572C24.8516 42.1564 24.9523 42.0556 25.053 42.1564C25.1536 42.2572 25.053 42.3579 24.9523 42.5595C24.8516 42.761 24.8516 42.8617 24.8516 42.8617C24.8516 42.8617 24.751 42.9625 24.6503 43.164C24.449 43.2648 24.449 43.4663 24.3483 43.3656Z" fill="#C4751D"/>
</g>
<g opacity="0.5">
<path opacity="0.5" d="M23.6438 33.894C23.6438 33.7932 23.8451 33.5917 23.8451 33.1886C23.9458 32.8863 23.7445 32.584 23.7445 32.584C23.7445 32.584 23.7445 32.2818 23.5431 31.9795C23.3418 31.6772 23.1405 31.3749 23.1405 31.3749C23.1405 31.2741 23.5431 31.4757 23.8451 31.778C23.9458 31.9795 24.1471 32.0802 24.1471 32.2818C24.2477 32.3825 24.2477 32.584 24.2477 32.584C24.2477 32.584 24.2477 32.6848 24.2477 32.8864C24.2477 33.0879 24.2477 33.2894 24.1471 33.4909C24.0464 33.7932 23.6438 33.9947 23.6438 33.894Z" fill="#C4751D"/>
</g>
<g opacity="0.5">
<path opacity="0.5" d="M19.416 35.1031C19.416 35.2038 18.9127 35.0023 18.6108 34.5993C18.5101 34.3977 18.4094 34.1962 18.3088 33.9947C18.2081 33.7932 18.2081 33.6924 18.2081 33.6924C18.2081 33.6924 18.2081 33.5917 18.2081 33.3901C18.2081 33.1886 18.3088 32.9871 18.4094 32.7856C18.6108 32.3825 19.1141 32.0802 19.1141 32.181C19.1141 32.2818 18.9127 32.5841 18.8121 32.9871C18.7114 33.3902 18.7114 33.7932 18.7114 33.7932C18.7114 33.7932 18.7114 34.1962 18.8121 34.4985C19.1141 34.7 19.416 35.0023 19.416 35.1031Z" fill="#C4751D"/>
</g>
</g>
<path opacity="0.5" d="M29.18 42.4587C29.8846 42.2572 30.4885 41.9549 31.1932 41.7534C35.9242 39.7381 39.5479 36.1107 41.7624 31.8788C42.6683 32.0803 43.9769 30.9719 44.5808 29.3597C45.0841 28.1506 45.0841 27.0422 44.7822 26.2361C42.769 29.1582 40.0512 31.5765 36.6288 32.9871C26.8648 37.2191 15.289 32.5841 10.9606 22.5079C7.94086 15.6561 9.14876 7.99827 13.2758 2.45639C9.85338 4.06857 7.03492 6.48684 5.02174 9.40893C4.92108 9.40893 4.92107 9.30819 4.82041 9.30819C3.51184 8.80438 1.59932 10.4165 0.592723 12.9356C-0.413871 15.4546 -0.111896 17.9737 1.29734 18.4775H1.398C0.794044 22.4072 1.19668 26.5384 2.90789 30.3673C3.51185 31.8788 4.31712 33.1887 5.22305 34.4986C4.51844 35.2039 4.92108 36.9168 6.02833 38.4282C7.23624 40.0404 8.94745 40.7457 9.75272 40.1412C9.95404 39.9397 10.1554 39.7381 10.1554 39.4359C14.2824 42.3579 19.3154 43.6678 24.449 43.2648V43.3656C24.6503 44.0709 25.7576 44.3732 27.0661 44.0709C28.4754 43.9701 29.3813 43.164 29.18 42.4587Z" fill="url(#paint1_radial_1_1007)"/>
<path opacity="0.2" d="M32.254 28.9823C38.7807 26.1445 41.7555 18.5063 38.8984 11.922C36.0412 5.33764 28.4342 2.30051 21.9075 5.13835C15.3809 7.97618 12.4061 15.6143 15.2632 22.1987C18.1203 28.783 25.7274 31.8201 32.254 28.9823Z" fill="#D6893D"/>
<path d="M23.4424 19.9889C23.0397 20.1904 22.6371 19.9889 22.5364 19.5858C22.3351 19.1828 22.5364 18.7797 22.9391 18.679C23.3417 18.4775 23.7444 18.679 23.845 19.082C23.9457 19.4851 23.845 19.8881 23.4424 19.9889ZM24.3483 22.911C24.147 22.5079 23.6437 22.3064 23.2411 22.5079C22.8384 22.7094 22.6371 23.2132 22.8384 23.6163C23.0397 24.0193 23.543 24.2209 23.9457 24.0193C24.3483 23.8178 24.5496 23.314 24.3483 22.911ZM35.8235 27.4452C35.6222 26.8407 34.9175 26.6391 34.3136 26.8407C33.7096 27.0422 33.5083 27.7475 33.7096 28.3521C33.9109 28.9567 34.6156 29.1582 35.2195 28.9567C35.8235 28.6544 36.0248 28.0498 35.8235 27.4452ZM30.5892 29.1582C30.4885 28.8559 30.0859 28.7551 29.8846 28.8559C29.5826 28.9567 29.4819 29.3597 29.5826 29.5612C29.6833 29.8635 30.0859 29.9643 30.2872 29.8635C30.5892 29.7627 30.6898 29.4605 30.5892 29.1582ZM28.9786 33.3902C28.878 33.1886 28.576 33.0879 28.3747 33.1886C28.1734 33.2894 28.0727 33.5917 28.1734 33.7932C28.274 33.9947 28.576 34.0955 28.7773 33.9947C28.9786 33.894 29.0793 33.5917 28.9786 33.3902ZM10.7593 23.9186C10.4573 23.314 9.7527 23.0117 9.14875 23.314C8.54479 23.6163 8.24281 24.3216 8.54479 24.9262C8.84677 25.5308 9.55138 25.833 10.1553 25.5308C10.6586 25.2285 10.9606 24.5232 10.7593 23.9186ZM11.4639 27.6467C11.3633 27.4452 11.1619 27.3445 10.86 27.4452C10.6586 27.546 10.558 27.7475 10.6586 28.0498C10.7593 28.2513 10.9606 28.3521 11.2626 28.2513C11.3633 28.1506 11.4639 27.8483 11.4639 27.6467ZM13.4771 34.5993C13.3764 34.297 12.9738 34.0955 12.5712 34.297C12.2692 34.3978 12.0679 34.8008 12.2692 35.2038C12.3698 35.5061 12.7725 35.7077 13.1751 35.5062C13.4771 35.3046 13.5778 34.9016 13.4771 34.5993ZM18.0068 38.529C17.7048 37.9244 17.0002 37.6221 16.2956 37.8237C15.6916 38.1259 15.3896 38.8313 15.5909 39.5366C15.8929 40.1412 16.5975 40.4434 17.3022 40.2419C17.9061 39.9396 18.2081 39.1336 18.0068 38.529ZM13.2758 38.529C13.1751 38.3275 12.9738 38.2267 12.6718 38.3275C12.4705 38.4282 12.3698 38.6297 12.4705 38.932C12.5712 39.1336 12.7725 39.2343 13.0745 39.1335C13.2758 39.0328 13.3764 38.7305 13.2758 38.529ZM23.3417 41.1488C23.2411 40.8465 22.8384 40.645 22.5364 40.8465C22.2345 40.9473 22.0331 41.3503 22.2345 41.6526C22.3351 41.9549 22.7378 42.1564 23.0397 41.9549C23.3417 41.7534 23.4424 41.451 23.3417 41.1488ZM4.11578 24.4224C4.01512 24.1201 3.61248 23.9186 3.3105 24.1201C3.00852 24.2209 2.80721 24.6239 3.00853 24.9262C3.10919 25.2285 3.51182 25.43 3.8138 25.2285C4.11578 25.1277 4.3171 24.7247 4.11578 24.4224ZM12.1685 10.215C11.9672 9.81199 11.5646 9.61048 11.1619 9.812C10.7593 10.0135 10.558 10.4166 10.7593 10.8196C10.9606 11.2227 11.3633 11.4242 11.7659 11.2227C12.1685 11.0211 12.3698 10.6181 12.1685 10.215ZM7.73951 18.3767C7.63885 18.1752 7.43754 18.0744 7.13556 18.1752C6.93424 18.2759 6.83358 18.4775 6.93424 18.7798C7.0349 18.9813 7.23622 19.082 7.5382 18.9813C7.73952 18.7797 7.84017 18.5782 7.73951 18.3767ZM24.7509 12.6333C24.5496 12.1295 23.9457 11.8272 23.3417 12.1295C22.8384 12.331 22.5364 12.9356 22.8384 13.5402C23.0397 14.044 23.6437 14.3462 24.2476 14.044C24.7509 13.8424 24.9523 13.2379 24.7509 12.6333ZM18.812 17.3691C18.7114 17.2683 18.6107 17.1676 18.4094 17.2683C18.3087 17.3691 18.2081 17.4699 18.3087 17.6714C18.4094 17.7721 18.5101 17.8729 18.7114 17.7721C18.812 17.7721 18.812 17.5706 18.812 17.3691ZM33.307 12.2303C33.2063 11.928 32.9044 11.8272 32.6024 11.928C32.3004 12.0287 32.1997 12.331 32.3004 12.6333C32.4011 12.9356 32.703 13.0363 33.005 12.9356C33.307 12.8348 33.4076 12.4318 33.307 12.2303ZM35.3202 13.9432C35.2195 13.6409 34.9175 13.5402 34.6156 13.6409C34.3136 13.7417 34.2129 14.044 34.3136 14.3463C34.4142 14.6485 34.7162 14.7493 35.0182 14.6485C35.2195 14.447 35.4208 14.1447 35.3202 13.9432ZM41.0578 20.3919C40.7558 19.5859 39.7492 19.2836 39.0446 19.5858C38.2393 19.8881 37.9373 20.8957 38.2393 21.6011C38.5413 22.4072 39.5479 22.7095 40.2525 22.4072C41.0578 22.1049 41.4604 21.198 41.0578 20.3919ZM36.6287 22.5079C36.5281 22.3064 36.3268 22.3064 36.2261 22.3064C36.0248 22.4072 36.0248 22.6087 36.0248 22.7094C36.1254 22.911 36.3268 22.911 36.4274 22.911C36.6288 22.8102 36.7294 22.6087 36.6287 22.5079Z" fill="url(#paint2_radial_1_1007)"/>
<defs>
<radialGradient id="paint0_radial_1_1007" cx="0" cy="0" r="1" gradientUnits="userSpaceOnUse" gradientTransform="translate(35.3465 4.54769) rotate(66.5427) scale(50.9368 50.9016)">
<stop offset="0.0185185" stop-color="#D6893D"/>
<stop offset="0.3471" stop-color="#D3863B"/>
<stop offset="0.6164" stop-color="#C97D33"/>
<stop offset="0.8639" stop-color="#B86E27"/>
<stop offset="0.9963" stop-color="#AB631E"/>
<stop offset="1" stop-color="#AD6015"/>
</radialGradient>
<radialGradient id="paint1_radial_1_1007" cx="0" cy="0" r="1" gradientUnits="userSpaceOnUse" gradientTransform="translate(24.0643 28.7192) rotate(66.5428) scale(48.5265 48.4929)">
<stop offset="0.0185185" stop-color="#D6893D"/>
<stop offset="0.3471" stop-color="#D3863B"/>
<stop offset="0.6164" stop-color="#C97D33"/>
<stop offset="0.8639" stop-color="#B86E27"/>
<stop offset="0.9963" stop-color="#AB631E"/>
<stop offset="1" stop-color="#AD6015"/>
</radialGradient>
<radialGradient id="paint2_radial_1_1007" cx="0" cy="0" r="1" gradientUnits="userSpaceOnUse" gradientTransform="translate(22.4337 23.5564) rotate(66.5427) scale(17.7397 17.7275)">
<stop offset="0.0185185" stop-color="#D6893D"/>
<stop offset="0.3471" stop-color="#D3863B"/>
<stop offset="0.6164" stop-color="#C97D33"/>
<stop offset="0.8639" stop-color="#B86E27"/>
<stop offset="0.9963" stop-color="#AB631E"/>
<stop offset="1" stop-color="#AD6015"/>
</radialGradient>
</defs>
</svg>
