<svg width="55" height="44" viewBox="0 0 55 44" fill="none" xmlns="http://www.w3.org/2000/svg">
<path d="M3.74744 21.3192C3.48451 22.5036 1.51257 38.0324 1.51257 38.0324C1.51257 38.0324 14.3963 46.06 34.7736 41.8488C55.151 37.6376 62.1187 23.688 62.1187 23.688L52.5217 8.2908L3.74744 21.3192Z" fill="url(#paint0_radial_1_965)"/>
<path d="M12.4243 19.2136C12.1614 20.0032 10.9781 29.61 10.9781 29.61C10.9781 29.61 18.9977 34.6108 31.7499 31.9788C44.5022 29.3468 48.8406 20.6612 48.8406 20.6612L42.7931 11.0544L12.4243 19.2136Z" fill="url(#paint1_radial_1_965)"/>
<path d="M38.1917 4.606C38.1917 4.4744 38.1917 4.34279 38.0602 4.21119C37.1399 0.657995 31.0925 -0.921212 24.3876 0.789587C17.6828 2.50039 13.0816 6.7116 14.0018 10.2648C14.0018 10.3964 14.1333 10.528 14.1333 10.6596C5.325 13.9496 -0.459555 17.5028 0.0663114 19.74C0.855112 23.03 13.7389 22.5036 28.8575 18.8188C43.9762 15.0024 55.5453 9.34358 54.7565 6.05359C54.2306 3.68479 47.3943 3.29 38.1917 4.606Z" fill="url(#paint2_radial_1_965)"/>
<path d="M52.5216 4.4744C48.972 7.63279 39.5063 11.5808 28.0687 14.476C16.3682 17.3712 5.85093 18.2924 1.51253 17.108C0.329333 18.1608 -0.196582 19.082 0.0663513 19.8716C0.855151 23.1616 13.7389 22.6352 28.8576 18.9504C43.9762 15.134 55.5453 9.47519 54.7565 6.1852C54.625 5.3956 53.8362 4.7376 52.5216 4.4744Z" fill="url(#paint3_radial_1_965)"/>
<path d="M52.916 4.606C53.1789 4.8692 53.3104 5.13239 53.4419 5.39559C54.2307 8.68559 42.6616 14.3444 27.5429 18.1608C15.448 21.1876 4.79922 22.1088 0.592285 20.6612C3.22162 23.03 15.185 22.372 28.989 18.9504C44.1077 15.134 55.6768 9.47519 54.888 6.1852C54.625 5.3956 53.9677 4.8692 52.916 4.606Z" fill="url(#paint4_radial_1_965)"/>
<path d="M14.2648 10.9228C14.2648 10.9228 17.9459 13.16 28.4632 10.2648C34.7736 8.554 38.0603 6.3168 39.3749 4.3428C38.9805 4.3428 38.4547 4.47439 38.0603 4.47439C38.0603 4.34279 38.0602 4.21119 37.9288 4.07959C37.2714 1.57919 34.1162 0.1316 30.0408 0C30.1722 1.5792 29.252 3.4216 25.571 4.606C20.0494 6.3168 17.0256 6.18519 15.5795 5.52719C14.1333 7.10639 13.476 8.6856 13.8704 10.2648C13.8704 10.3964 14.0019 10.528 14.0019 10.6596H13.8704C14.0019 10.7912 14.1333 10.9228 14.2648 10.9228Z" fill="url(#paint5_radial_1_965)"/>
<path opacity="0.5" d="M5.71938 19.082C5.58791 19.082 5.58791 19.082 5.71938 19.082C5.58791 18.9504 5.58797 18.8188 5.45651 18.8188C5.45651 18.8188 5.45646 18.8188 5.32499 18.6872L5.19356 18.5556C5.19356 18.5556 5.19351 18.5556 5.06205 18.5556C4.93058 18.5556 4.79918 18.424 4.79918 18.424C4.53624 18.2924 4.14183 18.2924 3.8789 18.424C3.0901 18.6872 2.5642 19.4768 2.69567 20.2664C2.69567 20.398 2.82715 20.6612 2.95862 20.7928L3.09005 20.9244L3.22157 21.056C3.22157 21.056 3.22153 21.056 3.353 21.056L3.48451 21.1876C3.61598 21.1876 3.61592 21.3192 3.74738 21.3192H3.8789H4.01033H4.14185H4.27328C4.27328 21.3192 4.27325 21.3192 4.40471 21.3192C4.53618 21.3192 4.5362 21.3192 4.66766 21.3192C4.9306 21.1876 5.19358 21.056 5.45651 20.7928C5.58797 20.6612 5.58794 20.6612 5.58794 20.5296C5.71941 20.398 5.71942 20.1348 5.85089 20.0032C5.85089 19.74 5.85089 19.6084 5.85089 19.3452C5.71942 19.3452 5.71938 19.2136 5.71938 19.082Z" fill="url(#paint6_radial_1_965)"/>
<path opacity="0.5" d="M14.0018 18.8188C14.0018 18.6872 13.8703 18.6872 13.8703 18.5556C13.8703 18.5556 13.8703 18.5556 13.7388 18.424L13.6073 18.2924C13.6073 18.2924 13.6073 18.2924 13.4759 18.2924C13.3444 18.2924 13.2129 18.1608 13.2129 18.1608C12.95 18.0292 12.5556 18.0292 12.2926 18.1608C11.5038 18.424 10.978 19.2136 11.1095 20.0032C11.1095 20.1348 11.241 20.398 11.3724 20.5296L11.5039 20.6612L11.6353 20.7928C11.6353 20.7928 11.6354 20.7928 11.7668 20.7928C11.7668 20.7928 11.8983 20.7928 11.8983 20.9244C12.0297 20.9244 12.0297 21.056 12.1612 21.056H12.2926H12.4242H12.5556H12.6871C12.6871 21.056 12.6871 21.056 12.8185 21.056C12.95 21.056 12.95 21.056 13.0815 21.056C13.4759 20.9244 13.8703 20.6612 14.0018 20.398C14.1332 20.2664 14.1332 20.0032 14.2646 19.8716C14.2646 19.6084 14.2646 19.4768 14.2646 19.2136C14.1332 19.082 14.1332 18.9504 14.0018 18.8188Z" fill="url(#paint7_radial_1_965)"/>
<path opacity="0.5" d="M22.1528 17.6344C22.1528 17.5028 22.0214 17.5028 22.0214 17.3712C22.0214 17.3712 22.0214 17.3712 21.8899 17.2396L21.7584 17.108C21.7584 17.108 21.7585 17.108 21.627 17.108C21.4955 17.108 21.364 16.9764 21.364 16.9764C21.1011 16.8448 20.7067 16.8448 20.4438 16.9764C19.655 17.2396 19.1291 18.0292 19.2606 18.8188C19.2606 18.9504 19.392 19.2136 19.5235 19.3452L19.655 19.4768L19.7864 19.6084C19.7864 19.6084 19.7865 19.6084 19.9179 19.6084L20.0494 19.74C20.1808 19.74 20.1809 19.8716 20.3123 19.8716H20.4438H20.5753H20.7067H20.8381C20.8381 19.8716 20.8382 19.8716 20.9697 19.8716C21.1011 19.8716 21.1011 19.8716 21.2326 19.8716C21.4955 19.8716 21.627 19.74 21.7584 19.6084C21.8899 19.4768 22.0213 19.3452 22.1528 19.2136C22.2843 19.082 22.2843 18.8188 22.4158 18.6872C22.5472 18.5556 22.4158 18.2924 22.4158 18.0292C22.2843 18.0292 22.2843 17.8976 22.1528 17.6344C22.1528 17.766 22.1528 17.766 22.1528 17.6344Z" fill="url(#paint8_radial_1_965)"/>
<path opacity="0.5" d="M30.1722 16.0552C30.1722 15.9236 30.0407 15.9236 30.0407 15.792C30.0407 15.792 30.0407 15.792 29.9092 15.6604L29.7778 15.5288C29.7778 15.5288 29.7778 15.5288 29.6463 15.5288C29.5148 15.5288 29.3833 15.3972 29.3833 15.3972C29.1204 15.2656 28.7261 15.2656 28.4631 15.3972C27.6743 15.6604 27.1484 16.45 27.2799 17.2396C27.2799 17.3712 27.4114 17.6344 27.5428 17.766L27.6743 17.8976L27.8058 18.0292C27.8058 18.0292 27.8058 18.0292 27.9372 18.0292C27.9372 18.0292 28.0687 18.0292 28.0687 18.1608C28.2001 18.1608 28.2002 18.2924 28.3316 18.2924H28.4631H28.5946H28.726H28.8575C28.8575 18.2924 28.8575 18.2924 28.989 18.2924C29.1204 18.2924 29.1204 18.2924 29.2519 18.2924C29.7778 18.1608 30.1722 17.766 30.3036 17.3712C30.4351 17.108 30.4351 16.7132 30.3036 16.45C30.4351 16.3184 30.3037 16.1868 30.1722 16.0552C30.3037 16.0552 30.3037 16.0552 30.1722 16.0552Z" fill="url(#paint9_radial_1_965)"/>
<path opacity="0.5" d="M38.0602 13.6864C38.0602 13.5548 37.9287 13.5548 37.9287 13.4232C37.9287 13.4232 37.9288 13.4232 37.7973 13.2916L37.6659 13.16C37.6659 13.16 37.6658 13.16 37.5343 13.16C37.4029 13.16 37.2714 13.0284 37.2714 13.0284C37.0085 12.8968 36.6141 12.8968 36.3512 13.0284C35.5624 13.2916 35.0365 14.0812 35.168 14.8708C35.168 15.0024 35.2994 15.2656 35.4309 15.3972L35.5623 15.5288L35.6939 15.6604C35.6939 15.6604 35.6938 15.6604 35.8253 15.6604C35.8253 15.6604 35.9567 15.6604 35.9567 15.792C36.0882 15.792 36.0882 15.9236 36.2197 15.9236H36.3512H36.4826H36.6141H36.7456C36.7456 15.9236 36.7455 15.9236 36.877 15.9236C37.0085 15.9236 37.0085 15.9236 37.14 15.9236C37.6658 15.792 38.0602 15.3972 38.1917 15.0024C38.3231 14.7392 38.3231 14.3444 38.1917 14.0812C38.3231 14.0812 38.1917 13.9496 38.0602 13.6864C38.1917 13.818 38.1917 13.818 38.0602 13.6864Z" fill="url(#paint10_radial_1_965)"/>
<path opacity="0.5" d="M45.8166 10.9228C45.8166 10.7912 45.6852 10.7912 45.6852 10.6596C45.6852 10.6596 45.6852 10.6596 45.5538 10.528L45.4223 10.3964C45.4223 10.3964 45.4223 10.3964 45.2908 10.3964C45.1594 10.3964 45.0279 10.2648 45.0279 10.2648C44.7649 10.1332 44.3705 10.1332 44.1076 10.2648C43.3188 10.528 42.793 11.3176 42.9244 12.1072C42.9244 12.2388 43.0558 12.502 43.1873 12.6336L43.3188 12.7652L43.4503 12.8968C43.4503 12.8968 43.4503 12.8968 43.5818 12.8968C43.5818 12.8968 43.7132 12.8968 43.7132 13.0284C43.8447 13.0284 43.8447 13.16 43.9762 13.16H44.1076H44.2391H44.3705H44.502C44.502 13.16 44.502 13.16 44.6335 13.16C44.765 13.16 44.765 13.16 44.8964 13.16C45.0279 13.16 45.0278 13.16 45.1593 13.0284C45.1593 13.0284 45.1594 13.0284 45.2908 13.0284C45.4223 12.8968 45.5537 12.8968 45.6852 12.7652C45.8167 12.6336 45.9482 12.502 45.9482 12.2388C46.0796 11.9756 46.0796 11.5808 45.9482 11.3176C46.0796 11.186 45.9481 11.0544 45.8166 10.9228C45.9481 10.9228 45.8166 10.9228 45.8166 10.9228Z" fill="url(#paint11_radial_1_965)"/>
<path opacity="0.5" d="M53.4419 7.10639C53.3104 6.97479 53.3104 6.84319 53.1789 6.84319C53.1789 6.84319 53.1789 6.84318 53.0474 6.71158L52.916 6.57999C52.916 6.57999 52.916 6.57999 52.7845 6.57999C52.6531 6.57999 52.5216 6.44839 52.5216 6.44839C52.2587 6.31679 51.8642 6.31679 51.6013 6.44839C50.8125 6.71159 50.2866 7.5012 50.4181 8.2908C50.4181 8.4224 50.5496 8.68559 50.681 8.81719L50.8125 8.9488L50.944 9.08039C50.944 9.08039 50.9439 9.08039 51.0754 9.08039C51.0754 9.08039 51.2069 9.08039 51.2069 9.21199C51.3384 9.21199 51.3384 9.34358 51.4699 9.34358H51.6013H51.7327H51.8643H51.9957C51.9957 9.34358 51.9957 9.34358 52.1272 9.34358C52.2587 9.34358 52.2586 9.34358 52.3901 9.34358C52.7845 9.21198 53.1789 8.94878 53.3104 8.68558C53.4418 8.55398 53.4418 8.29079 53.5733 8.15919C53.5733 7.89599 53.5733 7.76439 53.5733 7.50119C53.5733 7.36959 53.4419 7.23799 53.4419 7.10639Z" fill="url(#paint12_radial_1_965)"/>
<path d="M3.74737 21.3192C4.61867 21.3192 5.32501 20.6122 5.32501 19.74C5.32501 18.8678 4.61867 18.1608 3.74737 18.1608C2.87606 18.1608 2.1698 18.8678 2.1698 19.74C2.1698 20.6122 2.87606 21.3192 3.74737 21.3192Z" fill="url(#paint13_radial_1_965)"/>
<path opacity="0.5" d="M4.27318 18.2924C4.40465 18.424 4.40466 18.5556 4.53613 18.8188C4.79906 19.6084 4.27316 20.5296 3.3529 20.6612C3.08997 20.7928 2.69555 20.6612 2.43262 20.6612C2.82702 21.1876 3.48441 21.4508 4.14175 21.3192C4.93055 21.056 5.45636 20.2664 5.3249 19.4768C5.19343 18.8188 4.79905 18.424 4.27318 18.2924Z" fill="url(#paint14_radial_1_965)"/>
<path d="M12.1613 21.056C13.0326 21.056 13.739 20.349 13.739 19.4768C13.739 18.6046 13.0326 17.8976 12.1613 17.8976C11.2901 17.8976 10.5837 18.6046 10.5837 19.4768C10.5837 20.349 11.2901 21.056 12.1613 21.056Z" fill="url(#paint15_radial_1_965)"/>
<path opacity="0.5" d="M12.6872 18.0292C12.8187 18.1608 12.8186 18.2924 12.9501 18.5556C13.213 19.3452 12.6872 20.2664 11.767 20.398C11.504 20.5296 11.1096 20.398 10.8467 20.398C11.2411 20.9244 11.8984 21.1876 12.5557 21.056C13.3445 20.7928 13.8704 20.0032 13.739 19.2136C13.6075 18.5556 13.2131 18.1608 12.6872 18.0292Z" fill="url(#paint16_radial_1_965)"/>
<path d="M20.3123 20.0032C21.1836 20.0032 21.8899 19.2962 21.8899 18.424C21.8899 17.5518 21.1836 16.8448 20.3123 16.8448C19.441 16.8448 18.7346 17.5518 18.7346 18.424C18.7346 19.2962 19.441 20.0032 20.3123 20.0032Z" fill="url(#paint17_radial_1_965)"/>
<path opacity="0.5" d="M20.838 16.9764C20.9695 17.108 20.9695 17.2396 21.101 17.5028C21.3639 18.2924 20.8381 19.2136 19.9178 19.3452C19.6549 19.4768 19.2605 19.3452 18.9976 19.3452C19.392 19.8716 20.0493 20.1348 20.7066 20.0032C21.4954 19.74 22.0213 18.9504 21.8898 18.1608C21.7584 17.5028 21.3639 17.108 20.838 16.9764Z" fill="url(#paint18_radial_1_965)"/>
<path d="M28.3317 18.2924C29.203 18.2924 29.9093 17.5854 29.9093 16.7132C29.9093 15.841 29.203 15.134 28.3317 15.134C27.4604 15.134 26.754 15.841 26.754 16.7132C26.754 17.5854 27.4604 18.2924 28.3317 18.2924Z" fill="url(#paint19_radial_1_965)"/>
<path opacity="0.5" d="M28.9889 15.2656C29.1204 15.3972 29.1204 15.5288 29.2519 15.792C29.5148 16.5816 28.9889 17.5028 28.0686 17.6344C27.8057 17.766 27.4114 17.6344 27.1484 17.6344C27.5428 18.1608 28.2002 18.424 28.8575 18.2924C29.6463 18.0292 30.1721 17.2396 30.0407 16.45C29.7777 15.792 29.3833 15.3972 28.9889 15.2656Z" fill="url(#paint20_radial_1_965)"/>
<path d="M36.3512 16.0552C37.2225 16.0552 37.9287 15.3482 37.9287 14.476C37.9287 13.6038 37.2225 12.8968 36.3512 12.8968C35.4799 12.8968 34.7736 13.6038 34.7736 14.476C34.7736 15.3482 35.4799 16.0552 36.3512 16.0552Z" fill="url(#paint21_radial_1_965)"/>
<path opacity="0.5" d="M36.877 13.0284C37.0085 13.16 37.0085 13.2916 37.1399 13.5548C37.4029 14.3444 36.877 15.2656 35.9567 15.3972C35.6938 15.5288 35.2994 15.3972 35.0365 15.3972C35.4309 15.9236 36.0882 16.1868 36.7456 16.0552C37.5344 15.792 38.0602 15.0024 37.9287 14.2128C37.6658 13.5548 37.2714 13.16 36.877 13.0284Z" fill="url(#paint22_radial_1_965)"/>
<path d="M43.9763 13.16C44.8476 13.16 45.5539 12.453 45.5539 11.5808C45.5539 10.7086 44.8476 10.0016 43.9763 10.0016C43.105 10.0016 42.3987 10.7086 42.3987 11.5808C42.3987 12.453 43.105 13.16 43.9763 13.16Z" fill="url(#paint23_radial_1_965)"/>
<path opacity="0.5" d="M44.6337 10.1332C44.7651 10.2648 44.7651 10.3964 44.8966 10.6596C45.1595 11.4492 44.6336 12.3704 43.7134 12.502C43.4504 12.6336 43.056 12.502 42.7931 12.502C43.1875 13.0284 43.8448 13.2916 44.5021 13.16C45.2909 12.8968 45.8168 12.1072 45.6854 11.3176C45.4224 10.6596 45.0281 10.2648 44.6337 10.1332Z" fill="url(#paint24_radial_1_965)"/>
<path d="M51.6013 9.34358C52.4726 9.34358 53.1789 8.63655 53.1789 7.76438C53.1789 6.89221 52.4726 6.18518 51.6013 6.18518C50.73 6.18518 50.0237 6.89221 50.0237 7.76438C50.0237 8.63655 50.73 9.34358 51.6013 9.34358Z" fill="url(#paint25_radial_1_965)"/>
<path opacity="0.5" d="M52.1272 6.3168C52.2587 6.4484 52.2586 6.57999 52.3901 6.84319C52.653 7.63279 52.1272 8.55397 51.2069 8.68557C50.944 8.81717 50.5496 8.68557 50.2866 8.68557C50.681 9.21197 51.3383 9.47517 51.9957 9.34357C52.7845 9.08037 53.3104 8.29078 53.1789 7.50119C52.916 6.84319 52.5216 6.4484 52.1272 6.3168Z" fill="url(#paint26_radial_1_965)"/>
<path d="M26.6227 2.50037C26.7541 3.28997 25.4395 4.21116 23.5989 4.73756C21.7584 5.26396 20.0493 5.00077 19.9179 4.21117C19.7864 3.42157 21.1011 2.50038 22.9416 1.97398C24.7821 1.57918 26.3597 1.71077 26.6227 2.50037Z" fill="url(#paint27_radial_1_965)"/>
<path d="M10.0579 13.0284C9.79492 13.0284 2.6957 15.6604 4.53623 16.45C6.2453 17.2396 18.4717 16.8448 31.6183 12.6336C31.6183 12.6336 8.61172 16.3184 10.0579 13.2916" fill="url(#paint28_radial_1_965)"/>
<path d="M38.0602 4.21118C37.7973 2.89518 36.7455 1.84237 35.2994 1.18437C35.8253 4.73758 27.6744 8.94878 20.3123 9.73839C15.5795 10.2648 14.3963 9.21199 14.1333 8.15919C13.8704 8.81719 13.8704 9.6068 14.0019 10.2648C14.0019 10.3964 14.1333 10.528 14.1333 10.6596H14.0019C14.1334 10.7912 14.2648 10.7912 14.3963 10.9228C14.3963 10.9228 18.0773 13.16 28.5946 10.2648C34.905 8.554 38.1917 6.31679 39.5063 4.34279C39.1119 4.34279 38.5861 4.47438 38.1917 4.47438C38.0602 4.47438 38.0602 4.34278 38.0602 4.21118Z" fill="url(#paint29_radial_1_965)"/>
<path d="M40.2952 5.26401C40.2952 5.26401 47.1314 4.34279 50.1552 4.73759C50.2866 4.73759 50.2866 4.73759 50.418 4.73759C53.3103 5.26399 42.2671 9.47519 33.5903 11.9756C33.5903 11.9756 40.6895 8.55399 41.4783 7.36959C42.1357 6.18519 40.2952 5.26401 40.2952 5.26401Z" fill="url(#paint30_radial_1_965)"/>
<defs>
<radialGradient id="paint0_radial_1_965" cx="0" cy="0" r="1" gradientUnits="userSpaceOnUse" gradientTransform="translate(27.767 16.4445) rotate(-14.0777) scale(24.6389 24.6609)">
<stop offset="0.0814815" stop-color="#FFE245"/>
<stop offset="0.5259" stop-color="#DE007B" stop-opacity="0.4741"/>
<stop offset="1" stop-color="#E38427" stop-opacity="0"/>
</radialGradient>
<radialGradient id="paint1_radial_1_965" cx="0" cy="0" r="1" gradientUnits="userSpaceOnUse" gradientTransform="translate(27.3849 16.1248) rotate(-14.0777) scale(15.3562 15.37)">
<stop offset="0.0814815" stop-color="#FFE245"/>
<stop offset="0.5259" stop-color="#DE007B" stop-opacity="0.4741"/>
<stop offset="1" stop-color="#E38427" stop-opacity="0"/>
</radialGradient>
<radialGradient id="paint2_radial_1_965" cx="0" cy="0" r="1" gradientUnits="userSpaceOnUse" gradientTransform="translate(22.665 -16.3912) rotate(-14.0777) scale(69.1857 69.2476)">
<stop stop-color="#D1E1EE"/>
<stop offset="0.337" stop-color="#A8EE44"/>
<stop offset="0.9444" stop-color="#732FA4"/>
</radialGradient>
<radialGradient id="paint3_radial_1_965" cx="0" cy="0" r="1" gradientUnits="userSpaceOnUse" gradientTransform="translate(27.4406 2.69104) rotate(-14.0777) scale(47.6655 47.7081)">
<stop stop-color="#D1E1EE"/>
<stop offset="0.337" stop-color="#A8EE44"/>
<stop offset="0.9444" stop-color="#732FA4"/>
</radialGradient>
<radialGradient id="paint4_radial_1_965" cx="0" cy="0" r="1" gradientUnits="userSpaceOnUse" gradientTransform="translate(27.7347 3.34677) rotate(-14.0777) scale(46.917 46.959)">
<stop stop-color="#D1E1EE"/>
<stop offset="0.337" stop-color="#A8EE44"/>
<stop offset="0.9444" stop-color="#732FA4"/>
</radialGradient>
<radialGradient id="paint5_radial_1_965" cx="0" cy="0" r="1" gradientUnits="userSpaceOnUse" gradientTransform="translate(24.1192 -7.42624) rotate(-14.0777) scale(34.431 34.4618)">
<stop stop-color="#D1E1EE"/>
<stop offset="0.337" stop-color="#A8EE44"/>
<stop offset="0.9444" stop-color="#732FA4"/>
</radialGradient>
<radialGradient id="paint6_radial_1_965" cx="0" cy="0" r="1" gradientUnits="userSpaceOnUse" gradientTransform="translate(2.92958 18.7057) rotate(-14.0776) scale(6.7098 6.71573)">
<stop stop-color="#D1E1EE"/>
<stop offset="0.337" stop-color="#A8EE44"/>
<stop offset="0.9444" stop-color="#732FA4"/>
</radialGradient>
<radialGradient id="paint7_radial_1_965" cx="0" cy="0" r="1" gradientUnits="userSpaceOnUse" gradientTransform="translate(11.3171 18.4437) rotate(-14.078) scale(6.70969 6.71578)">
<stop stop-color="#D1E1EE"/>
<stop offset="0.337" stop-color="#A8EE44"/>
<stop offset="0.9444" stop-color="#732FA4"/>
</radialGradient>
<radialGradient id="paint8_radial_1_965" cx="0" cy="0" r="1" gradientUnits="userSpaceOnUse" gradientTransform="translate(19.4948 17.3259) rotate(-14.078) scale(6.70965 6.71575)">
<stop stop-color="#D1E1EE"/>
<stop offset="0.337" stop-color="#A8EE44"/>
<stop offset="0.9444" stop-color="#732FA4"/>
</radialGradient>
<radialGradient id="paint9_radial_1_965" cx="0" cy="0" r="1" gradientUnits="userSpaceOnUse" gradientTransform="translate(27.54 15.6713) rotate(-14.0778) scale(6.70974 6.71576)">
<stop stop-color="#D1E1EE"/>
<stop offset="0.337" stop-color="#A8EE44"/>
<stop offset="0.9444" stop-color="#732FA4"/>
</radialGradient>
<radialGradient id="paint10_radial_1_965" cx="0" cy="0" r="1" gradientUnits="userSpaceOnUse" gradientTransform="translate(35.4349 13.4027) rotate(-14.0777) scale(6.70974 6.71572)">
<stop stop-color="#D1E1EE"/>
<stop offset="0.337" stop-color="#A8EE44"/>
<stop offset="0.9444" stop-color="#732FA4"/>
</radialGradient>
<radialGradient id="paint11_radial_1_965" cx="0" cy="0" r="1" gradientUnits="userSpaceOnUse" gradientTransform="translate(43.1788 10.5206) rotate(-14.0778) scale(6.70974 6.71576)">
<stop stop-color="#D1E1EE"/>
<stop offset="0.337" stop-color="#A8EE44"/>
<stop offset="0.9444" stop-color="#732FA4"/>
</radialGradient>
<radialGradient id="paint12_radial_1_965" cx="0" cy="0" r="1" gradientUnits="userSpaceOnUse" gradientTransform="translate(50.6967 6.71748) rotate(-14.0776) scale(6.70994 6.71589)">
<stop stop-color="#D1E1EE"/>
<stop offset="0.337" stop-color="#A8EE44"/>
<stop offset="0.9444" stop-color="#732FA4"/>
</radialGradient>
<radialGradient id="paint13_radial_1_965" cx="0" cy="0" r="1" gradientUnits="userSpaceOnUse" gradientTransform="translate(2.44405 18.6208) rotate(-13.8287) scale(6.70988 6.71586)">
<stop offset="0.0592593" stop-color="#E4A545"/>
<stop offset="0.5259" stop-color="#E4A815"/>
<stop offset="0.9926" stop-color="#90B367"/>
</radialGradient>
<radialGradient id="paint14_radial_1_965" cx="0" cy="0" r="1" gradientUnits="userSpaceOnUse" gradientTransform="translate(2.59033 18.8497) rotate(-13.8287) scale(6.28693 6.29254)">
<stop offset="0.0592593" stop-color="#E4A545"/>
<stop offset="0.5259" stop-color="#E4A815"/>
<stop offset="0.9926" stop-color="#90B367"/>
</radialGradient>
<radialGradient id="paint15_radial_1_965" cx="0" cy="0" r="1" gradientUnits="userSpaceOnUse" gradientTransform="translate(10.8317 18.3587) rotate(-13.8288) scale(6.70989 6.71592)">
<stop offset="0.0592593" stop-color="#E4A545"/>
<stop offset="0.5259" stop-color="#E4A815"/>
<stop offset="0.9926" stop-color="#90B367"/>
</radialGradient>
<radialGradient id="paint16_radial_1_965" cx="0" cy="0" r="1" gradientUnits="userSpaceOnUse" gradientTransform="translate(10.9781 18.5876) rotate(-13.8288) scale(6.28693 6.29257)">
<stop offset="0.0592593" stop-color="#E4A545"/>
<stop offset="0.5259" stop-color="#E4A815"/>
<stop offset="0.9926" stop-color="#90B367"/>
</radialGradient>
<radialGradient id="paint17_radial_1_965" cx="0" cy="0" r="1" gradientUnits="userSpaceOnUse" gradientTransform="translate(19.0091 17.2411) rotate(-13.8285) scale(6.70988 6.71577)">
<stop offset="0.0592593" stop-color="#E4A545"/>
<stop offset="0.5259" stop-color="#E4A815"/>
<stop offset="0.9926" stop-color="#90B367"/>
</radialGradient>
<radialGradient id="paint18_radial_1_965" cx="0" cy="0" r="1" gradientUnits="userSpaceOnUse" gradientTransform="translate(19.1555 17.47) rotate(-13.8286) scale(6.28692 6.29251)">
<stop offset="0.0592593" stop-color="#E4A545"/>
<stop offset="0.5259" stop-color="#E4A815"/>
<stop offset="0.9926" stop-color="#90B367"/>
</radialGradient>
<radialGradient id="paint19_radial_1_965" cx="0" cy="0" r="1" gradientUnits="userSpaceOnUse" gradientTransform="translate(27.0546 15.5864) rotate(-13.8284) scale(6.70988 6.71574)">
<stop offset="0.0592593" stop-color="#E4A545"/>
<stop offset="0.5259" stop-color="#E4A815"/>
<stop offset="0.9926" stop-color="#90B367"/>
</radialGradient>
<radialGradient id="paint20_radial_1_965" cx="0" cy="0" r="1" gradientUnits="userSpaceOnUse" gradientTransform="translate(27.201 15.8153) rotate(-13.829) scale(6.28667 6.29243)">
<stop offset="0.0592593" stop-color="#E4A545"/>
<stop offset="0.5259" stop-color="#E4A815"/>
<stop offset="0.9926" stop-color="#90B367"/>
</radialGradient>
<radialGradient id="paint21_radial_1_965" cx="0" cy="0" r="1" gradientUnits="userSpaceOnUse" gradientTransform="translate(34.9495 13.3178) rotate(-13.8289) scale(6.70976 6.71586)">
<stop offset="0.0592593" stop-color="#E4A545"/>
<stop offset="0.5259" stop-color="#E4A815"/>
<stop offset="0.9926" stop-color="#90B367"/>
</radialGradient>
<radialGradient id="paint22_radial_1_965" cx="0" cy="0" r="1" gradientUnits="userSpaceOnUse" gradientTransform="translate(35.0959 13.5467) rotate(-13.829) scale(6.28693 6.29269)">
<stop offset="0.0592593" stop-color="#E4A545"/>
<stop offset="0.5259" stop-color="#E4A815"/>
<stop offset="0.9926" stop-color="#90B367"/>
</radialGradient>
<radialGradient id="paint23_radial_1_965" cx="0" cy="0" r="1" gradientUnits="userSpaceOnUse" gradientTransform="translate(42.6935 10.4356) rotate(-13.8287) scale(6.70975 6.71576)">
<stop offset="0.0592593" stop-color="#E4A545"/>
<stop offset="0.5259" stop-color="#E4A815"/>
<stop offset="0.9926" stop-color="#90B367"/>
</radialGradient>
<radialGradient id="paint24_radial_1_965" cx="0" cy="0" r="1" gradientUnits="userSpaceOnUse" gradientTransform="translate(42.84 10.6644) rotate(-13.8288) scale(6.28706 6.2927)">
<stop offset="0.0592593" stop-color="#E4A545"/>
<stop offset="0.5259" stop-color="#E4A815"/>
<stop offset="0.9926" stop-color="#90B367"/>
</radialGradient>
<radialGradient id="paint25_radial_1_965" cx="0" cy="0" r="1" gradientUnits="userSpaceOnUse" gradientTransform="translate(50.2113 6.6327) rotate(-13.8287) scale(6.70975 6.71576)">
<stop offset="0.0592593" stop-color="#E4A545"/>
<stop offset="0.5259" stop-color="#E4A815"/>
<stop offset="0.9926" stop-color="#90B367"/>
</radialGradient>
<radialGradient id="paint26_radial_1_965" cx="0" cy="0" r="1" gradientUnits="userSpaceOnUse" gradientTransform="translate(50.3577 6.86163) rotate(-13.8286) scale(6.28692 6.29248)">
<stop offset="0.0592593" stop-color="#E4A545"/>
<stop offset="0.5259" stop-color="#E4A815"/>
<stop offset="0.9926" stop-color="#90B367"/>
</radialGradient>
<radialGradient id="paint27_radial_1_965" cx="0" cy="0" r="1" gradientUnits="userSpaceOnUse" gradientTransform="translate(20.6427 2.68244) rotate(-14.0777) scale(10.7482 10.7577)">
<stop stop-color="#D1E1EE"/>
<stop offset="0.337" stop-color="#A8EE44"/>
<stop offset="0.9444" stop-color="#732FA4"/>
</radialGradient>
<radialGradient id="paint28_radial_1_965" cx="0" cy="0" r="1" gradientUnits="userSpaceOnUse" gradientTransform="translate(8.58455 13.6412) rotate(-14.0778) scale(39.0234 39.0585)">
<stop stop-color="#D1E1EE"/>
<stop offset="0.337" stop-color="#A8EE44"/>
<stop offset="0.9444" stop-color="#732FA4"/>
</radialGradient>
<radialGradient id="paint29_radial_1_965" cx="0" cy="0" r="1" gradientUnits="userSpaceOnUse" gradientTransform="translate(25.1817 -3.18057) rotate(-14.0778) scale(28.9164 28.9424)">
<stop stop-color="#D1E1EE"/>
<stop offset="0.337" stop-color="#A8EE44"/>
<stop offset="0.9444" stop-color="#732FA4"/>
</radialGradient>
<radialGradient id="paint30_radial_1_965" cx="0" cy="0" r="1" gradientUnits="userSpaceOnUse" gradientTransform="translate(46.6146 3.78845) rotate(-14.0777) scale(27.4652 27.4898)">
<stop stop-color="#D1E1EE"/>
<stop offset="0.337" stop-color="#A8EE44"/>
<stop offset="0.9444" stop-color="#732FA4"/>
</radialGradient>
</defs>
</svg>
