<svg width="41" height="40" viewBox="0 0 41 40" fill="none" xmlns="http://www.w3.org/2000/svg">
<path d="M-16.0314 31.0301C-4.98817 19.9757 10.5249 15.7645 24.5918 19.0545C30.6393 20.3705 37.3441 18.9229 39.9734 13.7905C42.7342 8.78973 37.0812 1.15695 27.3526 0.235748C6.44943 -1.60665 -13.2706 7.47374 -25.234 23.1341C-30.6242 30.2405 -31.0186 38.2681 -28.5207 39.3209C-25.8914 40.3737 -20.8956 35.7677 -16.0314 31.0301Z" fill="url(#paint0_radial_1_883)"/>
<path d="M-20.8957 32.6093C-9.72101 15.8961 11.0507 9.31612 29.0617 15.7645C31.8225 16.6857 34.8462 15.8961 35.8979 13.6589C37.0811 11.4217 35.1091 8.26332 31.691 7.21052C9.34165 0.893723 -14.0594 10.7637 -25.1026 29.9773C-26.8117 32.8725 -26.9432 36.0309 -25.76 36.5573C-24.5768 36.9521 -22.6047 35.1097 -20.8957 32.6093Z" fill="url(#paint1_radial_1_883)"/>
<path d="M30.7707 4.84173C31.8225 5.10493 32.7427 5.63132 33.5315 6.28932C34.5833 8.13172 34.9777 10.1057 34.5833 11.9481C33.2686 13.6589 30.5078 14.3169 28.1414 13.3957C10.1305 6.94733 -10.7727 13.7905 -21.6845 30.6353C-22.7362 32.3461 -24.0509 33.7937 -25.1026 34.3201C-26.0229 32.6093 -25.8914 29.3193 -24.4453 25.6345C-13.1391 7.73692 9.34166 -1.21187 30.7707 4.84173Z" fill="url(#paint2_radial_1_883)"/>
<path d="M-24.0508 32.2145C-13.0076 12.8693 10.3934 2.9993 32.8742 9.44771C35.635 10.2373 37.4756 12.4745 37.3441 14.4485C36.2924 16.2909 34.5833 17.4753 32.6113 18.3965C31.8225 18.3965 30.9022 18.2649 30.1134 18.0017C12.1025 11.5533 -8.80072 18.1333 -19.8439 34.8465C-19.9754 35.1097 -20.1068 35.2413 -20.2383 35.3729C-22.0788 36.8205 -23.7879 38.0049 -25.234 38.2681C-25.7599 37.2153 -25.3655 34.5833 -24.0508 32.2145Z" fill="url(#paint3_radial_1_883)"/>
<path d="M30.5078 19.0545C25.8609 19.0545 22.0939 15.2837 22.0939 10.6321C22.0939 5.98055 25.8609 2.20972 30.5078 2.20972C35.1546 2.20972 38.9216 5.98055 38.9216 10.6321C38.9216 15.2837 35.1546 19.0545 30.5078 19.0545Z" fill="url(#paint4_radial_1_883)"/>
<path opacity="0.5" d="M30.5078 20.1073C25.2801 20.1073 21.0422 15.8651 21.0422 10.6321C21.0422 5.39911 25.2801 1.15692 30.5078 1.15692C35.7355 1.15692 39.9734 5.39911 39.9734 10.6321C39.9734 15.8651 35.7355 20.1073 30.5078 20.1073Z" fill="url(#paint5_radial_1_883)"/>
<path d="M38.3958 8.78973C36.8182 4.44693 31.9539 2.20972 27.6155 3.78892C24.5918 4.84172 22.6198 7.60531 22.2254 10.5005C22.2254 7.07891 24.3288 3.92052 27.747 2.73612C32.0854 1.15692 36.9496 3.39412 38.5272 7.73692C39.0531 9.05292 39.1846 10.5005 38.9216 11.8165C38.9216 10.8953 38.6587 9.84253 38.3958 8.78973Z" fill="url(#paint6_radial_1_883)"/>
<path opacity="0.25" d="M29.1932 17.0805C33.5316 15.5013 35.7665 10.6321 34.1889 6.28931C33.5316 4.71011 32.4798 3.26251 31.1652 2.34131C34.3204 2.60451 37.2126 4.71011 38.2644 7.86851C39.842 12.2113 37.607 17.0805 33.2686 18.6597C30.5078 19.7125 27.6156 19.1861 25.3806 17.6069C26.8268 17.6069 28.01 17.4753 29.1932 17.0805Z" fill="url(#paint7_radial_1_883)"/>
<path opacity="0.25" d="M22.8827 7.07892C22.8827 7.86852 23.1456 8.65812 23.4086 9.44772C24.9862 13.6589 29.5875 15.7645 33.7944 14.1853C36.2923 13.2641 38.1328 11.1585 38.7902 8.78972C39.7104 12.8693 37.4755 17.0805 33.5315 18.5281C29.1931 20.1073 24.3288 17.8701 22.7512 13.5273C21.831 11.4217 21.9625 9.05292 22.8827 7.07892Z" fill="url(#paint8_radial_1_883)"/>
<path d="M34.5833 6.81574C35.2406 7.60534 36.1609 7.86854 36.5553 7.47374C36.9496 7.07894 36.8182 6.15773 36.1608 5.36813C35.5035 4.57853 34.5833 4.31533 34.1889 4.71013C33.7945 5.10493 33.9259 6.02614 34.5833 6.81574Z" fill="url(#paint9_radial_1_883)"/>
<path d="M34.1889 4.97333C34.7148 4.84173 35.3721 5.10494 35.898 5.76293C36.4238 6.42093 36.6868 7.21052 36.4238 7.60531C35.898 7.73691 35.2406 7.47373 34.7148 6.81573C34.0574 6.15773 33.926 5.36813 34.1889 4.97333Z" fill="url(#paint10_radial_1_883)"/>
<path d="M31.4281 8.65811C31.691 8.92131 32.0854 9.05292 32.2169 8.78972C32.4798 8.65812 32.4798 8.26331 32.2169 8.00011C31.9539 7.73691 31.5595 7.6053 31.4281 7.8685C31.1651 8.0001 31.1651 8.39491 31.4281 8.65811Z" fill="url(#paint11_radial_1_883)"/>
<path d="M31.4281 8.65811C31.691 8.92131 32.0854 9.05292 32.2169 8.78972C32.4798 8.65812 32.4798 8.26331 32.2169 8.00011C31.9539 7.73691 31.5595 7.6053 31.4281 7.8685C31.1651 8.0001 31.1651 8.39491 31.4281 8.65811Z" fill="url(#paint12_radial_1_883)"/>
<path d="M31.2966 7.86852C31.5595 7.73692 31.8225 7.86853 31.9539 8.13173C32.2169 8.39492 32.2169 8.65811 32.0854 8.9213C31.8225 9.0529 31.5595 8.92131 31.4281 8.65811C31.2966 8.39492 31.1651 8.00012 31.2966 7.86852Z" fill="url(#paint13_radial_1_883)"/>
<path d="M29.3246 11.9481C29.0617 11.2901 28.5358 11.0269 28.1414 11.1585C27.6155 11.2901 27.484 11.9481 27.6155 12.6061C27.8784 13.2641 28.4043 13.5273 28.7987 13.3957C29.3246 13.1325 29.5875 12.6061 29.3246 11.9481Z" fill="url(#paint14_radial_1_883)"/>
<path d="M28.9302 13.2641C28.5358 13.2641 28.1414 12.8693 27.8785 12.4745C27.747 11.9481 27.8785 11.4217 28.2729 11.1585C28.6673 11.1585 29.0617 11.5533 29.3246 11.9481C29.4561 12.4745 29.3246 13.0009 28.9302 13.2641Z" fill="url(#paint15_radial_1_883)"/>
<path d="M32.3483 12.2113C32.4798 12.8693 33.0057 13.3957 33.5315 13.3957C34.0574 13.2641 34.4518 12.7377 34.3203 12.0797C34.1889 11.4217 33.663 10.8953 33.1371 10.8953C32.7427 10.8953 32.3483 11.5533 32.3483 12.2113Z" fill="url(#paint16_radial_1_883)"/>
<path d="M33.0057 10.8953C33.4001 11.0269 33.7945 11.4217 33.926 11.9481C34.0575 12.6061 33.6631 13.1325 33.2687 13.2641C32.8743 13.1325 32.4799 12.7377 32.3484 12.2113C32.3484 11.6849 32.6113 11.0269 33.0057 10.8953Z" fill="url(#paint17_radial_1_883)"/>
<path d="M32.6112 5.1049C33.0056 5.3681 33.4 5.49969 33.5315 5.23649C33.663 4.97329 33.5315 4.7101 33.1371 4.31531C32.7427 4.05211 32.3483 3.92052 32.2168 4.18372C32.0854 4.44692 32.2168 4.84171 32.6112 5.1049Z" fill="url(#paint18_radial_1_883)"/>
<path d="M32.2168 4.3153C32.3483 4.1837 32.7427 4.3153 33.0056 4.5785C33.2686 4.8417 33.4 5.10491 33.4 5.36811C33.2686 5.49971 32.8742 5.36811 32.6112 5.10491C32.3483 4.84171 32.0854 4.5785 32.2168 4.3153Z" fill="url(#paint19_radial_1_883)"/>
<path d="M36.0294 9.84251C36.2924 10.3689 36.8182 10.7637 37.2126 10.6321C37.607 10.5005 37.607 9.84252 37.3441 9.31612C37.0812 8.78972 36.5553 8.39491 36.1609 8.52651C35.7665 8.65811 35.7665 9.31611 36.0294 9.84251Z" fill="url(#paint20_radial_1_883)"/>
<path d="M36.0294 9.84251C36.2924 10.3689 36.8182 10.7637 37.2126 10.6321C37.607 10.5005 37.607 9.84252 37.3441 9.31612C37.0812 8.78972 36.5553 8.39491 36.1609 8.52651C35.7665 8.65811 35.7665 9.31611 36.0294 9.84251Z" fill="url(#paint21_radial_1_883)"/>
<path d="M36.0294 8.52652C36.2923 8.52652 36.6867 8.78973 36.9497 9.31612C37.2126 9.84252 37.2126 10.3689 36.9497 10.6321C36.6867 10.6321 36.2923 10.3689 36.0294 9.84251C35.7665 9.31611 35.7665 8.78972 36.0294 8.52652Z" fill="url(#paint22_radial_1_883)"/>
<path d="M24.3288 11.1585C24.0658 10.5005 23.6715 10.2374 23.2771 10.369C22.8827 10.5006 22.8826 11.1586 23.0141 11.685C23.277 12.343 23.6714 12.6061 24.0658 12.4745C24.4602 12.3429 24.5917 11.6849 24.3288 11.1585Z" fill="url(#paint23_radial_1_883)"/>
<path d="M24.1974 12.3429C23.9344 12.3429 23.54 11.9481 23.2771 11.4217C23.0142 10.8953 23.1456 10.3689 23.4086 10.1057C23.6715 10.1057 24.0659 10.5005 24.3288 11.0269C24.5918 11.6849 24.4603 12.2113 24.1974 12.3429Z" fill="url(#paint24_radial_1_883)"/>
<g opacity="0.5">
<path opacity="0.5" d="M27.6155 15.8961C27.2211 15.5013 26.8267 15.3697 26.5637 15.6329C26.3008 15.7645 26.4323 16.2909 26.8267 16.6857C27.2211 17.0805 27.6155 17.2121 27.8784 16.9489C28.0099 16.8173 28.0099 16.2909 27.6155 15.8961Z" fill="url(#paint25_radial_1_883)"/>
<path opacity="0.5" d="M27.6155 15.8961C27.2211 15.5013 26.8267 15.3697 26.5637 15.6329C26.3008 15.7645 26.4323 16.2909 26.8267 16.6857C27.2211 17.0805 27.6155 17.2121 27.8784 16.9489C28.0099 16.8173 28.0099 16.2909 27.6155 15.8961Z" fill="url(#paint26_radial_1_883)"/>
<path opacity="0.5" d="M27.8784 16.9489C27.6154 17.0805 27.3525 16.8173 26.9581 16.5541C26.6952 16.2909 26.5637 15.8961 26.6952 15.6329C26.9581 15.5013 27.221 15.7645 27.6154 16.0277C27.8784 16.2909 28.0098 16.6857 27.8784 16.9489Z" fill="url(#paint27_radial_1_883)"/>
</g>
<path d="M26.1694 12.3429C25.9065 12.0797 25.5121 11.9481 25.3806 12.0797C25.2492 12.2113 25.2492 12.6061 25.5121 12.8693C25.775 13.1325 26.1694 13.2641 26.3009 13.1325C26.5638 13.0009 26.4324 12.6061 26.1694 12.3429Z" fill="url(#paint28_radial_1_883)"/>
<path d="M26.4323 13.1325C26.3008 13.1325 25.9064 13.1325 25.775 12.8693C25.512 12.6061 25.512 12.3429 25.512 12.0797C25.6435 12.0797 26.0379 12.0797 26.1694 12.3429C26.4323 12.6061 26.5638 13.0009 26.4323 13.1325Z" fill="url(#paint29_radial_1_883)"/>
<path d="M26.9582 6.15772C27.4841 5.49971 27.747 4.5785 27.2212 4.3153C26.8268 3.92049 26.038 4.18369 25.3806 4.9733C24.8548 5.6313 24.5918 6.55252 25.1177 6.81572C25.5121 7.07892 26.3009 6.81572 26.9582 6.15772Z" fill="url(#paint30_radial_1_883)"/>
<path d="M26.9582 6.15772C27.4841 5.49971 27.747 4.5785 27.2212 4.3153C26.8268 3.92049 26.038 4.18369 25.3806 4.9733C24.8548 5.6313 24.5918 6.55252 25.1177 6.81572C25.5121 7.07892 26.3009 6.81572 26.9582 6.15772Z" fill="url(#paint31_radial_1_883)"/>
<path d="M25.2491 6.81574C25.1177 6.42094 25.2491 5.76293 25.775 5.10492C26.3009 4.44692 26.9582 4.18371 27.3526 4.31531C27.4841 4.71011 27.3526 5.36812 26.8267 6.02613C26.4323 6.81574 25.6435 7.07895 25.2491 6.81574Z" fill="url(#paint32_radial_1_883)"/>
<path d="M28.6673 4.18374C29.0617 4.05214 29.1931 3.65734 29.0617 3.52574C28.9302 3.26254 28.5358 3.26254 28.2729 3.52574C27.8785 3.65734 27.747 4.05214 27.8785 4.18374C27.8785 4.31533 28.2729 4.44693 28.6673 4.18374Z" fill="url(#paint33_radial_1_883)"/>
<path d="M27.8784 4.18371C27.8784 4.05211 28.0099 3.7889 28.4043 3.65729C28.6672 3.52569 29.0616 3.52569 29.1931 3.65729C29.1931 3.7889 29.0616 4.05211 28.6672 4.18371C28.4043 4.31531 28.0099 4.31531 27.8784 4.18371Z" fill="url(#paint34_radial_1_883)"/>
<path d="M36.1609 14.0537C35.8979 14.3169 35.8979 14.7117 36.0294 14.8433C36.1609 14.9749 36.5553 14.8433 36.8182 14.5801C37.0811 14.3169 37.0811 13.9221 36.9497 13.7905C36.6867 13.6589 36.4238 13.7905 36.1609 14.0537Z" fill="url(#paint35_radial_1_883)"/>
<path d="M36.1609 14.0537C35.8979 14.3169 35.8979 14.7117 36.0294 14.8433C36.1609 14.9749 36.5553 14.8433 36.8182 14.5801C37.0811 14.3169 37.0811 13.9221 36.9497 13.7905C36.6867 13.6589 36.4238 13.7905 36.1609 14.0537Z" fill="url(#paint36_radial_1_883)"/>
<path d="M36.8182 13.7905C36.9497 13.9221 36.8182 14.3169 36.6868 14.5801C36.4238 14.8433 36.1609 14.9749 36.0294 14.9749C35.898 14.8433 36.0294 14.4485 36.1609 14.1853C36.4238 13.7905 36.6868 13.6589 36.8182 13.7905Z" fill="url(#paint37_radial_1_883)"/>
<path d="M25.3806 14.0537C24.8547 13.3957 24.0659 13.1325 23.6715 13.5273C23.2771 13.9221 23.4086 14.7117 24.0659 15.3697C24.5918 16.0277 25.3806 16.2909 25.775 15.8961C26.1694 15.5013 26.0379 14.7117 25.3806 14.0537Z" fill="url(#paint38_radial_1_883)"/>
<path d="M25.9065 15.6329C25.5121 15.7645 24.8548 15.5013 24.3289 14.9749C23.803 14.4485 23.6716 13.7905 23.803 13.3957C24.1974 13.2641 24.8548 13.5273 25.3806 14.0537C25.9065 14.5801 26.1694 15.2381 25.9065 15.6329Z" fill="url(#paint39_radial_1_883)"/>
<path opacity="0.5" d="M24.3289 8.78972C24.1836 8.78972 24.0659 8.67186 24.0659 8.5265C24.0659 8.38114 24.1836 8.26331 24.3289 8.26331C24.4741 8.26331 24.5918 8.38114 24.5918 8.5265C24.5918 8.67186 24.4741 8.78972 24.3289 8.78972Z" fill="url(#paint40_radial_1_883)"/>
<path opacity="0.5" d="M24.8547 10.1057C24.7821 10.1057 24.7233 10.0468 24.7233 9.97413C24.7233 9.90145 24.7821 9.84253 24.8547 9.84253C24.9273 9.84253 24.9862 9.90145 24.9862 9.97413C24.9862 10.0468 24.9273 10.1057 24.8547 10.1057Z" fill="url(#paint41_radial_1_883)"/>
<path opacity="0.5" d="M36.6868 12.3429C36.5416 12.3429 36.4238 12.2251 36.4238 12.0797C36.4238 11.9344 36.5416 11.8165 36.6868 11.8165C36.832 11.8165 36.9497 11.9344 36.9497 12.0797C36.9497 12.2251 36.832 12.3429 36.6868 12.3429Z" fill="url(#paint42_radial_1_883)"/>
<path opacity="0.5" d="M35.3721 10.2373C35.2269 10.2373 35.1091 10.1195 35.1091 9.97411C35.1091 9.82875 35.2269 9.71091 35.3721 9.71091C35.5173 9.71091 35.635 9.82875 35.635 9.97411C35.635 10.1195 35.5173 10.2373 35.3721 10.2373Z" fill="url(#paint43_radial_1_883)"/>
<path opacity="0.5" d="M34.0574 16.0277C33.5491 16.0277 33.1371 15.6153 33.1371 15.1065C33.1371 14.5977 33.5491 14.1853 34.0574 14.1853C34.5656 14.1853 34.9777 14.5977 34.9777 15.1065C34.9777 15.6153 34.5656 16.0277 34.0574 16.0277Z" fill="url(#paint44_radial_1_883)"/>
<path opacity="0.5" d="M32.0853 14.4485C31.9401 14.4485 31.8224 14.3307 31.8224 14.1853C31.8224 14.04 31.9401 13.9221 32.0853 13.9221C32.2305 13.9221 32.3483 14.04 32.3483 14.1853C32.3483 14.3307 32.2305 14.4485 32.0853 14.4485Z" fill="url(#paint45_radial_1_883)"/>
<path opacity="0.5" d="M32.3483 15.7645C32.2031 15.7645 32.0853 15.6467 32.0853 15.5013C32.0853 15.3559 32.2031 15.2381 32.3483 15.2381C32.4935 15.2381 32.6112 15.3559 32.6112 15.5013C32.6112 15.6467 32.4935 15.7645 32.3483 15.7645Z" fill="url(#paint46_radial_1_883)"/>
<path opacity="0.5" d="M38.1328 11.8165C37.9876 11.8165 37.8699 11.6987 37.8699 11.5533C37.8699 11.4079 37.9876 11.2901 38.1328 11.2901C38.278 11.2901 38.3958 11.4079 38.3958 11.5533C38.3958 11.6987 38.278 11.8165 38.1328 11.8165Z" fill="url(#paint47_radial_1_883)"/>
<path opacity="0.5" d="M34.4518 8.39491C34.3792 8.39491 34.3203 8.33598 34.3203 8.2633C34.3203 8.19062 34.3792 8.13171 34.4518 8.13171C34.5244 8.13171 34.5833 8.19062 34.5833 8.2633C34.5833 8.33598 34.5244 8.39491 34.4518 8.39491Z" fill="url(#paint48_radial_1_883)"/>
<path opacity="0.5" d="M30.6393 5.23651C30.3489 5.23651 30.1134 5.00084 30.1134 4.71011C30.1134 4.41939 30.3489 4.18372 30.6393 4.18372C30.9297 4.18372 31.1652 4.41939 31.1652 4.71011C31.1652 5.00084 30.9297 5.23651 30.6393 5.23651Z" fill="url(#paint49_radial_1_883)"/>
<path opacity="0.5" d="M32.4797 6.81572C32.3345 6.81572 32.2168 6.69786 32.2168 6.5525C32.2168 6.40714 32.3345 6.28931 32.4797 6.28931C32.625 6.28931 32.7427 6.40714 32.7427 6.5525C32.7427 6.69786 32.625 6.81572 32.4797 6.81572Z" fill="url(#paint50_radial_1_883)"/>
<path opacity="0.5" d="M31.0337 3.78894C30.8885 3.78894 30.7708 3.6711 30.7708 3.52574C30.7708 3.38037 30.8885 3.26251 31.0337 3.26251C31.1789 3.26251 31.2966 3.38037 31.2966 3.52574C31.2966 3.6711 31.1789 3.78894 31.0337 3.78894Z" fill="url(#paint51_radial_1_883)"/>
<path opacity="0.5" d="M33.1371 3.78893C33.0645 3.78893 33.0056 3.73 33.0056 3.65732C33.0056 3.58463 33.0645 3.52573 33.1371 3.52573C33.2097 3.52573 33.2686 3.58463 33.2686 3.65732C33.2686 3.73 33.2097 3.78893 33.1371 3.78893Z" fill="url(#paint52_radial_1_883)"/>
<path opacity="0.5" d="M28.1414 6.9473C27.7057 6.9473 27.3526 6.59379 27.3526 6.15771C27.3526 5.72163 27.7057 5.3681 28.1414 5.3681C28.577 5.3681 28.9302 5.72163 28.9302 6.15771C28.9302 6.59379 28.577 6.9473 28.1414 6.9473Z" fill="url(#paint53_radial_1_883)"/>
<path opacity="0.5" d="M30.1134 8.00014C29.9682 8.00014 29.8505 7.8823 29.8505 7.73695C29.8505 7.59159 29.9682 7.47375 30.1134 7.47375C30.2586 7.47375 30.3763 7.59159 30.3763 7.73695C30.3763 7.8823 30.2586 8.00014 30.1134 8.00014Z" fill="url(#paint54_radial_1_883)"/>
<path opacity="0.5" d="M24.1974 7.07893C24.0522 7.07893 23.9345 6.9611 23.9345 6.81574C23.9345 6.67038 24.0522 6.55252 24.1974 6.55252C24.3426 6.55252 24.4603 6.67038 24.4603 6.81574C24.4603 6.9611 24.3426 7.07893 24.1974 7.07893Z" fill="url(#paint55_radial_1_883)"/>
<path opacity="0.5" d="M26.038 10.2373C25.8201 10.2373 25.6436 10.0606 25.6436 9.84251C25.6436 9.62447 25.8201 9.44772 26.038 9.44772C26.2558 9.44772 26.4324 9.62447 26.4324 9.84251C26.4324 10.0606 26.2558 10.2373 26.038 10.2373Z" fill="url(#paint56_radial_1_883)"/>
<path opacity="0.5" d="M26.6952 11.5533C26.55 11.5533 26.4323 11.4355 26.4323 11.2901C26.4323 11.1447 26.55 11.0269 26.6952 11.0269C26.8404 11.0269 26.9581 11.1447 26.9581 11.2901C26.9581 11.4355 26.8404 11.5533 26.6952 11.5533Z" fill="url(#paint57_radial_1_883)"/>
<path opacity="0.5" d="M30.6393 13.1325C30.4941 13.1325 30.3764 13.0147 30.3764 12.8693C30.3764 12.724 30.4941 12.6061 30.6393 12.6061C30.7845 12.6061 30.9022 12.724 30.9022 12.8693C30.9022 13.0147 30.7845 13.1325 30.6393 13.1325Z" fill="url(#paint58_radial_1_883)"/>
<path opacity="0.5" d="M27.3525 14.3169C27.2073 14.3169 27.0896 14.1991 27.0896 14.0537C27.0896 13.9084 27.2073 13.7905 27.3525 13.7905C27.4978 13.7905 27.6155 13.9084 27.6155 14.0537C27.6155 14.1991 27.4978 14.3169 27.3525 14.3169Z" fill="url(#paint59_radial_1_883)"/>
<path opacity="0.5" d="M27.747 15.2381C27.6017 15.2381 27.484 15.1203 27.484 14.9749C27.484 14.8296 27.6017 14.7117 27.747 14.7117C27.8922 14.7117 28.0099 14.8296 28.0099 14.9749C28.0099 15.1203 27.8922 15.2381 27.747 15.2381Z" fill="url(#paint60_radial_1_883)"/>
<path opacity="0.5" d="M28.7987 18.0017C28.5083 18.0017 28.2728 17.766 28.2728 17.4753C28.2728 17.1846 28.5083 16.9489 28.7987 16.9489C29.0891 16.9489 29.3246 17.1846 29.3246 17.4753C29.3246 17.766 29.0891 18.0017 28.7987 18.0017Z" fill="url(#paint61_radial_1_883)"/>
<path opacity="0.5" d="M27.6155 18.0017C27.5429 18.0017 27.484 17.9428 27.484 17.8701C27.484 17.7974 27.5429 17.7385 27.6155 17.7385C27.6881 17.7385 27.7469 17.7974 27.7469 17.8701C27.7469 17.9428 27.6881 18.0017 27.6155 18.0017Z" fill="url(#paint62_radial_1_883)"/>
<path opacity="0.5" d="M25.9065 17.0805C25.8339 17.0805 25.775 17.0216 25.775 16.9489C25.775 16.8762 25.8339 16.8173 25.9065 16.8173C25.9791 16.8173 26.038 16.8762 26.038 16.9489C26.038 17.0216 25.9791 17.0805 25.9065 17.0805Z" fill="url(#paint63_radial_1_883)"/>
<path opacity="0.5" d="M23.0142 12.8693C22.9416 12.8693 22.8827 12.8104 22.8827 12.7377C22.8827 12.6651 22.9416 12.6061 23.0142 12.6061C23.0868 12.6061 23.1456 12.6651 23.1456 12.7377C23.1456 12.8104 23.0868 12.8693 23.0142 12.8693Z" fill="url(#paint64_radial_1_883)"/>
<path opacity="0.5" d="M22.7512 9.31613C22.6786 9.31613 22.6198 9.2572 22.6198 9.18451C22.6198 9.11183 22.6786 9.05292 22.7512 9.05292C22.8238 9.05292 22.8827 9.11183 22.8827 9.18451C22.8827 9.2572 22.8238 9.31613 22.7512 9.31613Z" fill="url(#paint65_radial_1_883)"/>
<path opacity="0.5" d="M30.6393 13.6589C27.9528 13.6589 25.775 11.4789 25.775 8.78974C25.775 6.10056 27.9528 3.92053 30.6393 3.92053C33.3257 3.92053 35.5035 6.10056 35.5035 8.78974C35.5035 11.4789 33.3257 13.6589 30.6393 13.6589Z" fill="url(#paint66_radial_1_883)"/>
<defs>
<radialGradient id="paint0_radial_1_883" cx="0" cy="0" r="1" gradientUnits="userSpaceOnUse" gradientTransform="translate(36.2051 4.14538) rotate(159.769) scale(72.4538 57.7818)">
<stop offset="0.0814815" stop-color="#FFE245"/>
<stop offset="0.5259" stop-color="#DE007B" stop-opacity="0.4741"/>
<stop offset="1" stop-color="#E38427" stop-opacity="0"/>
</radialGradient>
<radialGradient id="paint1_radial_1_883" cx="0" cy="0" r="1" gradientUnits="userSpaceOnUse" gradientTransform="translate(32.3537 6.35856) rotate(159.769) scale(67.6766 23.9816)">
<stop offset="0.0814815" stop-color="#FFE245"/>
<stop offset="0.5259" stop-color="#DE007B" stop-opacity="0.4741"/>
<stop offset="1" stop-color="#E38427" stop-opacity="0"/>
</radialGradient>
<radialGradient id="paint2_radial_1_883" cx="0" cy="0" r="1" gradientUnits="userSpaceOnUse" gradientTransform="translate(30.9476 4.20811) rotate(159.768) scale(61.3854 61.4328)">
<stop offset="0.0814815" stop-color="#FFE245"/>
<stop offset="0.5259" stop-color="#DE007B" stop-opacity="0.4741"/>
<stop offset="1" stop-color="#E38427" stop-opacity="0"/>
</radialGradient>
<radialGradient id="paint3_radial_1_883" cx="0" cy="0" r="1" gradientUnits="userSpaceOnUse" gradientTransform="translate(33.3224 8.42741) rotate(159.768) scale(63.4695 63.5185)">
<stop offset="0.0814815" stop-color="#FFE245"/>
<stop offset="0.5259" stop-color="#DE007B" stop-opacity="0.4741"/>
<stop offset="1" stop-color="#E38427" stop-opacity="0"/>
</radialGradient>
<radialGradient id="paint4_radial_1_883" cx="0" cy="0" r="1" gradientUnits="userSpaceOnUse" gradientTransform="translate(30.7986 4.96429) rotate(159.854) scale(13.2332 13.2434)">
<stop offset="0.0814815" stop-color="#FFE245"/>
<stop offset="0.9963" stop-color="#E38427"/>
</radialGradient>
<radialGradient id="paint5_radial_1_883" cx="0" cy="0" r="1" gradientUnits="userSpaceOnUse" gradientTransform="translate(30.8316 4.29008) rotate(159.854) scale(14.7957 14.8071)">
<stop offset="0.0814815" stop-color="#FFE245"/>
<stop offset="0.9963" stop-color="#E38427"/>
</radialGradient>
<radialGradient id="paint6_radial_1_883" cx="0" cy="0" r="1" gradientUnits="userSpaceOnUse" gradientTransform="translate(30.7008 4.11001) rotate(159.854) scale(10.99 10.9985)">
<stop offset="0.0814815" stop-color="#FFE245"/>
<stop offset="0.9963" stop-color="#E38427"/>
</radialGradient>
<radialGradient id="paint7_radial_1_883" cx="0" cy="0" r="1" gradientUnits="userSpaceOnUse" gradientTransform="translate(31.519 5.39365) rotate(159.854) scale(12.4168 12.4264)">
<stop offset="0.0814815" stop-color="#FFE245"/>
<stop offset="0.9963" stop-color="#E38427"/>
</radialGradient>
<radialGradient id="paint8_radial_1_883" cx="0" cy="0" r="1" gradientUnits="userSpaceOnUse" gradientTransform="translate(31.2657 25.7155) rotate(159.854) scale(11.4936 11.5025)">
<stop offset="0.0814815" stop-color="#FFE245"/>
<stop offset="0.9963" stop-color="#E38427"/>
</radialGradient>
<radialGradient id="paint9_radial_1_883" cx="0" cy="0" r="1" gradientUnits="userSpaceOnUse" gradientTransform="translate(33.543 4.64377) rotate(139.908) scale(4.03688 4.03758)">
<stop offset="0.0814815" stop-color="#FFE245"/>
<stop offset="0.9963" stop-color="#E38427"/>
</radialGradient>
<radialGradient id="paint10_radial_1_883" cx="0" cy="0" r="1" gradientUnits="userSpaceOnUse" gradientTransform="translate(33.4738 4.77153) rotate(139.908) scale(3.90495 3.90563)">
<stop offset="0.0814815" stop-color="#FFE245"/>
<stop offset="0.9963" stop-color="#E38427"/>
</radialGradient>
<radialGradient id="paint11_radial_1_883" cx="0" cy="0" r="1" gradientUnits="userSpaceOnUse" gradientTransform="translate(31.1042 7.76322) rotate(139.908) scale(1.97112 1.45075)">
<stop offset="0.0814815" stop-color="#FFE245"/>
<stop offset="0.9963" stop-color="#E38427"/>
</radialGradient>
<radialGradient id="paint12_radial_1_883" cx="0" cy="0" r="1" gradientUnits="userSpaceOnUse" gradientTransform="translate(31.1042 7.76322) rotate(139.908) scale(1.97112 1.45075)">
<stop offset="0.0814815" stop-color="#FFE245"/>
<stop offset="0.9963" stop-color="#E38427"/>
</radialGradient>
<radialGradient id="paint13_radial_1_883" cx="0" cy="0" r="1" gradientUnits="userSpaceOnUse" gradientTransform="translate(31.066 7.82031) rotate(139.909) scale(1.90676 1.40337)">
<stop offset="0.0814815" stop-color="#FFE245"/>
<stop offset="0.9963" stop-color="#E38427"/>
</radialGradient>
<radialGradient id="paint14_radial_1_883" cx="0" cy="0" r="1" gradientUnits="userSpaceOnUse" gradientTransform="translate(29.3295 13.5561) rotate(-18.0255) scale(3.51199 2.58664)">
<stop offset="0.0814815" stop-color="#FFE245"/>
<stop offset="0.9963" stop-color="#E38427"/>
</radialGradient>
<radialGradient id="paint15_radial_1_883" cx="0" cy="0" r="1" gradientUnits="userSpaceOnUse" gradientTransform="translate(29.4308 13.4872) rotate(-18.0253) scale(3.39746 2.50226)">
<stop offset="0.0814815" stop-color="#FFE245"/>
<stop offset="0.9963" stop-color="#E38427"/>
</radialGradient>
<radialGradient id="paint16_radial_1_883" cx="0" cy="0" r="1" gradientUnits="userSpaceOnUse" gradientTransform="translate(32.7485 10.5074) rotate(172.925) scale(3.82475 2.81754)">
<stop offset="0.0814815" stop-color="#FFE245"/>
<stop offset="0.9963" stop-color="#E38427"/>
</radialGradient>
<radialGradient id="paint17_radial_1_883" cx="0" cy="0" r="1" gradientUnits="userSpaceOnUse" gradientTransform="translate(32.626 10.5599) rotate(172.925) scale(3.69987 2.72555)">
<stop offset="0.0814815" stop-color="#FFE245"/>
<stop offset="0.9963" stop-color="#E38427"/>
</radialGradient>
<radialGradient id="paint18_radial_1_883" cx="0" cy="0" r="1" gradientUnits="userSpaceOnUse" gradientTransform="translate(31.9336 4.26309) rotate(128.464) scale(1.77233 1.77193)">
<stop offset="0.0814815" stop-color="#FFE245"/>
<stop offset="0.9963" stop-color="#E38427"/>
</radialGradient>
<radialGradient id="paint19_radial_1_883" cx="0" cy="0" r="1" gradientUnits="userSpaceOnUse" gradientTransform="translate(31.9149 4.32403) rotate(128.463) scale(1.71435 1.71396)">
<stop offset="0.0814815" stop-color="#FFE245"/>
<stop offset="0.9963" stop-color="#E38427"/>
</radialGradient>
<radialGradient id="paint20_radial_1_883" cx="0" cy="0" r="1" gradientUnits="userSpaceOnUse" gradientTransform="translate(35.6975 8.28554) rotate(154.991) scale(2.61151 2.61322)">
<stop offset="0.0814815" stop-color="#FFE245"/>
<stop offset="0.9963" stop-color="#E38427"/>
</radialGradient>
<radialGradient id="paint21_radial_1_883" cx="0" cy="0" r="1" gradientUnits="userSpaceOnUse" gradientTransform="translate(35.6975 8.28554) rotate(154.991) scale(2.61151 2.61322)">
<stop offset="0.0814815" stop-color="#FFE245"/>
<stop offset="0.9963" stop-color="#E38427"/>
</radialGradient>
<radialGradient id="paint22_radial_1_883" cx="0" cy="0" r="1" gradientUnits="userSpaceOnUse" gradientTransform="translate(35.6327 8.35364) rotate(154.991) scale(2.5263 2.52794)">
<stop offset="0.0814815" stop-color="#FFE245"/>
<stop offset="0.9963" stop-color="#E38427"/>
</radialGradient>
<radialGradient id="paint23_radial_1_883" cx="0" cy="0" r="1" gradientUnits="userSpaceOnUse" gradientTransform="translate(24.5504 12.6706) rotate(-21.5743) scale(2.61137 2.61329)">
<stop offset="0.0814815" stop-color="#FFE245"/>
<stop offset="0.9963" stop-color="#E38427"/>
</radialGradient>
<radialGradient id="paint24_radial_1_883" cx="0" cy="0" r="1" gradientUnits="userSpaceOnUse" gradientTransform="translate(24.6192 12.6064) rotate(-21.5744) scale(2.52604 2.52791)">
<stop offset="0.0814815" stop-color="#FFE245"/>
<stop offset="0.9963" stop-color="#E38427"/>
</radialGradient>
<radialGradient id="paint25_radial_1_883" cx="0" cy="0" r="1" gradientUnits="userSpaceOnUse" gradientTransform="translate(28.2147 17.0265) rotate(-41.9322) scale(1.9994 1.99961)">
<stop offset="0.0814815" stop-color="#FFE245"/>
<stop offset="0.9963" stop-color="#E38427"/>
</radialGradient>
<radialGradient id="paint26_radial_1_883" cx="0" cy="0" r="1" gradientUnits="userSpaceOnUse" gradientTransform="translate(28.2147 17.0265) rotate(-41.9322) scale(1.9994 1.99961)">
<stop offset="0.0814815" stop-color="#FFE245"/>
<stop offset="0.9963" stop-color="#E38427"/>
</radialGradient>
<radialGradient id="paint27_radial_1_883" cx="0" cy="0" r="1" gradientUnits="userSpaceOnUse" gradientTransform="translate(28.2469 16.9621) rotate(-41.9321) scale(1.93416 1.93437)">
<stop offset="0.0814815" stop-color="#FFE245"/>
<stop offset="0.9963" stop-color="#E38427"/>
</radialGradient>
<radialGradient id="paint28_radial_1_883" cx="0" cy="0" r="1" gradientUnits="userSpaceOnUse" gradientTransform="translate(26.6753 13.2215) rotate(-41.9318) scale(1.58204 1.58221)">
<stop offset="0.0814815" stop-color="#FFE245"/>
<stop offset="0.9963" stop-color="#E38427"/>
</radialGradient>
<radialGradient id="paint29_radial_1_883" cx="0" cy="0" r="1" gradientUnits="userSpaceOnUse" gradientTransform="translate(26.7008 13.1705) rotate(-41.9317) scale(1.53035 1.53051)">
<stop offset="0.0814815" stop-color="#FFE245"/>
<stop offset="0.9963" stop-color="#E38427"/>
</radialGradient>
<radialGradient id="paint30_radial_1_883" cx="0" cy="0" r="1" gradientUnits="userSpaceOnUse" gradientTransform="translate(25.0836 7.46354) rotate(40.2754) scale(3.69184 3.69247)">
<stop offset="0.0814815" stop-color="#FFE245"/>
<stop offset="0.9963" stop-color="#E38427"/>
</radialGradient>
<radialGradient id="paint31_radial_1_883" cx="0" cy="0" r="1" gradientUnits="userSpaceOnUse" gradientTransform="translate(25.0836 7.46354) rotate(40.2754) scale(3.69184 3.69247)">
<stop offset="0.0814815" stop-color="#FFE245"/>
<stop offset="0.9963" stop-color="#E38427"/>
</radialGradient>
<radialGradient id="paint32_radial_1_883" cx="0" cy="0" r="1" gradientUnits="userSpaceOnUse" gradientTransform="translate(25.2094 7.50632) rotate(40.2755) scale(3.57124 3.57185)">
<stop offset="0.0814815" stop-color="#FFE245"/>
<stop offset="0.9963" stop-color="#E38427"/>
</radialGradient>
<radialGradient id="paint33_radial_1_883" cx="0" cy="0" r="1" gradientUnits="userSpaceOnUse" gradientTransform="translate(27.7133 4.44078) rotate(63.0022) scale(1.58261 1.58167)">
<stop offset="0.0814815" stop-color="#FFE245"/>
<stop offset="0.9963" stop-color="#E38427"/>
</radialGradient>
<radialGradient id="paint34_radial_1_883" cx="0" cy="0" r="1" gradientUnits="userSpaceOnUse" gradientTransform="translate(27.7558 4.47855) rotate(63.0028) scale(1.53094 1.53001)">
<stop offset="0.0814815" stop-color="#FFE245"/>
<stop offset="0.9963" stop-color="#E38427"/>
</radialGradient>
<radialGradient id="paint35_radial_1_883" cx="0" cy="0" r="1" gradientUnits="userSpaceOnUse" gradientTransform="translate(36.9052 13.5185) rotate(-142.146) scale(1.58194 1.58233)">
<stop offset="0.0814815" stop-color="#FFE245"/>
<stop offset="0.9963" stop-color="#E38427"/>
</radialGradient>
<radialGradient id="paint36_radial_1_883" cx="0" cy="0" r="1" gradientUnits="userSpaceOnUse" gradientTransform="translate(36.9052 13.5185) rotate(-142.146) scale(1.58194 1.58233)">
<stop offset="0.0814815" stop-color="#FFE245"/>
<stop offset="0.9963" stop-color="#E38427"/>
</radialGradient>
<radialGradient id="paint37_radial_1_883" cx="0" cy="0" r="1" gradientUnits="userSpaceOnUse" gradientTransform="translate(36.8506 13.5025) rotate(-142.145) scale(1.53013 1.53052)">
<stop offset="0.0814815" stop-color="#FFE245"/>
<stop offset="0.9963" stop-color="#E38427"/>
</radialGradient>
<radialGradient id="paint38_radial_1_883" cx="0" cy="0" r="1" gradientUnits="userSpaceOnUse" gradientTransform="translate(26.4322 15.9112) rotate(-42.1188) scale(3.49865 3.49901)">
<stop offset="0.0814815" stop-color="#FFE245"/>
<stop offset="0.9963" stop-color="#E38427"/>
</radialGradient>
<radialGradient id="paint39_radial_1_883" cx="0" cy="0" r="1" gradientUnits="userSpaceOnUse" gradientTransform="translate(26.4884 15.7984) rotate(-42.1188) scale(3.38434 3.38469)">
<stop offset="0.0814815" stop-color="#FFE245"/>
<stop offset="0.9963" stop-color="#E38427"/>
</radialGradient>
<radialGradient id="paint40_radial_1_883" cx="0" cy="0" r="1" gradientUnits="userSpaceOnUse" gradientTransform="translate(24.0738 8.28055) rotate(159.853) scale(0.612827 0.613309)">
<stop offset="0.0814815" stop-color="#FFE245"/>
<stop offset="0.9963" stop-color="#E38427"/>
</radialGradient>
<radialGradient id="paint41_radial_1_883" cx="0" cy="0" r="1" gradientUnits="userSpaceOnUse" gradientTransform="translate(24.7582 9.74444) rotate(159.854) scale(0.393907 0.394212)">
<stop offset="0.0814815" stop-color="#FFE245"/>
<stop offset="0.9963" stop-color="#E38427"/>
</radialGradient>
<radialGradient id="paint42_radial_1_883" cx="0" cy="0" r="1" gradientUnits="userSpaceOnUse" gradientTransform="translate(36.3923 11.7488) rotate(159.854) scale(0.700517 0.701056)">
<stop offset="0.0814815" stop-color="#FFE245"/>
<stop offset="0.9963" stop-color="#E38427"/>
</radialGradient>
<radialGradient id="paint43_radial_1_883" cx="0" cy="0" r="1" gradientUnits="userSpaceOnUse" gradientTransform="translate(35.1194 9.73911) rotate(159.853) scale(0.52539 0.525806)">
<stop offset="0.0814815" stop-color="#FFE245"/>
<stop offset="0.9963" stop-color="#E38427"/>
</radialGradient>
<radialGradient id="paint44_radial_1_883" cx="0" cy="0" r="1" gradientUnits="userSpaceOnUse" gradientTransform="translate(33.3241 14.1968) rotate(159.853) scale(2.01373 2.0153)">
<stop offset="0.0814815" stop-color="#FFE245"/>
<stop offset="0.9963" stop-color="#E38427"/>
</radialGradient>
<radialGradient id="paint45_radial_1_883" cx="0" cy="0" r="1" gradientUnits="userSpaceOnUse" gradientTransform="translate(31.7628 13.8511) rotate(159.854) scale(0.7443 0.744872)">
<stop offset="0.0814815" stop-color="#FFE245"/>
<stop offset="0.9963" stop-color="#E38427"/>
</radialGradient>
<radialGradient id="paint46_radial_1_883" cx="0" cy="0" r="1" gradientUnits="userSpaceOnUse" gradientTransform="translate(32.1227 15.1812) rotate(159.854) scale(0.569039 0.569477)">
<stop offset="0.0814815" stop-color="#FFE245"/>
<stop offset="0.9963" stop-color="#E38427"/>
</radialGradient>
<radialGradient id="paint47_radial_1_883" cx="0" cy="0" r="1" gradientUnits="userSpaceOnUse" gradientTransform="translate(37.9357 11.2431) rotate(159.854) scale(0.569169 0.569608)">
<stop offset="0.0814815" stop-color="#FFE245"/>
<stop offset="0.9963" stop-color="#E38427"/>
</radialGradient>
<radialGradient id="paint48_radial_1_883" cx="0" cy="0" r="1" gradientUnits="userSpaceOnUse" gradientTransform="translate(34.3366 8.11092) rotate(159.854) scale(0.437826 0.438161)">
<stop offset="0.0814815" stop-color="#FFE245"/>
<stop offset="0.9963" stop-color="#E38427"/>
</radialGradient>
<radialGradient id="paint49_radial_1_883" cx="0" cy="0" r="1" gradientUnits="userSpaceOnUse" gradientTransform="translate(30.2271 4.16724) rotate(159.854) scale(1.22577 1.22672)">
<stop offset="0.0814815" stop-color="#FFE245"/>
<stop offset="0.9963" stop-color="#E38427"/>
</radialGradient>
<radialGradient id="paint50_radial_1_883" cx="0" cy="0" r="1" gradientUnits="userSpaceOnUse" gradientTransform="translate(32.3159 6.33644) rotate(159.853) scale(0.525262 0.525674)">
<stop offset="0.0814815" stop-color="#FFE245"/>
<stop offset="0.9963" stop-color="#E38427"/>
</radialGradient>
<radialGradient id="paint51_radial_1_883" cx="0" cy="0" r="1" gradientUnits="userSpaceOnUse" gradientTransform="translate(30.8145 3.18157) rotate(159.853) scale(0.612825 0.613324)">
<stop offset="0.0814815" stop-color="#FFE245"/>
<stop offset="0.9963" stop-color="#E38427"/>
</radialGradient>
<radialGradient id="paint52_radial_1_883" cx="0" cy="0" r="1" gradientUnits="userSpaceOnUse" gradientTransform="translate(33.0159 3.38475) rotate(159.854) scale(0.437695 0.438029)">
<stop offset="0.0814815" stop-color="#FFE245"/>
<stop offset="0.9963" stop-color="#E38427"/>
</radialGradient>
<radialGradient id="paint53_radial_1_883" cx="0" cy="0" r="1" gradientUnits="userSpaceOnUse" gradientTransform="translate(27.5048 5.28631) rotate(159.854) scale(1.79481 1.79619)">
<stop offset="0.0814815" stop-color="#FFE245"/>
<stop offset="0.9963" stop-color="#E38427"/>
</radialGradient>
<radialGradient id="paint54_radial_1_883" cx="0" cy="0" r="1" gradientUnits="userSpaceOnUse" gradientTransform="translate(29.907 7.3583) rotate(159.854) scale(0.700511 0.701038)">
<stop offset="0.0814815" stop-color="#FFE245"/>
<stop offset="0.9963" stop-color="#E38427"/>
</radialGradient>
<radialGradient id="paint55_radial_1_883" cx="0" cy="0" r="1" gradientUnits="userSpaceOnUse" gradientTransform="translate(23.9397 6.48996) rotate(159.853) scale(0.569037 0.569491)">
<stop offset="0.0814815" stop-color="#FFE245"/>
<stop offset="0.9963" stop-color="#E38427"/>
</radialGradient>
<radialGradient id="paint56_radial_1_883" cx="0" cy="0" r="1" gradientUnits="userSpaceOnUse" gradientTransform="translate(25.7721 9.43667) rotate(159.854) scale(0.788084 0.788689)">
<stop offset="0.0814815" stop-color="#FFE245"/>
<stop offset="0.9963" stop-color="#E38427"/>
</radialGradient>
<radialGradient id="paint57_radial_1_883" cx="0" cy="0" r="1" gradientUnits="userSpaceOnUse" gradientTransform="translate(26.3716 10.9122) rotate(159.854) scale(0.700379 0.700906)">
<stop offset="0.0814815" stop-color="#FFE245"/>
<stop offset="0.9963" stop-color="#E38427"/>
</radialGradient>
<radialGradient id="paint58_radial_1_883" cx="0" cy="0" r="1" gradientUnits="userSpaceOnUse" gradientTransform="translate(30.3977 12.5663) rotate(159.854) scale(0.612947 0.613408)">
<stop offset="0.0814815" stop-color="#FFE245"/>
<stop offset="0.9963" stop-color="#E38427"/>
</radialGradient>
<radialGradient id="paint59_radial_1_883" cx="0" cy="0" r="1" gradientUnits="userSpaceOnUse" gradientTransform="translate(27.1269 13.6777) rotate(159.853) scale(0.656733 0.657256)">
<stop offset="0.0814815" stop-color="#FFE245"/>
<stop offset="0.9963" stop-color="#E38427"/>
</radialGradient>
<radialGradient id="paint60_radial_1_883" cx="0" cy="0" r="1" gradientUnits="userSpaceOnUse" gradientTransform="translate(27.5315 14.7322) rotate(159.854) scale(0.569039 0.569477)">
<stop offset="0.0814815" stop-color="#FFE245"/>
<stop offset="0.9963" stop-color="#E38427"/>
</radialGradient>
<radialGradient id="paint61_radial_1_883" cx="0" cy="0" r="1" gradientUnits="userSpaceOnUse" gradientTransform="translate(28.4091 16.9513) rotate(159.854) scale(1.13821 1.13909)">
<stop offset="0.0814815" stop-color="#FFE245"/>
<stop offset="0.9963" stop-color="#E38427"/>
</radialGradient>
<radialGradient id="paint62_radial_1_883" cx="0" cy="0" r="1" gradientUnits="userSpaceOnUse" gradientTransform="translate(27.5194 17.7644) rotate(159.854) scale(0.350256 0.350528)">
<stop offset="0.0814815" stop-color="#FFE245"/>
<stop offset="0.9963" stop-color="#E38427"/>
</radialGradient>
<radialGradient id="paint63_radial_1_883" cx="0" cy="0" r="1" gradientUnits="userSpaceOnUse" gradientTransform="translate(25.7534 16.7777) rotate(159.855) scale(0.306472 0.306696)">
<stop offset="0.0814815" stop-color="#FFE245"/>
<stop offset="0.9963" stop-color="#E38427"/>
</radialGradient>
<radialGradient id="paint64_radial_1_883" cx="0" cy="0" r="1" gradientUnits="userSpaceOnUse" gradientTransform="translate(22.9024 12.5933) rotate(159.855) scale(0.437818 0.438137)">
<stop offset="0.0814815" stop-color="#FFE245"/>
<stop offset="0.9963" stop-color="#E38427"/>
</radialGradient>
<radialGradient id="paint65_radial_1_883" cx="0" cy="0" r="1" gradientUnits="userSpaceOnUse" gradientTransform="translate(22.5903 9.03477) rotate(159.853) scale(0.306477 0.306728)">
<stop offset="0.0814815" stop-color="#FFE245"/>
<stop offset="0.9963" stop-color="#E38427"/>
</radialGradient>
<radialGradient id="paint66_radial_1_883" cx="0" cy="0" r="1" gradientUnits="userSpaceOnUse" gradientTransform="translate(30.7586 5.51508) rotate(159.854) scale(7.70976 7.71573)">
<stop offset="0.0814815" stop-color="#FFE245"/>
<stop offset="0.9963" stop-color="#E38427"/>
</radialGradient>
</defs>
</svg>
