<svg width="37" height="37" viewBox="0 0 37 37" fill="none" xmlns="http://www.w3.org/2000/svg">
<circle cx="18.5" cy="18.5" r="18" stroke="url(#paint0_linear_320_6)"/>
<path d="M24.9843 17.8068C24.9624 17.7155 24.9172 17.6308 24.8528 17.5603C24.7883 17.4899 24.7066 17.4359 24.6151 17.4031L20.3611 15.8733L21.4394 10.6817C21.4642 10.5615 21.4482 10.4368 21.3937 10.3259C21.3392 10.215 21.2491 10.1237 21.1366 10.0655C21.023 10.0076 20.8926 9.98728 20.7657 10.0078C20.6388 10.0283 20.5225 10.0884 20.435 10.1789L12.1634 18.678C12.0956 18.7454 12.0465 18.8281 12.0207 18.9184C11.9949 19.0087 11.9932 19.1038 12.0157 19.195C12.0388 19.2858 12.0844 19.3699 12.1487 19.4402C12.213 19.5105 12.294 19.5649 12.3849 19.5987L16.6389 21.1285L15.5606 26.3201C15.5358 26.4403 15.5519 26.565 15.6063 26.6759C15.6608 26.7868 15.7509 26.878 15.8634 26.9363C15.9482 26.9773 16.0417 26.9991 16.1367 27C16.2169 27.0003 16.2964 26.9848 16.3701 26.9543C16.4438 26.9238 16.5102 26.8791 16.565 26.8229L24.8366 18.3238C24.9044 18.2564 24.9535 18.1737 24.9793 18.0834C25.0051 17.9931 25.0068 17.898 24.9843 17.8068Z" fill="url(#paint1_linear_320_6)"/>
<defs>
<linearGradient id="paint0_linear_320_6" x1="18.5" y1="1" x2="18.5" y2="36" gradientUnits="userSpaceOnUse">
<stop stop-color="#7446F0"/>
<stop offset="1" stop-color="#D339F7"/>
</linearGradient>
<linearGradient id="paint1_linear_320_6" x1="18.5" y1="10" x2="18.5" y2="27" gradientUnits="userSpaceOnUse">
<stop stop-color="#7446F0"/>
<stop offset="1" stop-color="#D339F7"/>
</linearGradient>
</defs>
</svg>
