<svg width="44" height="44" viewBox="0 0 44 44" fill="none" xmlns="http://www.w3.org/2000/svg">
<circle cx="22" cy="22" r="21.5" stroke="url(#paint0_linear_320_2)"/>
<path d="M31.9246 23.7434C31.8443 23.5463 31.7091 23.3781 31.5362 23.2601C31.3633 23.142 31.1604 23.0794 30.953 23.08H22.5503V10.0831C22.5503 9.79583 22.4397 9.52034 22.2427 9.31723C22.0457 9.11411 21.7786 9 21.5 9C21.2214 9 20.9543 9.11411 20.7573 9.31723C20.5603 9.52034 20.4497 9.79583 20.4497 10.0831V23.08H12.047C11.8396 23.0794 11.6367 23.142 11.4638 23.2601C11.2909 23.3781 11.1557 23.5463 11.0754 23.7434C10.9997 23.9435 10.9805 24.1615 11.02 24.3724C11.0595 24.5832 11.1561 24.7782 11.2986 24.9348L20.7516 34.6825C20.9508 34.8859 21.2197 35 21.5 35C21.7803 35 22.0492 34.8859 22.2484 34.6825L31.7014 24.9348C31.8439 24.7782 31.9405 24.5832 31.98 24.3724C32.0195 24.1615 32.0003 23.9435 31.9246 23.7434V23.7434Z" fill="url(#paint1_linear_320_2)"/>
<defs>
<linearGradient id="paint0_linear_320_2" x1="22" y1="1" x2="22" y2="43" gradientUnits="userSpaceOnUse">
<stop stop-color="#F02965"/>
<stop offset="1" stop-color="#FE4242"/>
</linearGradient>
<linearGradient id="paint1_linear_320_2" x1="21.5" y1="35" x2="21.5" y2="9" gradientUnits="userSpaceOnUse">
<stop stop-color="#F04665"/>
<stop offset="1" stop-color="#F73939"/>
</linearGradient>
</defs>
</svg>
