<svg width="37" height="37" viewBox="0 0 37 37" fill="none" xmlns="http://www.w3.org/2000/svg">
<circle cx="18.5" cy="18.5" r="18" stroke="url(#paint0_linear_320_4)"/>
<path d="M28.9224 15.1602C28.8286 14.8831 28.6477 14.6391 28.4035 14.4601C28.1593 14.2812 27.8632 14.1757 27.554 14.1574L21.9866 13.7968L19.9246 8.91481C19.8121 8.646 19.6161 8.4151 19.3621 8.252C19.1081 8.0889 18.8078 8.00111 18.5 8C18.1922 8.00111 17.8919 8.0889 17.6379 8.252C17.3839 8.4151 17.1879 8.646 17.0754 8.91481L14.9759 13.8231L9.44599 14.1574C9.13716 14.1768 8.84166 14.2828 8.5977 14.4616C8.35374 14.6404 8.17255 14.8837 8.07758 15.1602C7.98005 15.4409 7.97435 15.7426 8.06122 16.0264C8.14809 16.3101 8.32354 16.563 8.56496 16.7523L12.8202 20.1301L11.5548 24.8009C11.4673 25.1169 11.4831 25.4503 11.6001 25.7578C11.7171 26.0652 11.9299 26.3326 12.2109 26.525C12.4837 26.7087 12.8087 26.8119 13.1443 26.8213C13.4799 26.8307 13.8109 26.7459 14.0948 26.5778L18.4906 23.9653H18.5094L23.2426 26.7713C23.4854 26.9194 23.7684 26.9988 24.058 27C24.2944 26.9983 24.5273 26.9457 24.7387 26.8463C24.95 26.7468 25.1343 26.6033 25.2773 26.4266C25.4203 26.2499 25.5183 26.0448 25.5636 25.827C25.609 25.6092 25.6005 25.3846 25.5389 25.1704L24.1986 20.0597L28.435 16.7523C28.6765 16.563 28.8519 16.3101 28.9388 16.0264C29.0257 15.7426 29.02 15.4409 28.9224 15.1602Z" fill="url(#paint1_linear_320_4)"/>
<defs>
<linearGradient id="paint0_linear_320_4" x1="18.5" y1="1" x2="18.5" y2="36" gradientUnits="userSpaceOnUse">
<stop stop-color="#4694F0"/>
<stop offset="1" stop-color="#399CF7"/>
</linearGradient>
<linearGradient id="paint1_linear_320_4" x1="18.5" y1="8" x2="18.5" y2="27" gradientUnits="userSpaceOnUse">
<stop stop-color="#4676F0"/>
<stop offset="1" stop-color="#39C9F7"/>
</linearGradient>
</defs>
</svg>
