<svg width="32" height="32" viewBox="0 0 32 32" fill="none" xmlns="http://www.w3.org/2000/svg">
<circle cx="16" cy="16" r="15.5" stroke="#FFFDFF"/>
<path d="M24 9.64167V13.6417C24 13.8185 23.9284 13.988 23.801 14.1131C23.6736 14.2381 23.5008 14.3083 23.3206 14.3083H19.2439C19.1102 14.3081 18.9795 14.2692 18.8683 14.1965C18.757 14.1237 18.6701 14.0204 18.6184 13.8994C18.5667 13.7784 18.5526 13.6451 18.5777 13.5162C18.6029 13.3874 18.6662 13.2687 18.7598 13.175L19.9573 12C20.1579 11.8032 20.1579 11.4801 19.9573 11.2833V11.2833C19.0068 10.3517 17.7961 9.71753 16.4784 9.46089C15.1606 9.20426 13.7948 9.33671 12.5538 9.84152C11.3127 10.3463 10.252 11.2008 9.50575 12.297C8.75951 13.3931 8.36121 14.6818 8.36121 16C8.36121 17.3182 8.75951 18.6069 9.50575 19.703C10.252 20.7992 11.3127 21.6537 12.5538 22.1585C13.7948 22.6633 15.1606 22.7957 16.4784 22.5391C17.7961 22.2825 19.0068 21.6483 19.9573 20.7167C20.0198 20.6539 20.0945 20.6041 20.1769 20.57C20.2593 20.536 20.3478 20.5185 20.4372 20.5185C20.5266 20.5185 20.6151 20.536 20.6975 20.57C20.7799 20.6041 20.8545 20.6539 20.917 20.7167C21.0441 20.8416 21.1155 21.011 21.1155 21.1875C21.1155 21.364 21.0441 21.5334 20.917 21.6583C19.7766 22.7767 18.3238 23.5382 16.7424 23.8466C15.1609 24.1549 13.5218 23.9963 12.0322 23.3906C10.5426 22.785 9.26949 21.7596 8.37378 20.4441C7.47807 19.1286 7 17.5821 7 16C7 14.4179 7.47807 12.8714 8.37378 11.5559C9.26949 10.2404 10.5426 9.21499 12.0322 8.60937C13.5218 8.00374 15.1609 7.84507 16.7424 8.15342C18.3238 8.46176 19.7766 9.22327 20.917 10.3417V10.3417C21.1198 10.5407 21.4446 10.5407 21.6474 10.3417L22.8365 9.175C22.9307 9.08115 23.0512 9.01681 23.1827 8.99011C23.3142 8.96341 23.4509 8.97556 23.5753 9.025C23.6993 9.07653 23.8054 9.16219 23.8807 9.27164C23.9561 9.38108 23.9975 9.50961 24 9.64167Z" fill="white"/>
</svg>
