<svg width="44" height="44" viewBox="0 0 44 44" fill="none" xmlns="http://www.w3.org/2000/svg">
<circle r="21.5" transform="matrix(1 0 0 -1 22 22)" stroke="url(#paint0_linear_320_5)"/>
<path d="M31.9246 20.2566C31.8443 20.4537 31.7091 20.6219 31.5362 20.7399C31.3633 20.858 31.1604 20.9206 30.953 20.92H22.5503V33.9169C22.5503 34.2042 22.4397 34.4797 22.2427 34.6828C22.0457 34.8859 21.7786 35 21.5 35C21.2214 35 20.9543 34.8859 20.7573 34.6828C20.5603 34.4797 20.4497 34.2042 20.4497 33.9169V20.92H12.047C11.8396 20.9206 11.6367 20.858 11.4638 20.7399C11.2909 20.6219 11.1557 20.4537 11.0754 20.2566C10.9997 20.0565 10.9805 19.8385 11.02 19.6276C11.0595 19.4168 11.1561 19.2218 11.2986 19.0652L20.7516 9.31748C20.9508 9.1141 21.2197 9 21.5 9C21.7803 9 22.0492 9.1141 22.2484 9.31748L31.7014 19.0652C31.8439 19.2218 31.9405 19.4168 31.98 19.6276C32.0195 19.8385 32.0003 20.0565 31.9246 20.2566Z" fill="url(#paint1_linear_320_5)"/>
<defs>
<linearGradient id="paint0_linear_320_5" x1="21" y1="0" x2="21" y2="42" gradientUnits="userSpaceOnUse">
<stop stop-color="#46F076"/>
<stop offset="1" stop-color="#39F763"/>
</linearGradient>
<linearGradient id="paint1_linear_320_5" x1="21.5" y1="9" x2="21.5" y2="35" gradientUnits="userSpaceOnUse">
<stop stop-color="#49F046"/>
<stop offset="1" stop-color="#39F79C"/>
</linearGradient>
</defs>
</svg>
